<svg width="28" height="24" xmlns="http://www.w3.org/2000/svg" xmlns:xlink="http://www.w3.org/1999/xlink"><defs><path d="M.307.992l12.136 21.691a.615.615 0 0 0 1.043.05l13.761-19.89a.617.617 0 0 0-.463-.966L.887.076a.617.617 0 0 0-.58.916z" id="a"/><path d="M20.994.234L.59 1.797a.566.566 0 0 0-.424.88l12.403 18.397a.564.564 0 0 0 .992-.106l8.001-19.96a.565.565 0 0 0-.567-.774z" id="c"/></defs><g fill="none" fill-rule="evenodd"><g transform="translate(.111 .83)"><mask id="b" fill="#fff"><use xlink:href="#a"/></mask><path fill="#3454F6" mask="url(#b)" d="M-2.806 26.104H30.42V-2.563H-2.806z"/></g><g transform="translate(5.911 2.54)"><mask id="d" fill="#fff"><use xlink:href="#c"/></mask><path fill="#77EB9F" mask="url(#d)" d="M-2.97 24.552h27.46V-2.43H-2.97z"/></g></g></svg>