<?xml version="1.0" standalone="no"?>
<!DOCTYPE svg PUBLIC "-//W3C//DTD SVG 1.1//EN" "http://www.w3.org/Graphics/SVG/1.1/DTD/svg11.dtd">
<svg xmlns="http://www.w3.org/2000/svg"><metadata>This SVG WebFont was generated by YouWorkForThem.
Copyright (c)2015, HK Grotesk Pro Latin by Alfredo Marco Pradil (ammpradil@gmail.com) and HK Grotesk Pro Cyrillic by Stefan Peev (http://www.contextbg.net/). HK Grotesk is a trademark of Alfredo Marco Pradil.</metadata><defs><font horiz-adv-x="1148" id="ywftsvg"><font-face ascent="1434" bbox="-883 -516 2843 2240" cap-height="1413" descent="-614" font-family="" font-stretch="normal" font-weight="400" panose-1="0 0 5 0 0 0 0 0 0 0" underline-position="0" underline-thickness="0" unicode-range="U+0020-FB02" units-per-em="2048" x-height="999"/><missing-glyph d="M62 0l221 959h829l-220 -959h-830zM137 61h707l193 837h-706z" horiz-adv-x="1184"/><glyph d="M981 999l-229 -999h-122l203 887h-401l-204 -887h-131l204 887h-174l26 112h174l21 88q27 115 91.5 193.5t148 113t181.5 34.5q171 0 287 -98l-79 -86q-79 76 -212 76q-234 0 -289 -245l-18 -76h523z" glyph-name="uniFB01" horiz-adv-x="1038" unicode="fi"/><glyph d="M806 -15q-104 0 -134 59t-4 172l246 1051q-66 53 -169 53q-221 0 -276 -245l-18 -76h223l-27 -112h-222l-204 -887h-132l204 887h-166l26 112h165l22 88q39 170 150.5 255.5t259.5 85.5q94 0 159 -21.5t145 -77.5l-249 -1089q-6 -27 -8.5 -44t-1.5 -36.5t9.5 -30.5 t26.5 -18t46 -7t87 11l-18 -115q-78 -15 -140 -15z" glyph-name="uniFB02" horiz-adv-x="1108" unicode="fl"/><glyph d="M97 0l204 887h-174l26 112h174l23 99q35 151 160.5 240.5t285.5 89.5q135 0 227 -64q97 64 222 64q75 0 150 -39l-63 -104q-40 25 -88 25q-179 0 -220 -173l-32 -138h312l-26 -112h-311l-204 -887h-136l203 887h-398l-204 -887h-131zM458 999h399l38 160q17 75 61 125 q-70 36 -164 36q-121 0 -205.5 -65t-108.5 -170z" glyph-name="f_f.liga" horiz-adv-x="1218" unicode="ff"/><glyph d="M1520 999l-230 -999h-131l204 887h-400l-204 -887h-132l203 887h-398l-204 -887h-131l204 887h-174l26 112h174l23 99q35 151 160.5 240.5t285.5 89.5q150 0 245 -79q108 79 258 79q172 0 286 -98l-79 -86q-79 76 -211 76q-234 0 -288 -245l-19 -76h532zM856 999l22 88 q24 108 85 186q-70 47 -171 47q-121 0 -205.5 -65t-108.5 -170l-20 -86h398z" glyph-name="f_f_i.liga" horiz-adv-x="1577" unicode="ffi"/><glyph d="M1354 -15q-75 0 -113.5 28.5t-43 80t10.5 122.5l248 1058q-64 46 -161 46q-234 0 -288 -245l-19 -76h229l-26 -112h-228l-204 -887h-132l203 887h-398l-204 -887h-131l204 887h-174l26 112h174l23 99q35 151 160.5 240.5t285.5 89.5q150 0 246 -76q110 76 257 76 q94 0 162.5 -25t130.5 -76l-247 -1087q-6 -27 -9 -44t-1.5 -36.5t10.5 -30t28.5 -18t49.5 -7.5q33 0 93 11l-18 -115q-80 -15 -144 -15zM458 999h398l22 88q26 117 91 189q-72 44 -177 44q-121 0 -205.5 -65t-108.5 -170z" glyph-name="f_f_l.liga" horiz-adv-x="1660" unicode="ffl"/><glyph d="M972 -61q-158 0 -301 61t-247 165t-165 247t-61 301t61 301t165 247t247 165t301 61t301 -61t247 -165t165 -247t61 -301t-61 -301t-165 -247t-247 -165t-301 -61zM972 10q143 0 273 55.5t224 149.5t149.5 224.5t55.5 273.5t-55.5 273t-149.5 224t-224 149.5t-273 55.5 t-273.5 -55.5t-224.5 -149.5t-149.5 -224t-55.5 -273q0 -191 94 -353t256 -256t353 -94zM568 410q-14 0 -24 9.5t-10 24.5v537q0 15 10 26t24 11q16 0 26.5 -11t10.5 -26v-537q0 -15 -10.5 -24.5t-26.5 -9.5zM972 410q-16 0 -25.5 9.5t-9.5 24.5v537q0 15 10 26t25 11 t25 -11t10 -26v-537q0 -15 -10 -24.5t-25 -9.5zM1373 410q-15 0 -22 10l-271 268q-8 11 -8 25q0 16 8 24l267 263q12 15 29 15q14 0 24 -10t10 -24t-10 -25l-244 -243l244 -244q10 -10 10 -25q0 -13 -11.5 -23.5t-25.5 -10.5zM703 678q-15 0 -24.5 9.5t-9.5 25.5 q0 15 9.5 25t24.5 10h134q15 0 25.5 -10t10.5 -25t-10.5 -25t-25.5 -10h-134z" glyph-name="h_d_c_o.liga" horiz-adv-x="1845" unicode="hdco"/><glyph d="M62 0l221 959h829l-220 -959h-830zM137 61h707l193 837h-706z" glyph-name=".notdef" horiz-adv-x="1184"/><glyph glyph-name="glyph1" horiz-adv-x="0"/><glyph glyph-name="glyph2" horiz-adv-x="682"/><glyph glyph-name="space" horiz-adv-x="523" unicode=" "/><glyph d="M236 398l220 1015h131l-249 -1015h-102zM124 0l50 220h143l-50 -220h-143z" glyph-name="exclam" horiz-adv-x="621" unicode="!"/><glyph d="M348 940l110 473h112l-109 -473h-113zM667 940l109 473h113l-110 -473h-112z" glyph-name="quotedbl" horiz-adv-x="925" unicode="&quot;"/><glyph d="M156 0l189 429h-249l23 96h268l170 388h-264l23 101h284l180 399h109l-180 -403h353l178 403h109l-182 -403h254l-22 -97h-274l-172 -388h272l-23 -96h-291l-188 -429h-108l190 429h-354l-188 -429h-107zM495 525h354l169 388h-353z" glyph-name="numbersign" horiz-adv-x="1415" unicode="#"/><glyph d="M681 800q144 -62 199 -99q145 -97 145 -252q0 -128 -74 -234.5t-196 -166.5t-263 -61l-57 -247l-61 -2l58 251q-172 16 -274 119t-91 272l140 23q-4 -130 61.5 -205t191.5 -86l136 586q-45 20 -73.5 34t-67 36.5t-62.5 45t-47 52.5t-33.5 67.5t-10.5 81.5q0 113 63.5 208 t170 149.5t229.5 55.5l53 231h62l-54 -233q239 -22 312 -230l-125 -60q-51 151 -215 168zM439 1027q0 -69 48 -115t138 -88l111 481q-122 -7 -209.5 -89t-87.5 -189zM521 110q151 7 257.5 99t106.5 220q0 47 -17.5 84.5t-54 67t-71.5 49t-90 44.5z" glyph-name="dollar" unicode="$"/><glyph d="M479 792q-66 0 -113 28t-68.5 74.5t-27.5 106t11 121.5q29 124 116.5 215t207.5 91t175 -93.5t23 -237.5q-32 -133 -122.5 -219t-201.5 -86zM199 0l1121 1413h98l-1120 -1413h-99zM486 884q77 0 141.5 66.5t88.5 170.5q21 91 -8.5 153t-108.5 62q-87 0 -148.5 -70 t-82.5 -168q-11 -39 -9 -77.5t13.5 -69t41 -49t72.5 -18.5zM1015 -15q-66 0 -113.5 28.5t-68.5 75t-27 105.5t11 121q29 124 116.5 215.5t208.5 91.5q118 0 173.5 -94t22.5 -238q-31 -133 -121.5 -219t-201.5 -86zM1021 77q77 0 142 66.5t89 170.5q21 91 -8.5 153t-108.5 62 q-86 0 -148 -70t-84 -168q-11 -39 -8.5 -77.5t13.5 -69t40.5 -49t72.5 -18.5z" glyph-name="percent" horiz-adv-x="1524" unicode="%"/><glyph d="M1260 670q-75 -247 -235 -421l147 -232l-110 -83l-138 221q-215 -171 -472 -171q-195 0 -295 94t-63 257q15 63 48.5 118.5t73 96t99 80.5t109.5 66.5t120 59.5q-66 99 -89 159q-42 107 -20 202q32 137 157 223t272 86q148 0 228 -95.5t48 -236.5q-12 -54 -42 -102.5 t-66 -84.5t-90.5 -73t-100.5 -61.5t-112 -56.5l231 -365q120 146 176 341zM557 1091q-22 -94 89 -271q6 -9 8 -13q63 29 104.5 49.5t91 51.5t80.5 59.5t56.5 67t35.5 81.5q21 87 -25 146t-140 59q-107 0 -191.5 -63.5t-108.5 -166.5zM461 97q220 0 402 155l-255 406 q-64 -30 -109 -54t-96 -58t-85 -67.5t-62 -77.5t-39 -93q-23 -100 42.5 -155.5t201.5 -55.5z" glyph-name="ampersand" horiz-adv-x="1408" unicode="&amp;"/><glyph d="M354 969l103 444h112l-102 -444h-113z" glyph-name="quotesingle" horiz-adv-x="604" unicode="'"/><glyph d="M248 -58q-53 81 -77.5 216t-18.5 281t36 279q52 226 157.5 425.5t250.5 334.5l126 -9q-164 -157 -273.5 -358.5t-159.5 -419.5q-50 -209 -32.5 -409t103.5 -349z" glyph-name="parenleft" horiz-adv-x="561" unicode="("/><glyph d="M-63 -58q156 151 267 351t162 423q32 137 37 267t-21.5 260t-87.5 235l117 -9q82 -136 96.5 -341t-39.5 -435q-46 -199 -160.5 -419.5t-248.5 -340.5z" glyph-name="parenright" horiz-adv-x="561" unicode=")"/><glyph d="M419 844l-97 80l223 187l-240 35l81 133l201 -100l31 234h143l-98 -234l252 100l11 -133l-258 -35l125 -187l-137 -80l-55 233z" glyph-name="asterisk" horiz-adv-x="931" unicode="*"/><glyph d="M495 114l106 460h-461l23 103h461l106 461h103l-107 -461h460l-23 -103h-460l-106 -460h-102z" glyph-name="plus" horiz-adv-x="1269" unicode="+"/><glyph d="M-33 -315l342 577h154l-402 -577h-94z" glyph-name="comma" horiz-adv-x="647" unicode=","/><glyph d="M183 571l25 103h540l-25 -103h-540z" glyph-name="hyphen" horiz-adv-x="873" unicode="-"/><glyph d="M129 0l50 220h133l-50 -220h-133z" glyph-name="period" horiz-adv-x="621" unicode="."/><glyph d="M-206 -427l1210 1940h129l-1211 -1940h-128z" glyph-name="slash" horiz-adv-x="906" unicode="/"/><glyph d="M486 -15q-86 0 -152 24.5t-108 66t-68.5 100t-36.5 123t-9 138.5t10.5 142.5t25.5 139.5q19 82 45 158.5t64.5 160t90.5 151.5t115.5 124t148 87t179.5 31q89 0 157.5 -29t111 -81.5t68 -122t31 -153.5t-2 -172t-29.5 -182q-25 -108 -64 -207.5t-96.5 -191.5t-127 -159 t-161 -107.5t-192.5 -40.5zM499 115q77 0 146.5 34.5t122.5 92t97.5 136.5t74.5 163t51 177q21 90 29.5 171t0.5 157t-34.5 131t-80 88t-131.5 33q-84 0 -157.5 -37t-125.5 -95t-95.5 -140t-70.5 -162t-48 -170q-16 -70 -25 -133.5t-10.5 -131.5t12.5 -122.5t41.5 -98.5 t79.5 -68.5t123 -24.5z" glyph-name="zero" horiz-adv-x="1178" unicode="0"/><glyph d="M843 1413h130l-326 -1413h-135l247 1078h-355l25 107h238q124 0 149 111z" glyph-name="one" horiz-adv-x="1178" unicode="1"/><glyph d="M1134 1000q-25 -106 -93.5 -214.5t-158.5 -198.5t-205.5 -178.5t-222.5 -155.5t-223 -128h776l-29 -125h-986l25 128q97 53 171.5 96t174.5 106t176 118.5t158 128t139 141t102.5 149t63.5 161.5q29 127 -26 201.5t-189 74.5q-159 0 -265 -103t-146 -268l-130 18 q48 211 197.5 343.5t356.5 132.5q196 0 287.5 -113.5t46.5 -313.5z" glyph-name="two" horiz-adv-x="1178" unicode="2"/><glyph d="M467 -15q-107 0 -191.5 29.5t-139 85.5t-73.5 138.5t5 187.5l130 -3q-33 -146 45 -228.5t240 -82.5q161 0 284 83.5t155 227.5q12 39 8.5 71.5t-10.5 57.5t-26.5 45t-39.5 34t-50 24t-57.5 16.5t-62 10t-64 4.5t-63.5 1l22 124q109 -1 189 20t142 78.5t84 152.5 q25 108 -38.5 173t-186.5 65q-135 0 -236.5 -75.5t-129.5 -198.5l-125 18q40 176 181.5 280t321.5 104q181 0 281.5 -104.5t61.5 -270.5q-53 -224 -349 -298q72 -12 128 -40t96 -73.5t52 -108.5t-5 -145q-44 -186 -206.5 -294.5t-372.5 -108.5z" glyph-name="three" horiz-adv-x="1178" unicode="3"/><glyph d="M887 463h230l-30 -126h-230l-77 -337h-135l77 337h-708l20 88l946 988h126zM752 463l171 746l-705 -746h534z" glyph-name="four" horiz-adv-x="1178" unicode="4"/><glyph d="M1184 1286h-618l-186 -458q164 115 329 115q128 0 219 -64t127 -175t5 -244q-46 -196 -218.5 -335.5t-372.5 -139.5q-178 0 -284.5 115.5t-104.5 294.5l131 25q-2 -139 67.5 -224.5t204.5 -85.5q151 0 279.5 110.5t164.5 264.5q33 143 -36 238.5t-215 95.5 q-93 0 -188 -46.5t-170 -129.5l-129 43l296 727h727z" glyph-name="five" horiz-adv-x="1178" unicode="5"/><glyph d="M680 922q130 0 227 -64.5t137 -175.5t11 -241q-29 -124 -116.5 -229t-210 -166t-250.5 -61q-200 0 -310.5 141t-65.5 340q37 156 163 278l554 669h158l-417 -505q61 14 120 14zM926 466q32 135 -45 231.5t-216 96.5q-145 0 -272.5 -103.5t-161.5 -249.5q-32 -136 45 -232 t218 -96q144 0 271 103.5t161 249.5z" glyph-name="six" horiz-adv-x="1178" unicode="6"/><glyph d="M302 1413h1011l-19 -83l-998 -1330h-154l977 1287h-846z" glyph-name="seven" horiz-adv-x="1178" unicode="7"/><glyph d="M477 -15q-93 0 -171.5 26.5t-135.5 79.5t-78 132t1 185q31 129 124.5 225t227.5 139q-77 40 -107 123t-6 192q24 105 99.5 184.5t171 118t195.5 38.5q169 0 261 -103t55 -269q-23 -97 -91.5 -176t-166.5 -120q113 -41 161 -140.5t17 -235.5q-30 -129 -119 -221.5 t-202 -135t-236 -42.5zM659 817q117 0 209 71.5t118 186.5q25 108 -30.5 173t-167.5 65q-110 0 -204.5 -67t-121.5 -185q-26 -110 28 -177t169 -67zM488 103q146 0 264 81t152 230q30 130 -43.5 207.5t-218.5 77.5q-155 0 -270.5 -84.5t-147.5 -224.5q-16 -73 -2 -127 t53 -89.5t93 -53t120 -17.5z" glyph-name="eight" horiz-adv-x="1178" unicode="8"/><glyph d="M784 1428q132 0 229.5 -64.5t137 -175t9.5 -241.5q-34 -151 -157 -272l-559 -675h-159l419 506q-62 -14 -121 -14q-131 0 -228 64.5t-137 175t-10 240.5q29 124 116.5 229t210 166t249.5 61zM337 947q-32 -134 45 -230.5t216 -96.5q146 0 273 103.5t160 248.5 q32 136 -44.5 232t-216.5 96q-145 0 -272.5 -103.5t-160.5 -249.5z" glyph-name="nine" horiz-adv-x="1178" unicode="9"/><glyph d="M301 734l51 220h144l-52 -220h-143zM133 0l50 220h144l-51 -220h-143z" glyph-name="colon" horiz-adv-x="639" unicode=":"/><glyph d="M322 734l51 220h143l-51 -220h-143zM-54 -315l342 577h153l-401 -577h-94z" glyph-name="semicolon" horiz-adv-x="657" unicode=";"/><glyph d="M990 48l-862 564l1118 565l32 -88l-943 -477l725 -476z" glyph-name="less" horiz-adv-x="1278" unicode="&lt;"/><glyph d="M336 811l25 114h786l-26 -114h-785zM245 419l27 113h786l-28 -113h-785z" glyph-name="equal" horiz-adv-x="1314" unicode="="/><glyph d="M83 48l-31 88l942 476l-724 477l69 88l862 -565z" glyph-name="greater" horiz-adv-x="1278" unicode=">"/><glyph d="M435 394l40 171q14 61 44.5 107.5t68.5 75.5t81.5 52.5t87 46.5t81 50.5t67.5 71.5t43 102q28 121 -35 183.5t-204 62.5q-144 0 -242 -77t-129 -210l-115 10q43 182 176 285t316 103q193 0 289.5 -101t54.5 -283q-16 -71 -49 -126t-72.5 -89t-84 -61t-87.5 -48t-80 -42.5 t-64 -52.5t-36 -71l-37 -160h-114zM332 0l50 220h143l-50 -220h-143z" glyph-name="question" horiz-adv-x="1049" unicode="?"/><glyph d="M856 -353q-183 0 -332 60.5t-245.5 174.5t-130 278t14.5 369q44 192 149 359.5t250 288.5t330 190.5t381 69.5q133 0 246.5 -31.5t198 -89.5t147 -139.5t92 -181t34.5 -214.5t-26 -239q-27 -116 -79 -222t-125 -194t-174.5 -140.5t-214.5 -52.5q-105 0 -149.5 61 t-21.5 173q2 50 27 116q-88 -106 -194 -167.5t-219 -61.5q-152 0 -212 104.5t-21 272.5q18 80 57.5 164.5t99.5 166t131 145.5t161 103.5t182 39.5q116 0 173.5 -61t52.5 -169l79 178l107 -7q-28 -68 -104 -232.5t-135 -303.5t-86 -228q-19 -59 -20.5 -97.5t22.5 -62.5 t78 -24q93 0 175.5 45.5t142.5 121.5t102 167t65 191q27 107 22.5 205t-30 183t-79.5 154.5t-127 119t-171.5 76.5t-214.5 27q-237 0 -448 -108t-355.5 -296t-199.5 -422q-40 -179 -11 -319t113.5 -236t213.5 -146.5t289 -50.5q134 0 283 47l21 -105q-153 -50 -315 -50z M833 162q79 0 155 34t137 90t112 127t84.5 146t49.5 146q56 237 -153 237q-98 0 -191 -51t-162 -131.5t-117.5 -174t-69.5 -183.5q-27 -117 11.5 -178.5t143.5 -61.5z" glyph-name="at" horiz-adv-x="2106" unicode="@"/><glyph d="M978 0l-43 341h-624l-198 -341h-161l851 1413h115l198 -1413h-138zM380 460h540l-97 761z" glyph-name="A" horiz-adv-x="1297" unicode="A"/><glyph d="M108 0l325 1413h425q189 0 285.5 -94.5t54.5 -281.5q-24 -100 -96 -180.5t-164 -114.5q109 -26 158 -126t17 -237q-41 -181 -185.5 -280t-347.5 -99h-472zM427 794h331q109 0 198.5 69.5t117.5 191.5q27 115 -34.5 174t-201.5 59h-296zM274 131h331q155 0 252.5 72.5 t130.5 214.5q27 116 -29.5 186t-185.5 70h-374z" glyph-name="B" horiz-adv-x="1269" unicode="B"/><glyph d="M658 -15q-125 0 -222 35.5t-157.5 100.5t-94 156.5t-32 203t28.5 240.5q36 156 106.5 285t171 224t235 147.5t291.5 52.5q423 0 494 -388l-138 -41q-15 155 -108 226t-263 71q-254 0 -423.5 -160t-233.5 -437q-23 -101 -25.5 -187.5t19 -160.5t66.5 -126t121.5 -81.5 t179.5 -29.5q169 0 300.5 76.5t234.5 234.5l116 -62q-253 -380 -667 -380z" glyph-name="C" horiz-adv-x="1451" unicode="C"/><glyph d="M108 0l325 1413h378q350 0 493.5 -189t62.5 -540q-76 -327 -303.5 -505.5t-574.5 -178.5h-381zM273 127h227q289 0 479 146.5t257 440.5q67 290 -43 431t-407 141h-244z" glyph-name="D" horiz-adv-x="1450" unicode="D"/><glyph d="M108 0l325 1413h924l-29 -127h-786l-120 -513h707l-28 -127h-708l-119 -516h787l-30 -130h-923z" glyph-name="E" horiz-adv-x="1268" unicode="E"/><glyph d="M108 0l325 1413h955l-29 -127h-817l-120 -513h718l-29 -127h-718l-148 -646h-137z" glyph-name="F" horiz-adv-x="1255" unicode="F"/><glyph d="M658 -15q-125 0 -222 35.5t-157.5 100.5t-94 156.5t-32 203t28.5 240.5q36 156 106.5 285t170.5 224t235 147.5t292 52.5q422 0 493 -388l-131 -41q-20 158 -113.5 233t-261.5 75q-252 0 -423.5 -165t-235.5 -443q-23 -101 -25.5 -188t18.5 -162t66 -128.5t121.5 -83.5 t179.5 -30q186 0 328 94t221 271l35 141h-344l27 113h480l-168 -728h-110l48 249q-204 -264 -532 -264z" glyph-name="G" horiz-adv-x="1535" unicode="G"/><glyph d="M108 0l325 1413h137l-148 -639h741l149 639h137l-326 -1413h-137l149 647h-742l-148 -647h-137z" glyph-name="H" horiz-adv-x="1460" unicode="H"/><glyph d="M108 0l325 1413h137l-325 -1413h-137z" glyph-name="I" horiz-adv-x="582" unicode="I"/><glyph d="M414 -15q-198 0 -292.5 121.5t-65.5 311.5l135 4q-22 -142 38.5 -225.5t199.5 -83.5q164 0 262.5 101.5t145.5 303.5l178 768h-575l29 127h712l-209 -903q-58 -252 -196.5 -388.5t-361.5 -136.5z" glyph-name="J" horiz-adv-x="1166" unicode="J"/><glyph d="M1564 1413l-671 -556l370 -857h-153l-321 770l-452 -375l-92 -395h-137l325 1413h137l-196 -849l1003 849h187z" glyph-name="K" horiz-adv-x="1443" unicode="K"/><glyph d="M108 0l325 1413h137l-296 -1283h647l-30 -130h-783z" glyph-name="L" horiz-adv-x="1068" unicode="L"/><glyph d="M1571 1413h190l-325 -1411h-132l280 1219l-715 -1105h-134l-208 1129l-287 -1243h-132l325 1411h189l209 -1144z" glyph-name="M" horiz-adv-x="1773" unicode="M"/><glyph d="M1281 1413h132l-326 -1413h-140l-430 1205l-277 -1205h-132l325 1413h144l428 -1194z" glyph-name="N" horiz-adv-x="1424" unicode="N"/><glyph d="M664 -15q-109 0 -196.5 27t-147 76t-99.5 116.5t-56 150t-12.5 174t26.5 190.5q26 115 74.5 219t120.5 194t161.5 155.5t204.5 103t242 37.5q109 0 197 -27t148 -76t99.5 -116.5t56 -150t13 -174t-26.5 -190.5q-26 -115 -74.5 -219t-120.5 -194t-161.5 -155.5t-205 -103 t-243.5 -37.5zM677 108q130 0 241.5 48.5t191.5 133.5t135.5 193.5t85.5 235.5q22 97 24 182.5t-19.5 160.5t-66.5 128.5t-121.5 84.5t-178.5 31q-130 0 -241 -48.5t-191 -134t-135.5 -194t-84.5 -235.5q-22 -97 -24 -182.5t19.5 -160t66 -128.5t120.5 -84.5t178 -30.5z" glyph-name="O" horiz-adv-x="1552" unicode="O"/><glyph d="M108 0l325 1413h385q217 0 322.5 -110t60.5 -303q-42 -182 -191.5 -282t-367.5 -100h-256l-142 -618h-136zM415 748h249q168 0 271.5 71.5t134.5 205.5q30 124 -40.5 191.5t-234.5 67.5h-255z" glyph-name="P" horiz-adv-x="1178" unicode="P"/><glyph d="M1239 -87l-156 199q-186 -127 -419 -127q-109 0 -196.5 27t-147 76t-99.5 116.5t-56 150t-12.5 174t26.5 190.5q26 115 74.5 219t120.5 194t161.5 155.5t204.5 103t242 37.5q109 0 197 -27t148 -76.5t99.5 -117t56 -150t13 -174t-26.5 -190.5q-34 -146 -105.5 -277 t-173.5 -226l157 -192zM679 115q179 0 326 96l-182 225l107 83l183 -221q163 159 225 421q22 96 23 181.5t-22 159t-69 126t-123 82.5t-179 30q-130 0 -242 -47.5t-193.5 -131t-137.5 -191t-85 -234.5q-22 -96 -23.5 -181.5t21.5 -159t69 -126t123 -82.5t179 -30z" glyph-name="Q" horiz-adv-x="1583" unicode="Q"/><glyph d="M106 -1l327 1414h392q210 0 317 -108t63 -298q-32 -137 -131.5 -229t-247.5 -125l236 -654h-142l-219 642q-45 -3 -105 -3h-205l-147 -639h-138zM419 752h264q156 2 258 74t132 203q29 124 -41.5 192t-226.5 68h-262z" glyph-name="R" horiz-adv-x="1257" unicode="R"/><glyph d="M487 -13q-126 0 -223 45t-151 135.5t-46 212.5l140 23q-5 -140 72 -216.5t222 -76.5q158 0 271 93t113 226q0 53 -25 96t-66 71t-93.5 55t-107 48.5t-107 51.5t-93.5 63t-66 85t-25 116q0 114 64.5 209.5t172.5 149.5t232 54q285 0 367 -232l-125 -60q-57 170 -256 170 q-129 0 -223.5 -83.5t-94.5 -195.5q0 -54 32.5 -96.5t84 -71t114 -54.5t125 -56.5t114 -68t84 -96.5t32.5 -135q0 -129 -75 -236t-198 -166.5t-265 -59.5z" glyph-name="S" unicode="S"/><glyph d="M440 0l297 1289h-493l28 124h1124l-29 -124h-493l-296 -1289h-138z" glyph-name="T" horiz-adv-x="1246" unicode="T"/><glyph d="M585 -15q-252 0 -348.5 145t-36.5 406l202 877h138l-202 -873q-49 -211 13 -316.5t250 -105.5q378 0 477 437l199 858h137l-203 -877q-60 -266 -218 -408.5t-408 -142.5z" glyph-name="U" horiz-adv-x="1396" unicode="U"/><glyph d="M1346 1413h159l-883 -1413h-112l-235 1413h143l187 -1204z" glyph-name="V" horiz-adv-x="1359" unicode="V"/><glyph d="M369 -1l-82 1414h141l61 -1217l633 1141h112l104 -1141l625 1217h145l-733 -1414h-139l-104 1122l-624 -1122h-139z" glyph-name="W" horiz-adv-x="1973" unicode="W"/><glyph d="M1452 1413l-647 -700l327 -713h-150l-282 629l-574 -629h-168l660 713l-321 700h152l272 -622l565 622h166z" glyph-name="X" horiz-adv-x="1321" unicode="X"/><glyph d="M474 0l125 540l-336 873h157l269 -739l616 739h176l-740 -873l-125 -540h-142z" glyph-name="Y" horiz-adv-x="1322" unicode="Y"/><glyph d="M1413 1413l-23 -107l-1194 -1181h917l-29 -125h-1110l22 104l1196 1182h-874l29 127h1066z" glyph-name="Z" horiz-adv-x="1302" unicode="Z"/><glyph d="M70 -125l383 1660h372l-20 -91h-264l-341 -1477h264l-22 -92h-372z" glyph-name="bracketleft" horiz-adv-x="655" unicode="["/><glyph d="M557 -428l-312 1941h123l313 -1941h-124z" glyph-name="backslash" horiz-adv-x="905" unicode="\"/><glyph d="M-76 -125l22 92h264l341 1477h-264l20 91h373l-383 -1660h-373z" glyph-name="bracketright" horiz-adv-x="655" unicode="]"/><glyph d="M110 466l685 997l230 -997h-138l-147 740l-487 -740h-143z" glyph-name="asciicircum" horiz-adv-x="1151" unicode="^"/><glyph d="M98 -102l25 102h806l-25 -102h-806z" glyph-name="underscore" horiz-adv-x="1281" unicode="_"/><glyph d="M466 1117l-191 296h141l149 -296h-99z" glyph-name="grave" horiz-adv-x="496" unicode="`"/><glyph d="M429 -15q-100 0 -176 41.5t-116.5 113t-53.5 168t14 205.5q50 212 204.5 357t348.5 145q121 0 204 -65t104 -175l53 224h135l-230 -999h-123l47 223q-72 -112 -181.5 -175t-229.5 -63zM472 105q156 0 276.5 115.5t160.5 292.5q40 165 -25 273t-215 108 q-156 0 -279 -115.5t-163 -290.5q-38 -166 28 -274.5t217 -108.5z" glyph-name="a" horiz-adv-x="1208" unicode="a"/><glyph d="M559 -15q-121 0 -203.5 65t-104.5 175l-53 -225h-137l326 1413h136l-147 -630q71 109 179 170.5t225 61.5q100 0 173.5 -41.5t110 -113t46 -167.5t-17.5 -205q-51 -215 -196 -359t-337 -144zM542 108q155 0 268 113.5t153 291.5q23 109 10 194t-74 136t-161 51 q-156 0 -277.5 -115t-161.5 -291q-39 -166 26.5 -273t216.5 -107z" glyph-name="b" horiz-adv-x="1193" unicode="b"/><glyph d="M433 -15q-106 0 -184 41.5t-117.5 112.5t-50.5 166.5t16 204.5q23 98 71.5 187t117.5 161t165 114.5t203 42.5q140 0 230 -73t114 -207l-133 -39q-13 94 -71.5 146t-152.5 52q-79 0 -149.5 -34t-122 -91.5t-88.5 -130t-55 -153.5q-20 -74 -15.5 -143t27.5 -121.5 t76.5 -84t130.5 -31.5q99 0 185.5 56t138.5 150l111 -56q-76 -130 -193 -200t-254 -70z" glyph-name="c" horiz-adv-x="1013" unicode="c"/><glyph d="M429 -15q-100 0 -176 41.5t-116.5 113t-53.5 168t14 205.5q50 212 204.5 357t348.5 145q121 0 204 -65t104 -175l150 638h134l-326 -1413h-123l47 223q-72 -112 -181.5 -175t-229.5 -63zM472 105q156 0 276.5 115.5t160.5 292.5q40 165 -25 273t-215 108 q-156 0 -279 -115.5t-163 -290.5q-38 -166 28 -274.5t217 -108.5z" glyph-name="d" horiz-adv-x="1209" unicode="d"/><glyph d="M1006 758q0 -62 -30 -110.5t-86.5 -80.5t-126.5 -54t-162.5 -33.5t-182 -16t-195.5 -4.5q-8 -53 -8 -99q0 -255 258 -255q89 0 165.5 32.5t155.5 99.5l77 -91q-100 -83 -198 -122t-213 -39q-191 0 -284.5 98t-93.5 277q0 98 27 194t79 178.5t123 146t166 100t201 36.5 q157 0 242.5 -74.5t85.5 -182.5zM673 902q-150 0 -260.5 -94t-161.5 -241q55 0 90.5 1t99 3t107.5 8t100.5 14.5t94.5 23t73 34t52.5 47.5t17.5 62q0 63 -58.5 102.5t-154.5 39.5z" glyph-name="e" horiz-adv-x="1037" unicode="e"/><glyph d="M131 0l204 887h-208l26 112h208l38 160q31 131 121.5 200t216.5 69q74 0 145 -39l-63 -104q-37 25 -83 25q-80 0 -134 -44t-74 -129l-31 -138h293l-26 -112h-293l-204 -887h-136z" glyph-name="f" horiz-adv-x="703" unicode="f"/><glyph d="M360 -465q-157 0 -253.5 69t-133.5 187l113 65q21 -93 94.5 -148.5t193.5 -55.5q155 0 264.5 102t151.5 282l45 191q-72 -109 -179.5 -170.5t-225.5 -61.5q-100 0 -176 41.5t-116.5 112.5t-53.5 166t14 203q49 208 203 352.5t348 144.5q121 0 204 -65t104 -175l54 224 h133l-225 -973q-52 -229 -199.5 -360t-359.5 -131zM474 118q156 0 276 113t160 287q38 162 -27 269t-215 107q-156 0 -279 -114.5t-162 -285.5q-38 -162 29 -269t218 -107z" glyph-name="g" horiz-adv-x="1207" unicode="g"/><glyph d="M61 0l326 1413h134l-136 -579q67 89 157.5 135t189.5 46q87 0 148.5 -30t91.5 -82.5t38.5 -123t-11.5 -151.5l-144 -628h-134l139 607q68 287 -171 287q-133 0 -231.5 -91.5t-132.5 -237.5l-129 -565h-135z" glyph-name="h" horiz-adv-x="1120" unicode="h"/><glyph d="M338 1208l47 205h138l-47 -205h-138zM62 0l230 999h131l-229 -999h-132z" glyph-name="i" horiz-adv-x="484" unicode="i"/><glyph d="M339 1212l46 201h139l-46 -201h-139zM-162 -433q-79 0 -159 34l55 111q55 -24 105 -24q151 0 193 182l260 1129h133l-260 -1130q-34 -144 -116 -223t-211 -79z" glyph-name="j" horiz-adv-x="485" unicode="j"/><glyph d="M1111 999l-449 -372l274 -627h-133l-236 548l-304 -252l-69 -296h-133l326 1413h132l-223 -957l640 543h175z" glyph-name="k" horiz-adv-x="1081" unicode="k"/><glyph d="M242 -15q-104 0 -134.5 59t-4.5 172l277 1197h132l-271 -1173q-6 -27 -9 -44t-1.5 -36.5t9.5 -30.5t26 -18t46 -7q30 0 87 11l-17 -115q-78 -15 -140 -15z" glyph-name="l" horiz-adv-x="544" unicode="l"/><glyph d="M62 0l229 999h128l-40 -169q123 185 338 185q115 0 184.5 -56.5t76.5 -164.5q70 110 167 165.5t210 55.5q175 0 235.5 -117.5t15.5 -318.5l-133 -579h-133l133 573q39 155 2 236.5t-159 81.5q-125 0 -221.5 -86t-126.5 -218l-134 -587h-133l141 609q65 282 -164 282 q-126 0 -222.5 -85.5t-126.5 -218.5l-134 -587h-133z" glyph-name="m" horiz-adv-x="1737" unicode="m"/><glyph d="M62 0l230 999h132l-40 -165q67 89 158.5 135t190.5 46q170 0 235.5 -108t29.5 -279l-144 -628h-132l139 607q32 138 -12.5 211.5t-163.5 73.5q-131 0 -227 -81t-129 -225l-134 -586h-133z" glyph-name="n" horiz-adv-x="1119" unicode="n"/><glyph d="M461 -15q-141 0 -237.5 70.5t-130 191t-0.5 267.5q50 213 216.5 357t374.5 144q141 0 238 -70t132 -190.5t2 -265.5q-25 -104 -82 -196.5t-134.5 -160.5t-176.5 -107.5t-202 -39.5zM473 100q161 0 285.5 119t165.5 295q39 165 -28.5 275t-223.5 110q-160 0 -283 -117 t-164 -293q-39 -167 27 -278t221 -111z" glyph-name="o" unicode="o"/><glyph d="M-33 -414l326 1413h136l-51 -217q71 110 180 171.5t226 61.5q99 0 172 -41.5t109.5 -113.5t46 -168.5t-17.5 -205.5q-25 -104 -74.5 -195t-117.5 -159t-156.5 -107.5t-186.5 -39.5q-121 0 -202.5 64.5t-103.5 174.5l-150 -638h-136zM544 105q154 0 267.5 114.5 t153.5 291.5q21 81 15 150.5t-32 120.5t-79.5 80.5t-128.5 29.5q-157 0 -278 -114.5t-161 -291.5q-39 -165 26.5 -273t216.5 -108z" glyph-name="p" horiz-adv-x="1195" unicode="p"/><glyph d="M670 -414l147 630q-72 -109 -179.5 -170t-224.5 -61q-100 0 -173.5 41.5t-110 112.5t-46 167t17.5 205q25 104 74 195.5t117 160t156.5 108.5t185.5 40q121 0 203.5 -65t104.5 -176l53 225h137l-326 -1413h-136zM455 105q156 0 277.5 115t161.5 291q39 166 -27 273.5 t-216 107.5q-155 0 -268 -113.5t-153 -292.5q-23 -109 -10 -194t74 -136t161 -51z" glyph-name="q" horiz-adv-x="1193" unicode="q"/><glyph d="M62 0l230 999h129l-47 -204q60 108 158 164t194 56q90 0 150 -52l-80 -103q-41 26 -104 26q-53 0 -109 -22t-110.5 -66t-99 -120t-67.5 -173l-116 -505h-128z" glyph-name="r" horiz-adv-x="787" unicode="r"/><glyph d="M368 -15q-149 0 -243.5 74.5t-109.5 193.5l114 37q11 -88 72.5 -141t171.5 -53q120 0 202.5 63.5t82.5 162.5q0 46 -27 77t-69.5 47.5t-94.5 29t-104 26.5t-94.5 35t-69.5 61t-27 97q0 140 116.5 230t284.5 90q121 0 200.5 -56.5t110.5 -157.5l-111 -45q-46 152 -214 152 q-109 0 -183 -52t-74 -134q0 -40 27 -68t70 -44t95 -29t104 -30t95 -41t70 -67.5t27 -103.5q0 -102 -57.5 -184t-153.5 -126t-211 -44z" glyph-name="s" horiz-adv-x="928" unicode="s"/><glyph d="M369 -15q-135 0 -189 78t-21 222l138 602h-166l26 112h168l65 289l154 97l-89 -386h279l-25 -112h-280l-137 -591q-23 -103 4.5 -148.5t105.5 -45.5q60 0 126 26l-19 -125q-59 -18 -140 -18z" glyph-name="t" horiz-adv-x="697" unicode="t"/><glyph d="M385 -15q-170 0 -235 108t-29 279l144 627h131l-139 -607q-32 -137 12.5 -210.5t163.5 -73.5q131 0 227.5 81t130.5 225l134 585h131l-230 -999h-131l40 166q-66 -89 -158 -135t-192 -46z" glyph-name="u" horiz-adv-x="1118" unicode="u"/><glyph d="M328 0l-180 999h143l128 -831l513 831h146l-638 -999h-112z" glyph-name="v" horiz-adv-x="998" unicode="v"/><glyph d="M226 -2l-60 1001h140l33 -800l454 800h121l81 -799l407 799h142l-521 -999h-126l-83 817l-463 -819h-125z" glyph-name="w" horiz-adv-x="1481" unicode="w"/><glyph d="M-70 0l485 502l-249 497h157l198 -406l386 406h167l-485 -497l251 -502h-159l-198 410l-387 -410h-166z" glyph-name="x" horiz-adv-x="1006" unicode="x"/><glyph d="M71 -428l272 440l-197 987h144l157 -832l500 832h147l-877 -1427h-146z" glyph-name="y" horiz-adv-x="1015" unicode="y"/><glyph d="M1013 999l-23 -106l-833 -780h647l-26 -113h-826l20 97l851 790h-634l26 112h798z" glyph-name="z" horiz-adv-x="976" unicode="z"/><glyph d="M283 -138q-100 0 -139.5 69.5t-12.5 187.5l82 354q9 42 -1.5 70.5t-30 42t-53.5 26.5l15 100q64 16 104.5 51.5t57.5 108.5l89 384q56 243 270 243h108l-20 -89h-60q-150 0 -187 -166l-89 -384q-20 -85 -60 -130t-107 -67l-9 -10q115 -53 85 -188l-82 -354 q-38 -160 95 -160h76l-21 -89h-110z" glyph-name="braceleft" horiz-adv-x="621" unicode="{"/><glyph d="M34 -512l473 2046h100l-473 -2046h-100z" glyph-name="bar" horiz-adv-x="635" unicode="|"/><glyph d="M-68 -138l21 89h70q66 0 113 46.5t65 123.5l81 354q17 71 57 114t107 68l10 10q-119 45 -83 203l89 384q19 80 -5 118t-101 38h-67l20 89h103q107 0 148 -65.5t13 -187.5l-89 -384q-17 -73 5 -105.5t77 -48.5l-15 -100q-63 -19 -104 -52t-55 -93l-81 -354 q-27 -118 -93.5 -182.5t-166.5 -64.5h-119z" glyph-name="braceright" horiz-adv-x="620" unicode="}"/><glyph d="M779 373q-50 0 -86 18.5t-53.5 46.5t-33.5 60t-28.5 60t-37 46.5t-59.5 18.5q-64 0 -114 -56.5t-73 -151.5l-98 10q30 133 108.5 211.5t182.5 78.5q45 0 79 -14t53.5 -36t34 -48.5t26 -53t24 -48.5t33 -36t49.5 -14q63 0 118 64.5t79 165.5l98 -10q-33 -142 -115 -227 t-187 -85z" glyph-name="asciitilde" horiz-adv-x="1251" unicode="~"/><glyph glyph-name="uni00A0" horiz-adv-x="563" unicode=" "/><glyph d="M303 779l50 220h144l-51 -220h-143zM34 -414l249 1015h102l-220 -1015h-131z" glyph-name="exclamdown" horiz-adv-x="621" unicode="¡"/><glyph d="M412 -213l49 202q-92 8 -159.5 51.5t-102 113t-43.5 161t17 195.5q21 93 66 178.5t109.5 156t153 116t188.5 53.5l47 186h72l-47 -186q126 -7 207.5 -79.5t104.5 -199.5l-133 -39q-13 87 -64.5 138t-135.5 58l-188 -782q89 7 166 60.5t126 140.5l110 -56 q-73 -124 -183 -193.5t-240 -76.5l-49 -196zM481 110l188 776q-92 -11 -169 -70.5t-126 -144.5t-72 -186q-18 -69 -15 -133.5t21.5 -115t63 -84.5t109.5 -42z" glyph-name="cent" horiz-adv-x="1171" unicode="¢"/><glyph d="M916 1317q-137 0 -240 -85t-136 -228q-27 -112 -11 -220l472 6l-25 -113l-444 -5q2 -12 6.5 -46t6.5 -51.5t3.5 -47t-1 -56t-9.5 -54.5q-48 -203 -270 -304h845l-26 -113h-1030l27 133q128 33 226.5 118.5t122.5 187.5q6 28 6.5 63.5t-1 53t-9 68.5t-8.5 58l-201 -5 l26 113l173 5q-14 110 14 235q39 173 175.5 286.5t318.5 113.5q139 0 225 -83.5t105 -220.5l-110 -28q-16 106 -75.5 162.5t-155.5 56.5z" glyph-name="sterling" horiz-adv-x="1265" unicode="£"/><glyph d="M339 175l-72 75l101 99q-103 123 -102.5 285t102.5 285l-100 98l72 75l100 -102q124 102 285.5 102.5t284.5 -101.5l100 100l73 -72l-101 -99q103 -124 103 -286t-103 -286l101 -98l-72 -75l-101 101q-123 -102 -285 -102t-286 102zM471 382q105 -106 253.5 -106 t252.5 106q104 104 104.5 252t-104.5 252q-104 104 -252.5 104t-252.5 -105q-104 -104 -104 -252t103 -251z" glyph-name="currency" horiz-adv-x="1418" unicode="¤"/><glyph d="M541 0l50 224h-363l27 109h362l47 198h-363l25 109h302l-298 773h164l269 -739l615 739h169l-654 -773h298l-25 -109h-360l-46 -198h360l-26 -109h-361l-50 -224h-142z" glyph-name="yen" horiz-adv-x="1452" unicode="¥"/><glyph d="M322 731l172 744h110l-172 -744h-110zM82 -307l168 727h110l-167 -727h-111z" glyph-name="brokenbar" horiz-adv-x="647" unicode="¦"/><glyph d="M488 -14q-156 0 -254.5 70.5t-115.5 210.5l130 29q19 -108 81 -155t178 -47q129 0 223.5 51.5t114.5 135.5q10 44 -11.5 77.5t-65.5 52.5t-101 38.5t-117.5 34.5t-116 40.5t-96 56.5t-58 83t-1.5 120q25 109 134 198q-72 63 -47 176q28 122 150 196t273 74q130 0 215 -48 t121 -132l-115 -52q-24 66 -81 97t-153 31q-116 0 -201 -56t-104 -136q-9 -38 8 -68t52 -48.5t82.5 -35t100.5 -29.5t106 -32t98.5 -41t78 -57t44.5 -80t-2 -111q-26 -110 -131 -197q71 -64 44 -177q-20 -86 -91 -148.5t-167.5 -92t-204.5 -29.5zM802 494q103 52 128 157 q10 44 -5.5 79t-46 56.5t-78.5 41.5t-94 32.5t-101 31t-91 36.5q-51 -28 -84 -71.5t-44 -92.5q-12 -51 10.5 -88.5t72.5 -61.5t103.5 -41t121.5 -38t108 -41z" glyph-name="section" horiz-adv-x="1187" unicode="§"/><glyph d="M336 1208l47 205h113l-47 -205h-113zM699 1208l47 205h113l-47 -205h-113z" glyph-name="dieresis" horiz-adv-x="800" unicode="¨"/><glyph d="M928 -19q-199 0 -367.5 97t-266.5 264t-98 365q0 148 58 282.5t156 231.5t233.5 154.5t284.5 57.5q148 0 283.5 -57.5t233.5 -154.5t156 -231.5t58 -282.5t-58 -282.5t-156 -231.5t-233 -154.5t-284 -57.5zM928 68q105 0 203 32t177.5 91.5t139.5 138t92.5 176 t32.5 201.5q0 130 -51.5 248t-137.5 204t-205.5 136.5t-250.5 50.5q-132 0 -251.5 -50.5t-206 -136t-137.5 -204t-51 -248.5q0 -174 86 -321t235 -232.5t325 -85.5zM949 238q-125 0 -218.5 63t-140.5 168t-47 236q0 72 15.5 140t48.5 128t80 105t114 71t146 26 q125 0 219.5 -63.5t145.5 -184.5l-106 -41q-34 87 -102.5 137.5t-156.5 50.5q-58 0 -106.5 -20t-82.5 -55t-58 -82t-35 -100.5t-11 -111.5q0 -155 76 -260.5t218 -105.5q91 0 157.5 49.5t95.5 136.5l101 -39q-42 -118 -135 -183t-218 -65z" glyph-name="copyright" horiz-adv-x="1758" unicode="©"/><glyph d="M414 705q-108 0 -164 61t-33 161q46 197 337 197l210 5q6 25 10 55q27 170 -151 170q-127 0 -243 -124l-58 54q75 78 145.5 111t160.5 33q135 0 191.5 -76.5t26.5 -209.5l-98 -426h-74l31 131q-129 -142 -291 -142zM430 781q81 0 153.5 45t127.5 127q24 54 35 103 l-196 -5q-105 0 -169.5 -38.5t-81.5 -110.5q-13 -54 24 -87.5t107 -33.5z" glyph-name="ordfeminine" horiz-adv-x="865" unicode="ª"/><glyph d="M388 170l-318 341l473 341l-28 -126l-309 -222l205 -222zM764 170l-319 341l474 341l-28 -126l-309 -222l204 -222z" glyph-name="guillemotleft" horiz-adv-x="986" unicode="«"/><glyph d="M886 291l90 387h-777l26 119h904l-116 -506h-127z" glyph-name="logicalnot" horiz-adv-x="1326" unicode="¬"/><glyph d="M183 571l25 103h683l-25 -103h-683z" glyph-name="uni00AD" horiz-adv-x="1017" unicode="­"/><glyph d="M928 -19q-199 0 -367.5 97t-266.5 264t-98 365q0 148 58 282.5t156 231.5t233.5 154.5t284.5 57.5q148 0 283.5 -57.5t233.5 -154.5t156 -231.5t58 -282.5t-58 -282.5t-156 -231.5t-233 -154.5t-284 -57.5zM928 68q105 0 203 32t177.5 91.5t139.5 138t92.5 176 t32.5 201.5q0 130 -51.5 248t-137.5 204t-205.5 136.5t-250.5 50.5q-132 0 -251.5 -50.5t-206 -136t-137.5 -204t-51 -248.5q0 -174 86 -321t235 -232.5t325 -85.5zM699 269v875h245q134 0 213 -66.5t79 -179.5q0 -85 -47 -143.5t-133 -80.5l239 -405h-103l-226 395 q-36 -2 -55 -2h-120v-393h-92zM791 737h160q94 1 144.5 43t50.5 117q0 78 -53 121t-148 43h-154v-324z" glyph-name="registered" horiz-adv-x="1758" unicode="®"/><glyph d="M332 1220l19 82h548l-19 -82h-548z" glyph-name="macron" horiz-adv-x="880" unicode="¯"/><glyph d="M570 853q-121 0 -187.5 88t-38.5 212q27 114 128 194.5t216 80.5q122 0 187.5 -88t37.5 -212q-25 -113 -126 -194t-217 -81zM577 945q84 0 157.5 60.5t92.5 147.5q19 76 -24 129.5t-121 53.5q-85 0 -158 -60.5t-93 -147.5q-17 -76 25 -129.5t121 -53.5z" glyph-name="degree" horiz-adv-x="963" unicode="°"/><glyph d="M551 188l107 468h-476l25 103h476l108 466h102l-108 -466h476l-25 -103h-475l-108 -468h-102zM7 -102l25 102h1042l-24 -102h-1043z" glyph-name="plusminus" horiz-adv-x="1346" unicode="±"/><glyph d="M845 1374q-18 -76 -73 -150.5t-137 -139.5t-177.5 -120.5t-206.5 -103.5h520l-18 -79h-617l16 86q63 34 101 55.5t104.5 61.5t109.5 71t97.5 76t89 85t63 88.5t39.5 96.5q15 69 -15.5 110.5t-104.5 41.5q-92 0 -154.5 -62t-85.5 -157l-89 17q29 126 118.5 207t215.5 81 q118 0 175 -71t29 -194z" glyph-name="uni00B2" horiz-adv-x="768" unicode="²"/><glyph d="M444 770q-134 0 -204 72.5t-41 197.5l90 -5q-20 -84 25 -130.5t136 -46.5q93 0 164.5 49t91.5 134q7 22 4.5 40.5t-6 32.5t-15 25t-22.5 18.5t-29 13t-33 8.5t-35.5 4.5t-37.5 2t-37 0.5l13 85q101 0 161 33.5t78 112.5q15 59 -21 94.5t-104 35.5q-78 0 -137 -43.5 t-76 -113.5l-86 15q25 108 110 170t194 62q110 0 171.5 -65t37.5 -168q-27 -123 -196 -173q85 -14 128.5 -72t21.5 -149q-25 -112 -122.5 -176t-223.5 -64z" glyph-name="uni00B3" horiz-adv-x="768" unicode="³"/><glyph d="M214 1127l285 286h144l-325 -286h-104z" glyph-name="acute" horiz-adv-x="497" unicode="´"/><glyph d="M71 -348l310 1347h131l-139 -607q-32 -137 12.5 -210.5t163.5 -73.5q131 0 227.5 81t129.5 225l134 585h131l-229 -999h-131l40 166q-66 -89 -158 -135t-192 -46q-175 0 -212 126l-110 -459h-108z" glyph-name="uni00B5" horiz-adv-x="1284" unicode="µ"/><glyph d="M406 -246l203 869q-88 0 -163 27.5t-127.5 79.5t-72.5 128t2 172q27 117 111.5 206t195.5 133t230 44h99l-383 -1659h-95zM722 -246l383 1659h96l-383 -1659h-96z" glyph-name="paragraph" horiz-adv-x="1258" unicode="¶"/><glyph d="M366 599q-56 0 -95 39t-39 95q0 57 38.5 95t95.5 38q56 0 95 -38t39 -95q0 -55 -39 -94.5t-95 -39.5z" glyph-name="periodcentered" horiz-adv-x="680" unicode="·"/><glyph d="M56 -516q-64 0 -110.5 38t-57.5 96l81 23q5 -36 30.5 -56.5t63.5 -20.5q60 0 103 33.5t56 91.5q13 50 -25.5 81t-120.5 37q-44 3 -91 3l150 189h86l-118 -133q26 -1 59 -12q84 -15 119.5 -63t18.5 -123q-20 -82 -86.5 -133t-157.5 -51z" glyph-name="cedilla" horiz-adv-x="591" unicode="¸"/><glyph d="M643 1629h90l-197 -848h-94l146 638h-208l17 74h135q80 0 97 73z" glyph-name="uni00B9" horiz-adv-x="768" unicode="¹"/><glyph d="M563 716q-152 0 -226.5 106.5t-38.5 262.5q33 145 151.5 244t263.5 99q150 0 224.5 -106t38.5 -261q-33 -146 -150.5 -245.5t-262.5 -99.5zM567 799q117 0 204.5 80.5t116.5 205.5q27 114 -21 188t-158 74q-118 0 -206 -80.5t-117 -205.5q-26 -115 22 -188.5t159 -73.5z " glyph-name="ordmasculine" horiz-adv-x="1011" unicode="º"/><glyph d="M72 170l25 126l310 222l-204 222l23 112l318 -341zM447 170l26 126l309 222l-203 222l23 112l318 -341z" glyph-name="guillemotright" horiz-adv-x="987" unicode="»"/><glyph d="M595 1421h90l-197 -848h-94l146 638h-208l17 74h135q80 0 97 73zM1291 1413h97l-795 -1413h-96zM1570 290h137l-20 -88h-137l-46 -202h-95l46 202h-418l12 59l563 587h86zM1476 290l95 413l-391 -413h296z" glyph-name="onequarter" horiz-adv-x="1823" unicode="¼"/><glyph d="M595 1421h90l-197 -848h-94l146 638h-208l17 74h135q80 0 97 73zM1291 1413h97l-795 -1413h-96zM1718 593q-18 -76 -73 -150.5t-137 -139.5t-177 -120t-206 -104h520l-19 -79h-616l16 86q65 36 100.5 56t103.5 61t109.5 71t96.5 75.5t89 85t63 88.5t40 97q16 69 -14 110 t-105 41q-92 0 -154.5 -61.5t-85.5 -156.5l-89 16q30 127 119 207.5t215 80.5q118 0 175 -70.5t29 -193.5z" glyph-name="onehalf" horiz-adv-x="1823" unicode="½"/><glyph d="M742 804q-25 -112 -122.5 -176t-223.5 -64q-134 0 -204 72.5t-41 197.5l90 -5q-20 -84 25 -130.5t136 -46.5q93 0 164.5 49t91.5 134q7 22 4.5 40.5t-6 32.5t-15 25t-22.5 18.5t-29 13t-33 8.5t-35.5 4.5t-37.5 2t-37 0.5l13 85q101 0 161 33.5t78 112.5q15 59 -21 94.5 t-104 35.5q-78 0 -137 -43.5t-76 -113.5l-86 15q25 108 110 170t194 62q110 0 171.5 -65t37.5 -168q-27 -123 -196 -173q85 -14 128.5 -72t21.5 -149zM1291 1413h97l-795 -1413h-96zM1570 290h137l-20 -88h-137l-46 -202h-95l46 202h-418l12 59l563 587h86zM1476 290l95 413 l-391 -413h296z" glyph-name="threequarters" horiz-adv-x="1823" unicode="¾"/><glyph d="M523 779l50 220h144l-50 -220h-144zM334 -429q-194 0 -290 101.5t-54 282.5q16 71 49 126t72.5 89.5t84 61t87.5 48t80 43t64 52t36 70.5l37 160h113l-40 -171q-14 -61 -44 -107.5t-68 -75.5t-81.5 -52.5t-87 -46.5t-81.5 -50.5t-67.5 -71.5t-43.5 -102 q-28 -120 35.5 -182.5t204.5 -62.5q145 0 242.5 76.5t128.5 209.5l114 -10q-42 -182 -175 -285t-316 -103z" glyph-name="questiondown" horiz-adv-x="1049" unicode="¿"/><glyph d="M925 1530h-79l-190 296h120zM978 0l-43 341h-624l-198 -341h-161l851 1413h115l198 -1413h-138zM380 460h540l-97 761z" glyph-name="Agrave" horiz-adv-x="1297" unicode="À"/><glyph d="M1251 1826l-325 -286h-104l285 286h144zM803 1413h115l198 -1413h-138l-43 341h-624l-198 -341h-161zM380 460h540l-97 761z" glyph-name="Aacute" horiz-adv-x="1297" unicode="Á"/><glyph d="M934 1727l-238 -201h-113l373 319l230 -319h-108zM803 1413h115l198 -1413h-138l-43 341h-624l-198 -341h-161zM380 460h540l-97 761z" glyph-name="Acircumflex" horiz-adv-x="1297" unicode="Â"/><glyph d="M1190 1820l81 -10q-28 -118 -89 -184t-140 -66q-40 0 -69.5 13.5t-44.5 33t-29 43t-24 43t-28 32.5t-43 13q-50 1 -90.5 -44.5t-57.5 -121.5l-77 11q26 115 88 178t145 62q44 0 74.5 -18t46.5 -44t29.5 -52t34.5 -44.5t50 -18.5q45 0 85 48t58 126zM803 1413h115 l198 -1413h-138l-43 341h-624l-198 -341h-161zM380 460h540l-97 761z" glyph-name="Atilde" horiz-adv-x="1297" unicode="Ã"/><glyph d="M829 1826l-47 -205h-113l47 205h113zM1079 1826h113l-47 -205h-113zM803 1413h115l198 -1413h-138l-43 341h-624l-198 -341h-161zM380 460h540l-97 761z" glyph-name="Adieresis" horiz-adv-x="1297" unicode="Ä"/><glyph d="M963 1896q82 0 127.5 -60t26.5 -146q-18 -76 -85 -129t-144 -53q-85 0 -129.5 60.5t-24.5 146.5q18 75 84.5 128t144.5 53zM1047 1716q10 44 -14 74t-73 30q-54 0 -99 -37.5t-56 -91.5q-11 -46 13.5 -77t71.5 -31q54 0 98.5 38t58.5 95zM803 1413h115l198 -1413h-138 l-43 341h-624l-198 -341h-161zM380 460h540l-97 761z" glyph-name="Aring" horiz-adv-x="1297" unicode="Å"/><glyph d="M-48 0l848 1413h1217l-27 -122h-766l-122 -523h666l-26 -117h-667l-121 -526h766l-28 -125h-904l78 341h-557l-197 -341h-160zM377 450h514l196 846h-217z" glyph-name="AE" horiz-adv-x="1928" unicode="Æ"/><glyph d="M970 1298q-254 0 -423.5 -160t-233.5 -437q-23 -101 -25.5 -187.5t19 -160.5t66.5 -126t121.5 -81.5t179.5 -29.5q169 0 300.5 76.5t234.5 234.5l116 -62q-233 -351 -607 -378l-107 -121q26 -1 59 -12q84 -15 119.5 -63t18.5 -123q-20 -82 -86.5 -133t-157.5 -51 q-64 0 -110.5 38t-57.5 96l81 23q5 -36 30.5 -56.5t63.5 -20.5q60 0 103 33.5t56 91.5q13 50 -25.5 81t-120.5 37q-44 3 -91 3l139 175q-119 4 -211.5 41.5t-150 103t-89 156t-29.5 200t29 235.5q36 156 106.5 285t171 224t235 147.5t291.5 52.5q423 0 494 -388l-138 -41 q-15 155 -108 226t-263 71z" glyph-name="Ccedilla" horiz-adv-x="1451" unicode="Ç"/><glyph d="M883 1530l-190 296h120l149 -296h-79zM108 0l325 1413h924l-29 -127h-786l-120 -513h707l-28 -127h-708l-119 -516h787l-30 -130h-923z" glyph-name="Egrave" horiz-adv-x="1268" unicode="È"/><glyph d="M859 1540l285 286h144l-325 -286h-104zM108 0l325 1413h924l-29 -127h-786l-120 -513h707l-28 -127h-708l-119 -516h787l-30 -130h-923z" glyph-name="Eacute" horiz-adv-x="1268" unicode="É"/><glyph d="M620 1526l373 319l230 -319h-108l-144 201l-238 -201h-113zM108 0l325 1413h924l-29 -127h-786l-120 -513h707l-28 -127h-708l-119 -516h787l-30 -130h-923z" glyph-name="Ecircumflex" horiz-adv-x="1268" unicode="Ê"/><glyph d="M706 1621l47 205h113l-47 -205h-113zM1069 1621l47 205h113l-47 -205h-113zM108 0l325 1413h924l-29 -127h-786l-120 -513h707l-28 -127h-708l-119 -516h787l-30 -130h-923z" glyph-name="Edieresis" horiz-adv-x="1268" unicode="Ë"/><glyph d="M488 1530l-190 296h120l149 -296h-79zM108 0l325 1413h137l-325 -1413h-137z" glyph-name="Igrave" horiz-adv-x="582" unicode="Ì"/><glyph d="M464 1540l285 286h144l-325 -286h-104zM108 0l325 1413h137l-325 -1413h-137z" glyph-name="Iacute" horiz-adv-x="582" unicode="Í"/><glyph d="M225 1526l373 319l230 -319h-108l-144 201l-238 -201h-113zM108 0l325 1413h137l-325 -1413h-137z" glyph-name="Icircumflex" horiz-adv-x="582" unicode="Î"/><glyph d="M311 1621l47 205h113l-47 -205h-113zM674 1621l47 205h113l-47 -205h-113zM108 0l325 1413h137l-325 -1413h-137z" glyph-name="Idieresis" horiz-adv-x="582" unicode="Ï"/><glyph d="M811 1413q350 0 493.5 -189t62.5 -540q-76 -327 -303.5 -505.5t-574.5 -178.5h-381l152 661h-153l22 92h152l152 660h378zM1236 714q67 290 -43 431t-407 141h-244l-124 -533h345l-21 -92h-345l-124 -534h227q289 0 479 146.5t257 440.5z" glyph-name="Eth" horiz-adv-x="1450" unicode="Ð"/><glyph d="M868 1738q-50 1 -90.5 -44.5t-57.5 -121.5l-77 11q26 115 88 178t145 62q44 0 74.5 -18t46.5 -44t29.5 -52t34.5 -44.5t50 -18.5q45 0 85 48t58 126l81 -10q-28 -118 -89 -184t-140 -66q-40 0 -69.5 13.5t-44.5 33t-29 43t-24 43t-28 32.5t-43 13zM1281 1413h132 l-326 -1413h-140l-430 1205l-277 -1205h-132l325 1413h144l428 -1194z" glyph-name="Ntilde" horiz-adv-x="1424" unicode="Ñ"/><glyph d="M973 1530l-190 296h120l149 -296h-79zM664 -15q-109 0 -196.5 27t-147 76t-99.5 116.5t-56 150t-12.5 174t26.5 190.5q26 115 74.5 219t120.5 194t161.5 155.5t204.5 103t242 37.5q109 0 197 -27t148 -76t99.5 -116.5t56 -150t13 -174t-26.5 -190.5q-26 -115 -74.5 -219 t-120.5 -194t-161.5 -155.5t-205 -103t-243.5 -37.5zM677 108q130 0 241.5 48.5t191.5 133.5t135.5 193.5t85.5 235.5q22 97 24 182.5t-19.5 160.5t-66.5 128.5t-121.5 84.5t-178.5 31q-130 0 -241 -48.5t-191 -134t-135.5 -194t-84.5 -235.5q-22 -97 -24 -182.5t19.5 -160 t66 -128.5t120.5 -84.5t178 -30.5z" glyph-name="Ograve" horiz-adv-x="1552" unicode="Ò"/><glyph d="M949 1540l285 286h144l-325 -286h-104zM664 -15q-109 0 -196.5 27t-147 76t-99.5 116.5t-56 150t-12.5 174t26.5 190.5q26 115 74.5 219t120.5 194t161.5 155.5t204.5 103t242 37.5q109 0 197 -27t148 -76t99.5 -116.5t56 -150t13 -174t-26.5 -190.5q-26 -115 -74.5 -219 t-120.5 -194t-161.5 -155.5t-205 -103t-243.5 -37.5zM677 108q130 0 241.5 48.5t191.5 133.5t135.5 193.5t85.5 235.5q22 97 24 182.5t-19.5 160.5t-66.5 128.5t-121.5 84.5t-178.5 31q-130 0 -241 -48.5t-191 -134t-135.5 -194t-84.5 -235.5q-22 -97 -24 -182.5t19.5 -160 t66 -128.5t120.5 -84.5t178 -30.5z" glyph-name="Oacute" horiz-adv-x="1552" unicode="Ó"/><glyph d="M710 1526l373 319l230 -319h-108l-144 201l-238 -201h-113zM664 -15q-109 0 -196.5 27t-147 76t-99.5 116.5t-56 150t-12.5 174t26.5 190.5q26 115 74.5 219t120.5 194t161.5 155.5t204.5 103t242 37.5q109 0 197 -27t148 -76t99.5 -116.5t56 -150t13 -174t-26.5 -190.5 q-26 -115 -74.5 -219t-120.5 -194t-161.5 -155.5t-205 -103t-243.5 -37.5zM677 108q130 0 241.5 48.5t191.5 133.5t135.5 193.5t85.5 235.5q22 97 24 182.5t-19.5 160.5t-66.5 128.5t-121.5 84.5t-178.5 31q-130 0 -241 -48.5t-191 -134t-135.5 -194t-84.5 -235.5 q-22 -97 -24 -182.5t19.5 -160t66 -128.5t120.5 -84.5t178 -30.5z" glyph-name="Ocircumflex" horiz-adv-x="1552" unicode="Ô"/><glyph d="M1169 1560q-40 0 -69.5 13.5t-44.5 33t-29 43t-24 43t-28 32.5t-43 13q-50 1 -90.5 -44.5t-57.5 -121.5l-77 11q26 115 88 178t145 62q44 0 74.5 -18t46.5 -44t29.5 -52t34.5 -44.5t50 -18.5q45 0 85 48t58 126l81 -10q-28 -118 -89 -184t-140 -66zM664 -15 q-109 0 -196.5 27t-147 76t-99.5 116.5t-56 150t-12.5 174t26.5 190.5q26 115 74.5 219t120.5 194t161.5 155.5t204.5 103t242 37.5q109 0 197 -27t148 -76t99.5 -116.5t56 -150t13 -174t-26.5 -190.5q-26 -115 -74.5 -219t-120.5 -194t-161.5 -155.5t-205 -103 t-243.5 -37.5zM677 108q130 0 241.5 48.5t191.5 133.5t135.5 193.5t85.5 235.5q22 97 24 182.5t-19.5 160.5t-66.5 128.5t-121.5 84.5t-178.5 31q-130 0 -241 -48.5t-191 -134t-135.5 -194t-84.5 -235.5q-22 -97 -24 -182.5t19.5 -160t66 -128.5t120.5 -84.5t178 -30.5z" glyph-name="Otilde" horiz-adv-x="1552" unicode="Õ"/><glyph d="M796 1621l47 205h113l-47 -205h-113zM1159 1621l47 205h113l-47 -205h-113zM664 -15q-109 0 -196.5 27t-147 76t-99.5 116.5t-56 150t-12.5 174t26.5 190.5q26 115 74.5 219t120.5 194t161.5 155.5t204.5 103t242 37.5q109 0 197 -27t148 -76t99.5 -116.5t56 -150 t13 -174t-26.5 -190.5q-26 -115 -74.5 -219t-120.5 -194t-161.5 -155.5t-205 -103t-243.5 -37.5zM677 108q130 0 241.5 48.5t191.5 133.5t135.5 193.5t85.5 235.5q22 97 24 182.5t-19.5 160.5t-66.5 128.5t-121.5 84.5t-178.5 31q-130 0 -241 -48.5t-191 -134t-135.5 -194 t-84.5 -235.5q-22 -97 -24 -182.5t19.5 -160t66 -128.5t120.5 -84.5t178 -30.5z" glyph-name="Odieresis" horiz-adv-x="1552" unicode="Ö"/><glyph d="M165 233l-59 72l402 326l-251 326l87 72l250 -326l400 325l60 -72l-401 -325l251 -326l-87 -72l-250 326z" glyph-name="multiply" horiz-adv-x="1102" unicode="×"/><glyph d="M1368 1287q94 -100 119.5 -258.5t-18.5 -334.5q-26 -115 -74.5 -219t-120.5 -194t-161.5 -155.5t-205 -103t-243.5 -37.5q-201 0 -327 91l-65 -76h-107l111 130q-92 100 -116 257t19 332q26 115 74.5 219t120.5 194t161.5 155.5t204.5 103t242 37.5q199 0 326 -89l64 74 h104zM317 694q-69 -299 51 -457l852 998q-95 71 -251 71q-130 0 -241 -48.5t-191 -134t-135.5 -194t-84.5 -235.5zM1331 719q69 303 -54 461l-852 -1000q95 -72 252 -72q130 0 241.5 48.5t191.5 133.5t135.5 193.5t85.5 235.5z" glyph-name="Oslash" horiz-adv-x="1552" unicode="Ø"/><glyph d="M895 1530l-190 296h120l149 -296h-79zM585 -15q-252 0 -348.5 145t-36.5 406l202 877h138l-202 -873q-49 -211 13 -316.5t250 -105.5q378 0 477 437l199 858h137l-203 -877q-60 -266 -218 -408.5t-408 -142.5z" glyph-name="Ugrave" horiz-adv-x="1396" unicode="Ù"/><glyph d="M871 1540l285 286h144l-325 -286h-104zM585 -15q-252 0 -348.5 145t-36.5 406l202 877h138l-202 -873q-49 -211 13 -316.5t250 -105.5q378 0 477 437l199 858h137l-203 -877q-60 -266 -218 -408.5t-408 -142.5z" glyph-name="Uacute" horiz-adv-x="1396" unicode="Ú"/><glyph d="M632 1526l373 319l230 -319h-108l-144 201l-238 -201h-113zM585 -15q-252 0 -348.5 145t-36.5 406l202 877h138l-202 -873q-49 -211 13 -316.5t250 -105.5q378 0 477 437l199 858h137l-203 -877q-60 -266 -218 -408.5t-408 -142.5z" glyph-name="Ucircumflex" horiz-adv-x="1396" unicode="Û"/><glyph d="M718 1621l47 205h113l-47 -205h-113zM1081 1621l47 205h113l-47 -205h-113zM585 -15q-252 0 -348.5 145t-36.5 406l202 877h138l-202 -873q-49 -211 13 -316.5t250 -105.5q378 0 477 437l199 858h137l-203 -877q-60 -266 -218 -408.5t-408 -142.5z" glyph-name="Udieresis" horiz-adv-x="1396" unicode="Ü"/><glyph d="M832 1540l285 286h144l-325 -286h-104zM474 0l125 540l-336 873h157l269 -739l616 739h176l-740 -873l-125 -540h-142z" glyph-name="Yacute" horiz-adv-x="1322" unicode="Ý"/><glyph d="M108 0l325 1413h126l-47 -204h282q210 0 302.5 -107.5t50.5 -295.5q-45 -189 -191.5 -288.5t-364.5 -99.5h-262l-96 -418h-125zM355 534h254q170 0 276.5 75.5t139.5 216.5q30 131 -40.5 202.5t-236.5 71.5h-261z" glyph-name="Thorn" horiz-adv-x="1169" unicode="Þ"/><glyph d="M612 -14q-111 0 -235 57l66 110q94 -47 180 -47q104 0 179 60t97 158q13 56 -7.5 104t-56.5 85t-72.5 73.5t-56.5 86t-7 106.5q11 47 42 82t69 57.5t76 45.5t69 58t42 82q22 93 -38.5 151.5t-176.5 58.5q-285 0 -378 -400l-209 -914h-132l213 925q58 247 193 375t317 128 q83 0 153 -26t116.5 -72t65 -113.5t0.5 -145.5q-14 -59 -48 -103t-73.5 -69t-78.5 -46t-69 -46.5t-37 -56.5q-6 -27 11 -54.5t46.5 -51.5t63 -57t59.5 -71t37 -93t-5 -123q-33 -141 -148 -227.5t-267 -86.5z" glyph-name="germandbls" horiz-adv-x="1200" unicode="ß"/><glyph d="M706 1117l-190 296h120l149 -296h-79zM429 -15q-100 0 -176 41.5t-116.5 113t-53.5 168t14 205.5q50 212 204.5 357t348.5 145q121 0 204 -65t104 -175l53 224h135l-230 -999h-123l47 223q-72 -112 -181.5 -175t-229.5 -63zM472 105q156 0 276.5 115.5t160.5 292.5 q40 165 -25 273t-215 108q-156 0 -279 -115.5t-163 -290.5q-38 -166 28 -274.5t217 -108.5z" glyph-name="agrave" horiz-adv-x="1208" unicode="à"/><glyph d="M682 1127l285 286h144l-325 -286h-104zM429 -15q-100 0 -176 41.5t-116.5 113t-53.5 168t14 205.5q50 212 204.5 357t348.5 145q121 0 204 -65t104 -175l53 224h135l-230 -999h-123l47 223q-72 -112 -181.5 -175t-229.5 -63zM472 105q156 0 276.5 115.5t160.5 292.5 q40 165 -25 273t-215 108q-156 0 -279 -115.5t-163 -290.5q-38 -166 28 -274.5t217 -108.5z" glyph-name="aacute" horiz-adv-x="1208" unicode="á"/><glyph d="M443 1113l373 319l230 -319h-108l-144 201l-238 -201h-113zM429 -15q-100 0 -176 41.5t-116.5 113t-53.5 168t14 205.5q50 212 204.5 357t348.5 145q121 0 204 -65t104 -175l53 224h135l-230 -999h-123l47 223q-72 -112 -181.5 -175t-229.5 -63zM472 105 q156 0 276.5 115.5t160.5 292.5q40 165 -25 273t-215 108q-156 0 -279 -115.5t-163 -290.5q-38 -166 28 -274.5t217 -108.5z" glyph-name="acircumflex" horiz-adv-x="1208" unicode="â"/><glyph d="M902 1147q-40 0 -69.5 13.5t-44.5 33t-29 43t-24 43t-28 32.5t-43 13q-50 1 -90.5 -44.5t-57.5 -121.5l-77 11q26 115 88 178t145 62q44 0 74.5 -18t46.5 -44t29.5 -52t34.5 -44.5t50 -18.5q45 0 85 48t58 126l81 -10q-28 -118 -89 -184t-140 -66zM429 -15 q-100 0 -176 41.5t-116.5 113t-53.5 168t14 205.5q50 212 204.5 357t348.5 145q121 0 204 -65t104 -175l53 224h135l-230 -999h-123l47 223q-72 -112 -181.5 -175t-229.5 -63zM472 105q156 0 276.5 115.5t160.5 292.5q40 165 -25 273t-215 108q-156 0 -279 -115.5 t-163 -290.5q-38 -166 28 -274.5t217 -108.5z" glyph-name="atilde" horiz-adv-x="1208" unicode="ã"/><glyph d="M529 1208l47 205h113l-47 -205h-113zM892 1208l47 205h113l-47 -205h-113zM429 -15q-100 0 -176 41.5t-116.5 113t-53.5 168t14 205.5q50 212 204.5 357t348.5 145q121 0 204 -65t104 -175l53 224h135l-230 -999h-123l47 223q-72 -112 -181.5 -175t-229.5 -63zM472 105 q156 0 276.5 115.5t160.5 292.5q40 165 -25 273t-215 108q-156 0 -279 -115.5t-163 -290.5q-38 -166 28 -274.5t217 -108.5z" glyph-name="adieresis" horiz-adv-x="1208" unicode="ä"/><glyph d="M748 1095q-85 0 -129.5 60.5t-24.5 146.5q18 75 84.5 128t144.5 53q82 0 127.5 -60t26.5 -146q-18 -76 -85 -129t-144 -53zM750 1170q54 0 98.5 38t58.5 95q10 44 -14 74t-73 30q-54 0 -99 -37.5t-56 -91.5q-11 -46 13.5 -77t71.5 -31zM429 -15q-100 0 -176 41.5 t-116.5 113t-53.5 168t14 205.5q50 212 204.5 357t348.5 145q121 0 204 -65t104 -175l53 224h135l-230 -999h-123l47 223q-72 -112 -181.5 -175t-229.5 -63zM472 105q156 0 276.5 115.5t160.5 292.5q40 165 -25 273t-215 108q-156 0 -279 -115.5t-163 -290.5 q-38 -166 28 -274.5t217 -108.5z" glyph-name="aring" horiz-adv-x="1208" unicode="å"/><glyph d="M323 -15q-165 0 -243 84t-46 226q33 145 154.5 206t323.5 61h291q12 58 13 88q44 249 -202 249q-104 0 -184 -40.5t-155 -120.5l-80 78q96 102 199 149.5t224 47.5q146 0 221 -67t77 -193q166 258 418 258q93 0 161.5 -30t105.5 -78.5t54.5 -112.5t15.5 -129t-18 -131 q-11 -44 -25 -66h-725q-33 -170 23.5 -263t203.5 -93q96 0 171.5 30.5t155.5 98.5l79 -91q-106 -86 -203.5 -121.5t-213.5 -35.5q-146 0 -229 64.5t-103 176.5q-194 -245 -464 -245zM926 562h603q13 52 13 79q6 48 -2 91.5t-32.5 82t-74 61t-119.5 22.5q-140 0 -244 -95 t-144 -241zM343 85q237 0 423 251q0 68 14 128h-277q-308 0 -350 -193q-20 -85 30 -135.5t160 -50.5z" glyph-name="ae" horiz-adv-x="1737" unicode="æ"/><glyph d="M445 105q99 0 185.5 56t138.5 150l111 -56q-72 -123 -182 -192.5t-238 -76.5l-106 -120q26 -1 59 -12q84 -15 119.5 -63t18.5 -123q-20 -82 -86.5 -133t-157.5 -51q-64 0 -110.5 38t-57.5 96l81 23q5 -36 30.5 -56.5t63.5 -20.5q60 0 103 33.5t56 91.5q13 50 -25.5 81 t-120.5 37q-43 3 -91 3l141 178q-91 11 -157 56t-99 114.5t-41 160t17 191.5q23 98 71.5 187t117.5 161t165 114.5t203 42.5q140 0 230 -73t114 -207l-133 -39q-13 94 -71.5 146t-152.5 52q-79 0 -149.5 -34t-122 -91.5t-88.5 -130t-55 -153.5q-20 -74 -15.5 -143 t27.5 -121.5t76.5 -84t130.5 -31.5z" glyph-name="ccedilla" horiz-adv-x="1013" unicode="ç"/><glyph d="M715 1117h-79l-190 296h120zM1006 758q0 -62 -30 -110.5t-86.5 -80.5t-126.5 -54t-162.5 -33.5t-182 -16t-195.5 -4.5q-8 -53 -8 -99q0 -255 258 -255q89 0 165.5 32.5t155.5 99.5l77 -91q-100 -83 -198 -122t-213 -39q-191 0 -284.5 98t-93.5 277q0 98 27 194t79 178.5 t123 146t166 100t201 36.5q157 0 242.5 -74.5t85.5 -182.5zM673 902q-150 0 -260.5 -94t-161.5 -241q55 0 90.5 1t99 3t107.5 8t100.5 14.5t94.5 23t73 34t52.5 47.5t17.5 62q0 63 -58.5 102.5t-154.5 39.5z" glyph-name="egrave" horiz-adv-x="1037" unicode="è"/><glyph d="M1041 1413l-325 -286h-104l285 286h144zM678 1015q157 0 242.5 -74.5t85.5 -182.5q0 -62 -30 -110.5t-86.5 -80.5t-126.5 -54t-162.5 -33.5t-182 -16t-195.5 -4.5q-8 -53 -8 -99q0 -255 258 -255q89 0 165.5 32.5t155.5 99.5l77 -91q-100 -83 -198 -122t-213 -39 q-191 0 -284.5 98t-93.5 277q0 98 27 194t79 178.5t123 146t166 100t201 36.5zM251 567q55 0 90.5 1t99 3t107.5 8t100.5 14.5t94.5 23t73 34t52.5 47.5t17.5 62q0 63 -58.5 102.5t-154.5 39.5q-150 0 -260.5 -94t-161.5 -241z" glyph-name="eacute" horiz-adv-x="1037" unicode="é"/><glyph d="M724 1314l-238 -201h-113l373 319l230 -319h-108zM1006 758q0 -62 -30 -110.5t-86.5 -80.5t-126.5 -54t-162.5 -33.5t-182 -16t-195.5 -4.5q-8 -53 -8 -99q0 -255 258 -255q89 0 165.5 32.5t155.5 99.5l77 -91q-100 -83 -198 -122t-213 -39q-191 0 -284.5 98t-93.5 277 q0 98 27 194t79 178.5t123 146t166 100t201 36.5q157 0 242.5 -74.5t85.5 -182.5zM673 902q-150 0 -260.5 -94t-161.5 -241q55 0 90.5 1t99 3t107.5 8t100.5 14.5t94.5 23t73 34t52.5 47.5t17.5 62q0 63 -58.5 102.5t-154.5 39.5z" glyph-name="ecircumflex" horiz-adv-x="1037" unicode="ê"/><glyph d="M619 1413l-47 -205h-113l47 205h113zM982 1413l-47 -205h-113l47 205h113zM1006 758q0 -62 -30 -110.5t-86.5 -80.5t-126.5 -54t-162.5 -33.5t-182 -16t-195.5 -4.5q-8 -53 -8 -99q0 -255 258 -255q89 0 165.5 32.5t155.5 99.5l77 -91q-100 -83 -198 -122t-213 -39 q-191 0 -284.5 98t-93.5 277q0 98 27 194t79 178.5t123 146t166 100t201 36.5q157 0 242.5 -74.5t85.5 -182.5zM673 902q-150 0 -260.5 -94t-161.5 -241q55 0 90.5 1t99 3t107.5 8t100.5 14.5t94.5 23t73 34t52.5 47.5t17.5 62q0 63 -58.5 102.5t-154.5 39.5z" glyph-name="edieresis" horiz-adv-x="1037" unicode="ë"/><glyph d="M344 1117l-190 296h120l149 -296h-79zM62 0l230 999h132l-229 -999h-133z" glyph-name="igrave" horiz-adv-x="486" unicode="ì"/><glyph d="M320 1127l285 286h144l-325 -286h-104zM62 0l230 999h132l-229 -999h-133z" glyph-name="iacute" horiz-adv-x="486" unicode="í"/><glyph d="M81 1113l373 319l230 -319h-108l-144 201l-238 -201h-113zM62 0l230 999h132l-229 -999h-133z" glyph-name="icircumflex" horiz-adv-x="486" unicode="î"/><glyph d="M167 1208l47 205h113l-47 -205h-113zM530 1208l47 205h113l-47 -205h-113zM62 0l230 999h132l-229 -999h-133z" glyph-name="idieresis" horiz-adv-x="486" unicode="ï"/><glyph d="M446 -15q-134 0 -231 65.5t-135 176t-8 239.5q28 123 115 226t208.5 161.5t249.5 58.5q96 0 157 -58l-106 303l-142 -127h-82l201 179l-79 204h143l40 -109l122 109h81l-174 -156l201 -571q44 -117 16 -247q-29 -124 -116 -228.5t-209.5 -165t-251.5 -60.5zM462 114 q144 0 271 103t161 248q32 135 -45.5 231.5t-216.5 96.5q-144 0 -271 -103.5t-161 -248.5q-32 -135 45 -231t217 -96z" glyph-name="eth" horiz-adv-x="1117" unicode="ð"/><glyph d="M864 1147q-40 0 -69.5 13.5t-44.5 33t-29 43t-24 43t-28 32.5t-43 13q-50 1 -90.5 -44.5t-57.5 -121.5l-77 11q26 115 88 178t145 62q44 0 74.5 -18t46.5 -44t29.5 -52t34.5 -44.5t50 -18.5q45 0 85 48t58 126l81 -10q-28 -118 -89 -184t-140 -66zM62 0l230 999h132 l-40 -165q67 89 158.5 135t190.5 46q170 0 235.5 -108t29.5 -279l-144 -628h-132l139 607q32 138 -12.5 211.5t-163.5 73.5q-131 0 -227 -81t-129 -225l-134 -586h-133z" glyph-name="ntilde" horiz-adv-x="1119" unicode="ñ"/><glyph d="M675 1117l-190 296h120l149 -296h-79zM461 -15q-141 0 -237.5 70.5t-130 191t-0.5 267.5q50 213 216.5 357t374.5 144q141 0 238 -70t132 -190.5t2 -265.5q-25 -104 -82 -196.5t-134.5 -160.5t-176.5 -107.5t-202 -39.5zM473 100q161 0 285.5 119t165.5 295 q39 165 -28.5 275t-223.5 110q-160 0 -283 -117t-164 -293q-39 -167 27 -278t221 -111z" glyph-name="ograve" unicode="ò"/><glyph d="M651 1127l285 286h144l-325 -286h-104zM461 -15q-141 0 -237.5 70.5t-130 191t-0.5 267.5q50 213 216.5 357t374.5 144q141 0 238 -70t132 -190.5t2 -265.5q-25 -104 -82 -196.5t-134.5 -160.5t-176.5 -107.5t-202 -39.5zM473 100q161 0 285.5 119t165.5 295 q39 165 -28.5 275t-223.5 110q-160 0 -283 -117t-164 -293q-39 -167 27 -278t221 -111z" glyph-name="oacute" unicode="ó"/><glyph d="M412 1113l373 319l230 -319h-108l-144 201l-238 -201h-113zM461 -15q-141 0 -237.5 70.5t-130 191t-0.5 267.5q50 213 216.5 357t374.5 144q141 0 238 -70t132 -190.5t2 -265.5q-25 -104 -82 -196.5t-134.5 -160.5t-176.5 -107.5t-202 -39.5zM473 100q161 0 285.5 119 t165.5 295q39 165 -28.5 275t-223.5 110q-160 0 -283 -117t-164 -293q-39 -167 27 -278t221 -111z" glyph-name="ocircumflex" unicode="ô"/><glyph d="M871 1147q-40 0 -69.5 13.5t-44.5 33t-29 43t-24 43t-28 32.5t-43 13q-50 1 -90.5 -44.5t-57.5 -121.5l-77 11q26 115 88 178t145 62q44 0 74.5 -18t46.5 -44t29.5 -52t34.5 -44.5t50 -18.5q45 0 85 48t58 126l81 -10q-28 -118 -89 -184t-140 -66zM461 -15 q-141 0 -237.5 70.5t-130 191t-0.5 267.5q50 213 216.5 357t374.5 144q141 0 238 -70t132 -190.5t2 -265.5q-25 -104 -82 -196.5t-134.5 -160.5t-176.5 -107.5t-202 -39.5zM473 100q161 0 285.5 119t165.5 295q39 165 -28.5 275t-223.5 110q-160 0 -283 -117t-164 -293 q-39 -167 27 -278t221 -111z" glyph-name="otilde" unicode="õ"/><glyph d="M498 1208l47 205h113l-47 -205h-113zM861 1208l47 205h113l-47 -205h-113zM461 -15q-141 0 -237.5 70.5t-130 191t-0.5 267.5q50 213 216.5 357t374.5 144q141 0 238 -70t132 -190.5t2 -265.5q-25 -104 -82 -196.5t-134.5 -160.5t-176.5 -107.5t-202 -39.5zM473 100 q161 0 285.5 119t165.5 295q39 165 -28.5 275t-223.5 110q-160 0 -283 -117t-164 -293q-39 -167 27 -278t221 -111z" glyph-name="odieresis" unicode="ö"/><glyph d="M506 877l50 220h143l-50 -220h-143zM144 578l25 102h726l-25 -102h-726zM337 142l50 220h143l-50 -220h-143z" glyph-name="divide" horiz-adv-x="989" unicode="÷"/><glyph d="M961 912q74 -72 99 -182t-4 -241q-25 -104 -82 -196.5t-134.5 -160.5t-176.5 -107.5t-202 -39.5q-137 0 -232 67l-45 -52h-76l76 90q-72 72 -96 182t5 242q50 213 216.5 357t374.5 144q138 0 233 -67l44 51h74zM225 489q-44 -191 43 -301l568 664q-66 47 -164 47 q-160 0 -283 -117t-164 -293zM924 514q44 190 -47 300l-567 -666q63 -48 163 -48q161 0 285.5 119t165.5 295z" glyph-name="oslash" unicode="ø"/><glyph d="M658 1117l-190 296h120l149 -296h-79zM385 -15q-170 0 -235 108t-29 279l144 627h131l-139 -607q-32 -137 12.5 -210.5t163.5 -73.5q131 0 227.5 81t130.5 225l134 585h131l-230 -999h-131l40 166q-66 -89 -158 -135t-192 -46z" glyph-name="ugrave" horiz-adv-x="1118" unicode="ù"/><glyph d="M634 1127l285 286h144l-325 -286h-104zM385 -15q-170 0 -235 108t-29 279l144 627h131l-139 -607q-32 -137 12.5 -210.5t163.5 -73.5q131 0 227.5 81t130.5 225l134 585h131l-230 -999h-131l40 166q-66 -89 -158 -135t-192 -46z" glyph-name="uacute" horiz-adv-x="1118" unicode="ú"/><glyph d="M395 1113l373 319l230 -319h-108l-144 201l-238 -201h-113zM385 -15q-170 0 -235 108t-29 279l144 627h131l-139 -607q-32 -137 12.5 -210.5t163.5 -73.5q131 0 227.5 81t130.5 225l134 585h131l-230 -999h-131l40 166q-66 -89 -158 -135t-192 -46z" glyph-name="ucircumflex" horiz-adv-x="1118" unicode="û"/><glyph d="M481 1208l47 205h113l-47 -205h-113zM844 1208l47 205h113l-47 -205h-113zM385 -15q-170 0 -235 108t-29 279l144 627h131l-139 -607q-32 -137 12.5 -210.5t163.5 -73.5q131 0 227.5 81t130.5 225l134 585h131l-230 -999h-131l40 166q-66 -89 -158 -135t-192 -46z" glyph-name="udieresis" horiz-adv-x="1118" unicode="ü"/><glyph d="M579 1127l285 286h144l-325 -286h-104zM71 -428l272 440l-197 987h144l157 -832l500 832h147l-877 -1427h-146z" glyph-name="yacute" horiz-adv-x="1015" unicode="ý"/><glyph d="M783 1015q99 0 172 -41.5t109.5 -113.5t46 -168.5t-17.5 -205.5q-25 -104 -74.5 -195t-117.5 -159t-156.5 -107.5t-186.5 -39.5q-121 0 -202.5 64.5t-103.5 174.5l-150 -638h-136l422 1827h136l-147 -631q71 110 180 171.5t226 61.5zM739 892q-157 0 -278 -114.5 t-161 -291.5q-39 -165 26.5 -273t216.5 -108q154 0 267.5 114.5t153.5 291.5q21 81 15 150.5t-32 120.5t-79.5 80.5t-128.5 29.5z" glyph-name="thorn" horiz-adv-x="1194" unicode="þ"/><glyph d="M426 1208l47 205h113l-47 -205h-113zM789 1208l47 205h113l-47 -205h-113zM71 -428l272 440l-197 987h144l157 -832l500 832h147l-877 -1427h-146z" glyph-name="ydieresis" horiz-adv-x="1015" unicode="ÿ"/><glyph d="M656 1715h548l-19 -82h-548zM803 1413h115l198 -1413h-138l-43 341h-624l-198 -341h-161zM380 460h540l-97 761z" glyph-name="Amacron" horiz-adv-x="1297" unicode="Ā"/><glyph d="M497 1220l19 82h548l-19 -82h-548zM429 -15q-100 0 -176 41.5t-116.5 113t-53.5 168t14 205.5q50 212 204.5 357t348.5 145q121 0 204 -65t104 -175l53 224h135l-230 -999h-123l47 223q-72 -112 -181.5 -175t-229.5 -63zM472 105q156 0 276.5 115.5t160.5 292.5 q40 165 -25 273t-215 108q-156 0 -279 -115.5t-163 -290.5q-38 -166 28 -274.5t217 -108.5z" glyph-name="amacron" horiz-adv-x="1208" unicode="ā"/><glyph d="M1162 1826h96q-60 -265 -350 -265q-155 0 -221 69.5t-36 195.5h92q-21 -92 25.5 -137.5t144.5 -45.5q100 0 164.5 48t84.5 135zM803 1413h115l198 -1413h-138l-43 341h-624l-198 -341h-161zM380 460h540l-97 761z" glyph-name="Abreve" horiz-adv-x="1297" unicode="Ă"/><glyph d="M768 1148q-155 0 -221 69.5t-36 195.5h92q-21 -92 25.5 -137.5t144.5 -45.5q100 0 164.5 48t84.5 135h96q-60 -265 -350 -265zM429 -15q-100 0 -176 41.5t-116.5 113t-53.5 168t14 205.5q50 212 204.5 357t348.5 145q121 0 204 -65t104 -175l53 224h135l-230 -999h-123 l47 223q-72 -112 -181.5 -175t-229.5 -63zM472 105q156 0 276.5 115.5t160.5 292.5q40 165 -25 273t-215 108q-156 0 -279 -115.5t-163 -290.5q-38 -166 28 -274.5t217 -108.5z" glyph-name="abreve" horiz-adv-x="1208" unicode="ă"/><glyph d="M1062 -285l60 -57q-104 -114 -235 -114q-97 0 -144 55t-25 147q14 62 63.5 118t103.5 88.5t105 47.5h-12l-43 341h-624l-198 -341h-161l851 1413h115l198 -1413h1q-63 -18 -127 -52t-121 -90.5t-71 -119.5q-25 -109 90 -109q93 0 174 86zM380 460h540l-97 761z" glyph-name="Aogonek" horiz-adv-x="1297" unicode="Ą"/><glyph d="M687 -371q93 0 174 86l60 -57q-103 -114 -235 -114q-97 0 -144 55t-25 147q21 92 107 162.5t169 92.5l47 222q-72 -112 -181.5 -175t-229.5 -63q-100 0 -176 41.5t-116.5 113t-53.5 168t14 205.5q50 212 204.5 357t348.5 145q121 0 204 -65t104 -175l53 224h135 l-230 -999q-63 -18 -127 -52t-121 -90.5t-71 -119.5q-25 -109 90 -109zM472 105q156 0 276.5 115.5t160.5 292.5q40 165 -25 273t-215 108q-156 0 -279 -115.5t-163 -290.5q-38 -166 28 -274.5t217 -108.5z" glyph-name="aogonek" horiz-adv-x="1208" unicode="ą"/><glyph d="M902 1540l285 286h144l-325 -286h-104zM658 -15q-125 0 -222 35.5t-157.5 100.5t-94 156.5t-32 203t28.5 240.5q36 156 106.5 285t171 224t235 147.5t291.5 52.5q423 0 494 -388l-138 -41q-15 155 -108 226t-263 71q-254 0 -423.5 -160t-233.5 -437 q-23 -101 -25.5 -187.5t19 -160.5t66.5 -126t121.5 -81.5t179.5 -29.5q169 0 300.5 76.5t234.5 234.5l116 -62q-253 -380 -667 -380z" glyph-name="Cacute" horiz-adv-x="1451" unicode="Ć"/><glyph d="M621 1127l285 286h144l-325 -286h-104zM433 -15q-106 0 -184 41.5t-117.5 112.5t-50.5 166.5t16 204.5q23 98 71.5 187t117.5 161t165 114.5t203 42.5q140 0 230 -73t114 -207l-133 -39q-13 94 -71.5 146t-152.5 52q-79 0 -149.5 -34t-122 -91.5t-88.5 -130t-55 -153.5 q-20 -74 -15.5 -143t27.5 -121.5t76.5 -84t130.5 -31.5q99 0 185.5 56t138.5 150l111 -56q-76 -130 -193 -200t-254 -70z" glyph-name="cacute" horiz-adv-x="1013" unicode="ć"/><glyph d="M919 1621l47 205h138l-47 -205h-138zM658 -15q-125 0 -222 35.5t-157.5 100.5t-94 156.5t-32 203t28.5 240.5q36 156 106.5 285t171 224t235 147.5t291.5 52.5q423 0 494 -388l-138 -41q-15 155 -108 226t-263 71q-254 0 -423.5 -160t-233.5 -437q-23 -101 -25.5 -187.5 t19 -160.5t66.5 -126t121.5 -81.5t179.5 -29.5q169 0 300.5 76.5t234.5 234.5l116 -62q-253 -380 -667 -380z" glyph-name="Cdotaccent" horiz-adv-x="1451" unicode="Ċ"/><glyph d="M638 1208l47 205h138l-47 -205h-138zM433 -15q-106 0 -184 41.5t-117.5 112.5t-50.5 166.5t16 204.5q23 98 71.5 187t117.5 161t165 114.5t203 42.5q140 0 230 -73t114 -207l-133 -39q-13 94 -71.5 146t-152.5 52q-79 0 -149.5 -34t-122 -91.5t-88.5 -130t-55 -153.5 q-20 -74 -15.5 -143t27.5 -121.5t76.5 -84t130.5 -31.5q99 0 185.5 56t138.5 150l111 -56q-76 -130 -193 -200t-254 -70z" glyph-name="cdotaccent" horiz-adv-x="1013" unicode="ċ"/><glyph d="M966 1517l-232 308h109l143 -195l239 195h112zM658 -15q-125 0 -222 35.5t-157.5 100.5t-94 156.5t-32 203t28.5 240.5q36 156 106.5 285t171 224t235 147.5t291.5 52.5q423 0 494 -388l-138 -41q-15 155 -108 226t-263 71q-254 0 -423.5 -160t-233.5 -437 q-23 -101 -25.5 -187.5t19 -160.5t66.5 -126t121.5 -81.5t179.5 -29.5q169 0 300.5 76.5t234.5 234.5l116 -62q-253 -380 -667 -380z" glyph-name="Ccaron" horiz-adv-x="1451" unicode="Č"/><glyph d="M685 1104l-232 308h109l143 -195l239 195h112zM433 -15q-106 0 -184 41.5t-117.5 112.5t-50.5 166.5t16 204.5q23 98 71.5 187t117.5 161t165 114.5t203 42.5q140 0 230 -73t114 -207l-133 -39q-13 94 -71.5 146t-152.5 52q-79 0 -149.5 -34t-122 -91.5t-88.5 -130 t-55 -153.5q-20 -74 -15.5 -143t27.5 -121.5t76.5 -84t130.5 -31.5q99 0 185.5 56t138.5 150l111 -56q-76 -130 -193 -200t-254 -70z" glyph-name="ccaron" horiz-adv-x="1013" unicode="č"/><glyph d="M981 1517l-232 308h109l143 -195l239 195h112zM108 0l325 1413h378q350 0 493.5 -189t62.5 -540q-76 -327 -303.5 -505.5t-574.5 -178.5h-381zM273 127h227q289 0 479 146.5t257 440.5q67 290 -43 431t-407 141h-244z" glyph-name="Dcaron" horiz-adv-x="1450" unicode="Ď"/><glyph d="M429 -15q-100 0 -176 41.5t-116.5 113t-53.5 168t14 205.5q50 212 204.5 357t348.5 145q121 0 204 -65t104 -175l150 638h134l-326 -1413h-123l47 223q-72 -112 -181.5 -175t-229.5 -63zM1305 993l215 420h141l-270 -420h-86zM472 105q156 0 276.5 115.5t160.5 292.5 q40 165 -25 273t-215 108q-156 0 -279 -115.5t-163 -290.5q-38 -166 28 -274.5t217 -108.5z" glyph-name="dcaron" horiz-adv-x="1304" unicode="ď"/><glyph d="M811 1413q350 0 493.5 -189t62.5 -540q-76 -327 -303.5 -505.5t-574.5 -178.5h-381l152 661h-153l22 92h152l152 660h378zM1236 714q67 290 -43 431t-407 141h-244l-124 -533h345l-21 -92h-345l-124 -534h227q289 0 479 146.5t257 440.5z" glyph-name="Dcroat" horiz-adv-x="1450" unicode="Đ"/><glyph d="M1344 1265l-21 -92h-136l-271 -1173h-123l47 223q-72 -112 -181.5 -175t-229.5 -63q-100 0 -176 41.5t-116.5 113t-53.5 168t14 205.5q50 212 204.5 357t348.5 145q121 0 204 -65t104 -175l94 398h-364l22 92h363l35 148h134l-34 -148h136zM909 513q40 165 -25 273 t-215 108q-156 0 -279 -115.5t-163 -290.5q-38 -166 28 -274.5t217 -108.5q156 0 276.5 115.5t160.5 292.5z" glyph-name="dcroat" horiz-adv-x="1209" unicode="đ"/><glyph d="M674 1633l19 82h548l-19 -82h-548zM108 0l325 1413h924l-29 -127h-786l-120 -513h707l-28 -127h-708l-119 -516h787l-30 -130h-923z" glyph-name="Emacron" horiz-adv-x="1268" unicode="Ē"/><glyph d="M994 1302l-19 -82h-548l19 82h548zM1006 758q0 -62 -30 -110.5t-86.5 -80.5t-126.5 -54t-162.5 -33.5t-182 -16t-195.5 -4.5q-8 -53 -8 -99q0 -255 258 -255q89 0 165.5 32.5t155.5 99.5l77 -91q-100 -83 -198 -122t-213 -39q-191 0 -284.5 98t-93.5 277q0 98 27 194 t79 178.5t123 146t166 100t201 36.5q157 0 242.5 -74.5t85.5 -182.5zM673 902q-150 0 -260.5 -94t-161.5 -241q55 0 90.5 1t99 3t107.5 8t100.5 14.5t94.5 23t73 34t52.5 47.5t17.5 62q0 63 -58.5 102.5t-154.5 39.5z" glyph-name="emacron" horiz-adv-x="1037" unicode="ē"/><glyph d="M876 1621l47 205h138l-47 -205h-138zM108 0l325 1413h924l-29 -127h-786l-120 -513h707l-28 -127h-708l-119 -516h787l-30 -130h-923z" glyph-name="Edotaccent" horiz-adv-x="1268" unicode="Ė"/><glyph d="M814 1413l-47 -205h-138l47 205h138zM1006 758q0 -62 -30 -110.5t-86.5 -80.5t-126.5 -54t-162.5 -33.5t-182 -16t-195.5 -4.5q-8 -53 -8 -99q0 -255 258 -255q89 0 165.5 32.5t155.5 99.5l77 -91q-100 -83 -198 -122t-213 -39q-191 0 -284.5 98t-93.5 277q0 98 27 194 t79 178.5t123 146t166 100t201 36.5q157 0 242.5 -74.5t85.5 -182.5zM673 902q-150 0 -260.5 -94t-161.5 -241q55 0 90.5 1t99 3t107.5 8t100.5 14.5t94.5 23t73 34t52.5 47.5t17.5 62q0 63 -58.5 102.5t-154.5 39.5z" glyph-name="edotaccent" horiz-adv-x="1037" unicode="ė"/><glyph d="M1328 1286h-786l-120 -513h707l-28 -127h-708l-119 -516h787l-30 -130q-63 -18 -127 -52t-121 -90.5t-71 -119.5q-25 -109 90 -109q93 0 174 86l60 -57q-104 -114 -235 -114q-97 0 -144 55t-25 147q14 62 63.5 118t103.5 88.5t105 47.5h-796l325 1413h924z" glyph-name="Eogonek" horiz-adv-x="1268" unicode="Ę"/><glyph d="M1006 758q0 -62 -30 -110.5t-86.5 -80.5t-126.5 -54t-162.5 -33.5t-182 -16t-195.5 -4.5q-8 -53 -8 -99q0 -255 258 -255q89 0 165.5 32.5t155.5 99.5l77 -91q-137 -113 -273 -146q-77 -39 -133.5 -94.5t-71.5 -121.5q-25 -109 90 -109q93 0 174 86l60 -57 q-103 -114 -235 -114q-97 0 -144 55t-25 147q24 109 147 193q-191 0 -284.5 98t-93.5 277q0 98 27 194t79 178.5t123 146t166 100t201 36.5q157 0 242.5 -74.5t85.5 -182.5zM673 902q-150 0 -260.5 -94t-161.5 -241q55 0 90.5 1t99 3t107.5 8t100.5 14.5t94.5 23t73 34 t52.5 47.5t17.5 62q0 63 -58.5 102.5t-154.5 39.5z" glyph-name="eogonek" horiz-adv-x="1037" unicode="ę"/><glyph d="M923 1517l-232 308h109l143 -195l239 195h112zM108 0l325 1413h924l-29 -127h-786l-120 -513h707l-28 -127h-708l-119 -516h787l-30 -130h-923z" glyph-name="Ecaron" horiz-adv-x="1268" unicode="Ě"/><glyph d="M1047 1412l-371 -308l-232 308h109l143 -195l239 195h112zM678 1015q157 0 242.5 -74.5t85.5 -182.5q0 -62 -30 -110.5t-86.5 -80.5t-126.5 -54t-162.5 -33.5t-182 -16t-195.5 -4.5q-8 -53 -8 -99q0 -255 258 -255q89 0 165.5 32.5t155.5 99.5l77 -91q-100 -83 -198 -122 t-213 -39q-191 0 -284.5 98t-93.5 277q0 98 27 194t79 178.5t123 146t166 100t201 36.5zM251 567q55 0 90.5 1t99 3t107.5 8t100.5 14.5t94.5 23t73 34t52.5 47.5t17.5 62q0 63 -58.5 102.5t-154.5 39.5q-150 0 -260.5 -94t-161.5 -241z" glyph-name="ecaron" horiz-adv-x="1037" unicode="ě"/><glyph d="M1033 1561q-155 0 -221 69.5t-36 195.5h92q-21 -92 25.5 -137.5t144.5 -45.5q100 0 164.5 48t84.5 135h96q-60 -265 -350 -265zM658 -15q-125 0 -222 35.5t-157.5 100.5t-94 156.5t-32 203t28.5 240.5q36 156 106.5 285t170.5 224t235 147.5t292 52.5q422 0 493 -388 l-131 -41q-20 158 -113.5 233t-261.5 75q-252 0 -423.5 -165t-235.5 -443q-23 -101 -25.5 -188t18.5 -162t66 -128.5t121.5 -83.5t179.5 -30q186 0 328 94t221 271l35 141h-344l27 113h480l-168 -728h-110l48 249q-204 -264 -532 -264z" glyph-name="Gbreve" horiz-adv-x="1535" unicode="Ğ"/><glyph d="M768 1148q-155 0 -221 69.5t-36 195.5h92q-21 -92 25.5 -137.5t144.5 -45.5q100 0 164.5 48t84.5 135h96q-60 -265 -350 -265zM360 -465q-157 0 -253.5 69t-133.5 187l113 65q21 -93 94.5 -148.5t193.5 -55.5q155 0 264.5 102t151.5 282l45 191q-72 -109 -179.5 -170.5 t-225.5 -61.5q-100 0 -176 41.5t-116.5 112.5t-53.5 166t14 203q49 208 203 352.5t348 144.5q121 0 204 -65t104 -175l54 224h133l-225 -973q-52 -229 -199.5 -360t-359.5 -131zM474 118q156 0 276 113t160 287q38 162 -27 269t-215 107q-156 0 -279 -114.5t-162 -285.5 q-38 -162 29 -269t218 -107z" glyph-name="gbreve" horiz-adv-x="1207" unicode="ğ"/><glyph d="M964 1621l47 205h138l-47 -205h-138zM658 -15q-125 0 -222 35.5t-157.5 100.5t-94 156.5t-32 203t28.5 240.5q36 156 106.5 285t170.5 224t235 147.5t292 52.5q422 0 493 -388l-131 -41q-20 158 -113.5 233t-261.5 75q-252 0 -423.5 -165t-235.5 -443 q-23 -101 -25.5 -188t18.5 -162t66 -128.5t121.5 -83.5t179.5 -30q186 0 328 94t221 271l35 141h-344l27 113h480l-168 -728h-110l48 249q-204 -264 -532 -264z" glyph-name="Gdotaccent" horiz-adv-x="1535" unicode="Ġ"/><glyph d="M699 1208l47 205h138l-47 -205h-138zM360 -465q-157 0 -253.5 69t-133.5 187l113 65q21 -93 94.5 -148.5t193.5 -55.5q155 0 264.5 102t151.5 282l45 191q-72 -109 -179.5 -170.5t-225.5 -61.5q-100 0 -176 41.5t-116.5 112.5t-53.5 166t14 203q49 208 203 352.5 t348 144.5q121 0 204 -65t104 -175l54 224h133l-225 -973q-52 -229 -199.5 -360t-359.5 -131zM474 118q156 0 276 113t160 287q38 162 -27 269t-215 107q-156 0 -279 -114.5t-162 -285.5q-38 -162 29 -269t218 -107z" glyph-name="gdotaccent" horiz-adv-x="1207" unicode="ġ"/><glyph d="M658 -15q-125 0 -222 35.5t-157.5 100.5t-94 156.5t-32 203t28.5 240.5q36 156 106.5 285t170.5 224t235 147.5t292 52.5q422 0 493 -388l-131 -41q-20 158 -113.5 233t-261.5 75q-252 0 -423.5 -165t-235.5 -443q-23 -101 -25.5 -188t18.5 -162t66 -128.5t121.5 -83.5 t179.5 -30q186 0 328 94t221 271l35 141h-344l27 113h480l-168 -728h-110l48 249q-204 -264 -532 -264zM325 -447l260 334h142l-314 -334h-88z" glyph-name="Gcommaaccent" horiz-adv-x="1535" unicode="Ģ"/><glyph d="M969 1424l-260 -299h-142l314 299h88zM360 -465q-157 0 -253.5 69t-133.5 187l113 65q21 -93 94.5 -148.5t193.5 -55.5q155 0 264.5 102t151.5 282l45 191q-72 -109 -179.5 -170.5t-225.5 -61.5q-100 0 -176 41.5t-116.5 112.5t-53.5 166t14 203q49 208 203 352.5 t348 144.5q121 0 204 -65t104 -175l54 224h133l-225 -973q-52 -229 -199.5 -360t-359.5 -131zM474 118q156 0 276 113t160 287q38 162 -27 269t-215 107q-156 0 -279 -114.5t-162 -285.5q-38 -162 29 -269t218 -107z" glyph-name="gcommaaccent" unicode="ģ"/><glyph d="M1524 1156l-19 -82h-134l-248 -1074h-137l149 647h-742l-148 -647h-137l247 1074h-136l19 82h136l59 257h137l-60 -257h742l60 257h137l-59 -257h134zM1163 774l70 300h-742l-69 -300h741z" glyph-name="Hbar" horiz-adv-x="1460" unicode="Ħ"/><glyph d="M732 1015q87 0 148.5 -30t91.5 -82.5t38.5 -123t-11.5 -151.5l-144 -628h-134l139 607q68 287 -171 287q-133 0 -231.5 -91.5t-132.5 -237.5l-129 -565h-135l263 1142h-182l22 92h182l41 179h134l-42 -179h319l-21 -92h-320l-72 -308q67 89 157.5 135t189.5 46z" glyph-name="hbar" horiz-adv-x="1120" unicode="ħ"/><glyph d="M684 1560q-40 0 -69.5 13.5t-44.5 33t-29 43t-24 43t-28 32.5t-43 13q-50 1 -90.5 -44.5t-57.5 -121.5l-77 11q26 115 88 178t145 62q44 0 74.5 -18t46.5 -44t29.5 -52t34.5 -44.5t50 -18.5q45 0 85 48t58 126l81 -10q-28 -118 -89 -184t-140 -66zM108 0l325 1413h137 l-325 -1413h-137z" glyph-name="Itilde" horiz-adv-x="582" unicode="Ĩ"/><glyph d="M540 1147q-40 0 -69.5 13.5t-44.5 33t-29 43t-24 43t-28 32.5t-43 13q-50 1 -90.5 -44.5t-57.5 -121.5l-77 11q26 115 88 178t145 62q44 0 74.5 -18t46.5 -44t29.5 -52t34.5 -44.5t50 -18.5q45 0 85 48t58 126l81 -10q-28 -118 -89 -184t-140 -66zM62 0l230 999h132 l-229 -999h-133z" glyph-name="itilde" horiz-adv-x="486" unicode="ĩ"/><glyph d="M279 1633l19 82h548l-19 -82h-548zM108 0l325 1413h137l-325 -1413h-137z" glyph-name="Imacron" horiz-adv-x="582" unicode="Ī"/><glyph d="M135 1220l19 82h548l-19 -82h-548zM62 0l230 999h132l-229 -999h-133z" glyph-name="imacron" horiz-adv-x="486" unicode="ī"/><glyph d="M16 -371q93 0 174 86l60 -57q-104 -114 -235 -114q-97 0 -144 55t-25 147q14 62 63.5 118t103.5 88.5t105 47.5h-10l325 1413h137l-325 -1413q-63 -18 -127 -52t-121 -90.5t-71 -119.5q-25 -109 90 -109z" glyph-name="Iogonek" horiz-adv-x="582" unicode="Į"/><glyph d="M384 1413h138l-47 -205h-138zM195 0q-63 -18 -127 -52t-121 -90.5t-71 -119.5q-25 -109 90 -109q93 0 174 86l60 -57q-104 -114 -235 -114q-97 0 -144 55t-25 147q14 62 63.5 118t103.5 88.5t105 47.5h-6l230 999h132z" glyph-name="iogonek" horiz-adv-x="486" unicode="į"/><glyph d="M481 1621l47 205h138l-47 -205h-138zM108 0l325 1413h137l-325 -1413h-137z" glyph-name="Idotaccent" horiz-adv-x="582" unicode="İ"/><glyph d="M62 0l230 999h132l-229 -999h-133z" glyph-name="dotlessi" horiz-adv-x="486" unicode="ı"/><glyph d="M108 0l325 1413h137l-325 -1413h-137zM996 -15q-198 0 -292.5 121.5t-65.5 311.5l135 4q-22 -142 38.5 -225.5t199.5 -83.5q164 0 262.5 101.5t145.5 303.5l178 768h-575l29 127h712l-209 -903q-58 -252 -196.5 -388.5t-361.5 -136.5z" glyph-name="IJ" horiz-adv-x="1748" unicode="Ĳ"/><glyph d="M1564 1413l-671 -556l370 -857h-153l-321 770l-452 -375l-92 -395h-137l325 1413h137l-196 -849l1003 849h187zM248 -447l260 334h142l-314 -334h-88z" glyph-name="Kcommaaccent" horiz-adv-x="1443" unicode="Ķ"/><glyph d="M1111 999l-449 -372l274 -627h-133l-236 548l-304 -252l-69 -296h-133l326 1413h132l-223 -957l640 543h175zM142 -447l260 334h142l-314 -334h-88z" glyph-name="kcommaaccent" horiz-adv-x="1081" unicode="ķ"/><glyph d="M1112 999l-449 -372l274 -627h-142l-233 543l-298 -247l-69 -296h-133l230 999h132l-127 -543l640 543h175z" glyph-name="kgreenlandic" horiz-adv-x="1082" unicode="ĸ"/><glyph d="M491 1540l285 286h144l-325 -286h-104zM108 0l325 1413h137l-296 -1283h647l-30 -130h-783z" glyph-name="Lacute" horiz-adv-x="1068" unicode="Ĺ"/><glyph d="M435 1540l285 286h144l-325 -286h-104zM242 -15q-104 0 -134.5 59t-4.5 172l277 1197h132l-271 -1173q-6 -27 -9 -44t-1.5 -36.5t9.5 -30.5t26 -18t46 -7q30 0 87 11l-17 -115q-78 -15 -140 -15z" glyph-name="lacute" horiz-adv-x="544" unicode="ĺ"/><glyph d="M108 0l325 1413h137l-296 -1283h647l-30 -130h-783zM153 -447l260 334h142l-314 -334h-88z" glyph-name="Lcommaaccent" horiz-adv-x="1068" unicode="Ļ"/><glyph d="M242 -15q-104 0 -134.5 59t-4.5 172l277 1197h132l-271 -1173q-6 -27 -9 -44t-1.5 -36.5t9.5 -30.5t26 -18t46 -7q30 0 87 11l-17 -115q-78 -15 -140 -15zM-99 -447l260 334h142l-314 -334h-88z" glyph-name="lcommaaccent" horiz-adv-x="544" unicode="ļ"/><glyph d="M108 0l325 1413h137l-296 -1283h647l-30 -130h-783zM774 993l215 420h142l-271 -420h-86z" glyph-name="Lcaron" horiz-adv-x="1074" unicode="Ľ"/><glyph d="M242 -15q-104 0 -134.5 59t-4.5 172l277 1197h132l-271 -1173q-6 -27 -9 -44t-1.5 -36.5t9.5 -30.5t26 -18t46 -7q30 0 87 11l-17 -115q-78 -15 -140 -15zM594 993l215 420h141l-270 -420h-86z" glyph-name="lcaron" horiz-adv-x="608" unicode="ľ"/><glyph d="M274 130h647l-30 -130h-783l95 414l-212 -191l33 151l214 193l195 846h137l-160 -692l382 343l-32 -150l-385 -346z" glyph-name="Lslash" horiz-adv-x="1068" unicode="Ł"/><glyph d="M340 635l-91 -395q-6 -27 -8.5 -44t-1.5 -36.5t9.5 -30.5t26.5 -18t46 -7t87 11l-18 -115q-78 -15 -140 -15q-104 0 -134 59t-4 172l65 282l-112 -94l27 131l116 97l180 781h132l-149 -646l208 174l-27 -128z" glyph-name="lslash" horiz-adv-x="561" unicode="ł"/><glyph d="M1315 1826l-325 -286h-104l285 286h144zM1281 1413h132l-326 -1413h-140l-430 1205l-277 -1205h-132l325 1413h144l428 -1194z" glyph-name="Nacute" horiz-adv-x="1424" unicode="Ń"/><glyph d="M644 1127l285 286h144l-325 -286h-104zM62 0l230 999h132l-40 -165q67 89 158.5 135t190.5 46q170 0 235.5 -108t29.5 -279l-144 -628h-132l139 607q32 138 -12.5 211.5t-163.5 73.5q-131 0 -227 -81t-129 -225l-134 -586h-133z" glyph-name="nacute" horiz-adv-x="1119" unicode="ń"/><glyph d="M1281 1413h132l-326 -1413h-140l-430 1205l-277 -1205h-132l325 1413h144l428 -1194zM250 -447l260 334h142l-314 -334h-88z" glyph-name="Ncommaaccent" horiz-adv-x="1424" unicode="Ņ"/><glyph d="M62 0l230 999h132l-40 -165q67 89 158.5 135t190.5 46q170 0 235.5 -108t29.5 -279l-144 -628h-132l139 607q32 138 -12.5 211.5t-163.5 73.5q-131 0 -227 -81t-129 -225l-134 -586h-133zM105 -447l260 334h142l-314 -334h-88z" glyph-name="ncommaaccent" horiz-adv-x="1119" unicode="ņ"/><glyph d="M1321 1825l-371 -308l-232 308h109l143 -195l239 195h112zM1281 1413h132l-326 -1413h-140l-430 1205l-277 -1205h-132l325 1413h144l428 -1194z" glyph-name="Ncaron" horiz-adv-x="1424" unicode="Ň"/><glyph d="M708 1104l-232 308h109l143 -195l239 195h112zM62 0l230 999h132l-40 -165q67 89 158.5 135t190.5 46q170 0 235.5 -108t29.5 -279l-144 -628h-132l139 607q32 138 -12.5 211.5t-163.5 73.5q-131 0 -227 -81t-129 -225l-134 -586h-133z" glyph-name="ncaron" horiz-adv-x="1119" unicode="ň"/><glyph d="M1281 1412h131l-335 -1446q-70 -310 -345 -310q-64 0 -144 22l17 89q51 -18 101 -18q98 0 162 50t82 131q6 28 1 52l-435 1220l-276 -1202h-132l325 1412h144l427 -1198z" glyph-name="Eng" horiz-adv-x="1424" unicode="Ŋ"/><glyph d="M481 -433q-65 0 -144 30l48 97q56 -18 103 -18q158 0 201 188l171 743q32 138 -12.5 211.5t-163.5 73.5q-131 0 -227.5 -81t-129.5 -225l-134 -586h-132l230 999h131l-40 -165q67 89 159 135t191 46q170 0 235 -108t29 -279l-176 -760q-32 -141 -119 -221t-220 -80z" glyph-name="eng" horiz-adv-x="1152" unicode="ŋ"/><glyph d="M764 1633l19 82h548l-19 -82h-548zM664 -15q-109 0 -196.5 27t-147 76t-99.5 116.5t-56 150t-12.5 174t26.5 190.5q26 115 74.5 219t120.5 194t161.5 155.5t204.5 103t242 37.5q109 0 197 -27t148 -76t99.5 -116.5t56 -150t13 -174t-26.5 -190.5q-26 -115 -74.5 -219 t-120.5 -194t-161.5 -155.5t-205 -103t-243.5 -37.5zM677 108q130 0 241.5 48.5t191.5 133.5t135.5 193.5t85.5 235.5q22 97 24 182.5t-19.5 160.5t-66.5 128.5t-121.5 84.5t-178.5 31q-130 0 -241 -48.5t-191 -134t-135.5 -194t-84.5 -235.5q-22 -97 -24 -182.5t19.5 -160 t66 -128.5t120.5 -84.5t178 -30.5z" glyph-name="Omacron" horiz-adv-x="1552" unicode="Ō"/><glyph d="M466 1220l19 82h548l-19 -82h-548zM461 -15q-141 0 -237.5 70.5t-130 191t-0.5 267.5q50 213 216.5 357t374.5 144q141 0 238 -70t132 -190.5t2 -265.5q-25 -104 -82 -196.5t-134.5 -160.5t-176.5 -107.5t-202 -39.5zM473 100q161 0 285.5 119t165.5 295 q39 165 -28.5 275t-223.5 110q-160 0 -283 -117t-164 -293q-39 -167 27 -278t221 -111z" glyph-name="omacron" unicode="ō"/><glyph d="M770 1520l289 306h124l-310 -306h-103zM1112 1520l289 306h144l-330 -306h-103zM664 -15q-109 0 -196.5 27t-147 76t-99.5 116.5t-56 150t-12.5 174t26.5 190.5q26 115 74.5 219t120.5 194t161.5 155.5t204.5 103t242 37.5q109 0 197 -27t148 -76t99.5 -116.5t56 -150 t13 -174t-26.5 -190.5q-26 -115 -74.5 -219t-120.5 -194t-161.5 -155.5t-205 -103t-243.5 -37.5zM677 108q130 0 241.5 48.5t191.5 133.5t135.5 193.5t85.5 235.5q22 97 24 182.5t-19.5 160.5t-66.5 128.5t-121.5 84.5t-178.5 31q-130 0 -241 -48.5t-191 -134t-135.5 -194 t-84.5 -235.5q-22 -97 -24 -182.5t19.5 -160t66 -128.5t120.5 -84.5t178 -30.5z" glyph-name="Ohungarumlaut" horiz-adv-x="1552" unicode="Ő"/><glyph d="M472 1107l289 306h124l-310 -306h-103zM814 1107l289 306h144l-330 -306h-103zM461 -15q-141 0 -237.5 70.5t-130 191t-0.5 267.5q50 213 216.5 357t374.5 144q141 0 238 -70t132 -190.5t2 -265.5q-25 -104 -82 -196.5t-134.5 -160.5t-176.5 -107.5t-202 -39.5zM473 100 q161 0 285.5 119t165.5 295q39 165 -28.5 275t-223.5 110q-160 0 -283 -117t-164 -293q-39 -167 27 -278t221 -111z" glyph-name="ohungarumlaut" unicode="ő"/><glyph d="M2395 1286h-786l-120 -513h707l-28 -127h-708l-119 -516h787l-30 -130h-923l52 227q-227 -242 -563 -242q-109 0 -196.5 27t-147 76t-99.5 116.5t-56 150t-12.5 174t26.5 190.5q26 115 74.5 219t120.5 194t161.5 155.5t204.5 103t242 37.5q176 0 291.5 -67t171.5 -188 l55 240h924zM677 108q130 0 241.5 48.5t191.5 133.5t135.5 193.5t85.5 235.5q22 97 24 182.5t-19.5 160.5t-66.5 128.5t-121.5 84.5t-178.5 31q-130 0 -241 -48.5t-191 -134t-135.5 -194t-84.5 -235.5q-22 -97 -24 -182.5t19.5 -160t66 -128.5t120.5 -84.5t178 -30.5z" glyph-name="OE" horiz-adv-x="2335" unicode="Œ"/><glyph d="M1833 758q0 -62 -30 -110.5t-86.5 -80.5t-126.5 -54t-162.5 -33.5t-182 -16t-195.5 -4.5q-8 -53 -8 -99q0 -255 258 -255q89 0 165.5 32.5t155.5 99.5l77 -91q-100 -83 -198 -122t-213 -39q-150 0 -240 61.5t-121 176.5q-88 -110 -209.5 -174t-255.5 -64 q-141 0 -237.5 70.5t-130 191t-0.5 267.5q50 213 216.5 357t374.5 144q134 0 228 -63.5t134 -173.5q81 110 199 173.5t260 63.5q157 0 242.5 -74.5t85.5 -182.5zM1500 902q-150 0 -260.5 -94t-161.5 -241q55 0 90.5 1t99 3t107.5 8t100.5 14.5t94.5 23t73 34t52.5 47.5 t17.5 62q0 63 -58.5 102.5t-154.5 39.5zM473 100q161 0 285.5 119t165.5 295q39 165 -28.5 275t-223.5 110q-160 0 -283 -117t-164 -293q-39 -167 27 -278t221 -111z" glyph-name="oe" horiz-adv-x="1865" unicode="œ"/><glyph d="M796 1540l285 286h144l-325 -286h-104zM106 -1l327 1414h392q210 0 317 -108t63 -298q-32 -137 -131.5 -229t-247.5 -125l236 -654h-142l-219 642q-45 -3 -105 -3h-205l-147 -639h-138zM419 752h264q156 2 258 74t132 203q29 124 -41.5 192t-226.5 68h-262z" glyph-name="Racute" horiz-adv-x="1257" unicode="Ŕ"/><glyph d="M516 1127l285 286h144l-325 -286h-104zM62 0l230 999h129l-47 -204q60 108 158 164t194 56q90 0 150 -52l-80 -103q-41 26 -104 26q-53 0 -109 -22t-110.5 -66t-99 -120t-67.5 -173l-116 -505h-128z" glyph-name="racute" horiz-adv-x="787" unicode="ŕ"/><glyph d="M106 -1l327 1414h392q210 0 317 -108t63 -298q-32 -137 -131.5 -229t-247.5 -125l236 -654h-142l-219 642q-45 -3 -105 -3h-205l-147 -639h-138zM419 752h264q156 2 258 74t132 203q29 124 -41.5 192t-226.5 68h-262zM233 -447l260 334h142l-314 -334h-88z" glyph-name="Rcommaaccent" horiz-adv-x="1257" unicode="Ŗ"/><glyph d="M62 0l230 999h129l-47 -204q60 108 158 164t194 56q90 0 150 -52l-80 -103q-41 26 -104 26q-53 0 -109 -22t-110.5 -66t-99 -120t-67.5 -173l-116 -505h-128zM-208 -447l260 334h142l-314 -334h-88z" glyph-name="rcommaaccent" horiz-adv-x="787" unicode="ŗ"/><glyph d="M860 1517l-232 308h109l143 -195l239 195h112zM106 -1l327 1414h392q210 0 317 -108t63 -298q-32 -137 -131.5 -229t-247.5 -125l236 -654h-142l-219 642q-45 -3 -105 -3h-205l-147 -639h-138zM419 752h264q156 2 258 74t132 203q29 124 -41.5 192t-226.5 68h-262z" glyph-name="Rcaron" horiz-adv-x="1257" unicode="Ř"/><glyph d="M580 1104l-232 308h109l143 -195l239 195h112zM62 0l230 999h129l-47 -204q60 108 158 164t194 56q90 0 150 -52l-80 -103q-41 26 -104 26q-53 0 -109 -22t-110.5 -66t-99 -120t-67.5 -173l-116 -505h-128z" glyph-name="rcaron" horiz-adv-x="787" unicode="ř"/><glyph d="M740 1540l285 286h144l-325 -286h-104zM487 -13q-126 0 -223 45t-151 135.5t-46 212.5l140 23q-5 -140 72 -216.5t222 -76.5q158 0 271 93t113 226q0 53 -25 96t-66 71t-93.5 55t-107 48.5t-107 51.5t-93.5 63t-66 85t-25 116q0 114 64.5 209.5t172.5 149.5t232 54 q285 0 367 -232l-125 -60q-57 170 -256 170q-129 0 -223.5 -83.5t-94.5 -195.5q0 -54 32.5 -96.5t84 -71t114 -54.5t125 -56.5t114 -68t84 -96.5t32.5 -135q0 -129 -75 -236t-198 -166.5t-265 -59.5z" glyph-name="Sacute" unicode="Ś"/><glyph d="M528 1127l285 286h144l-325 -286h-104zM368 -15q-149 0 -243.5 74.5t-109.5 193.5l114 37q11 -88 72.5 -141t171.5 -53q120 0 202.5 63.5t82.5 162.5q0 46 -27 77t-69.5 47.5t-94.5 29t-104 26.5t-94.5 35t-69.5 61t-27 97q0 140 116.5 230t284.5 90q121 0 200.5 -56.5 t110.5 -157.5l-111 -45q-46 152 -214 152q-109 0 -183 -52t-74 -134q0 -40 27 -68t70 -44t95 -29t104 -30t95 -41t70 -67.5t27 -103.5q0 -102 -57.5 -184t-153.5 -126t-211 -44z" glyph-name="sacute" horiz-adv-x="928" unicode="ś"/><glyph d="M439 1027q0 -54 32.5 -96.5t84 -71t114 -54.5t125 -56.5t114 -68t84 -96.5t32.5 -135q0 -129 -75 -236t-198 -166.5t-265 -59.5h-3l-107 -121q26 -1 59 -12q84 -15 119.5 -63t18.5 -123q-20 -82 -86.5 -133t-157.5 -51q-64 0 -110.5 38t-57.5 96l81 23q5 -36 30.5 -56.5 t63.5 -20.5q60 0 103 33.5t56 91.5q13 50 -25.5 81t-120.5 37q-43 3 -91 3l145 183q-160 22 -253.5 123.5t-83.5 263.5l140 23q-5 -140 72 -216.5t222 -76.5q158 0 271 93t113 226q0 53 -25 96t-66 71t-93.5 55t-107 48.5t-107 51.5t-93.5 63t-66 85t-25 116 q0 114 64.5 209.5t172.5 149.5t232 54q285 0 367 -232l-125 -60q-57 170 -256 170q-129 0 -223.5 -83.5t-94.5 -195.5z" glyph-name="Scedilla" unicode="Ş"/><glyph d="M302 722q0 -40 27 -68t70 -44t95 -29t104 -30t95 -41t70 -67.5t27 -103.5q0 -144 -107.5 -241t-268.5 -111l-107 -121q26 -1 59 -12q84 -15 119.5 -63t18.5 -123q-20 -82 -86.5 -133t-157.5 -51q-64 0 -110.5 38t-57.5 96l81 23q5 -36 30.5 -56.5t63.5 -20.5 q60 0 103 33.5t56 91.5q13 50 -25.5 81t-120.5 37q-43 3 -91 3l140 176q-133 10 -216.5 83t-97.5 184l114 37q11 -88 72.5 -141t171.5 -53q120 0 202.5 63.5t82.5 162.5q0 46 -27 77t-69.5 47.5t-94.5 29t-104 26.5t-94.5 35t-69.5 61t-27 97q0 140 116.5 230t284.5 90 q121 0 200.5 -56.5t110.5 -157.5l-111 -45q-46 152 -214 152q-109 0 -183 -52t-74 -134z" glyph-name="scedilla" horiz-adv-x="928" unicode="ş"/><glyph d="M804 1517l-232 308h109l143 -195l239 195h112zM487 -13q-126 0 -223 45t-151 135.5t-46 212.5l140 23q-5 -140 72 -216.5t222 -76.5q158 0 271 93t113 226q0 53 -25 96t-66 71t-93.5 55t-107 48.5t-107 51.5t-93.5 63t-66 85t-25 116q0 114 64.5 209.5t172.5 149.5 t232 54q285 0 367 -232l-125 -60q-57 170 -256 170q-129 0 -223.5 -83.5t-94.5 -195.5q0 -54 32.5 -96.5t84 -71t114 -54.5t125 -56.5t114 -68t84 -96.5t32.5 -135q0 -129 -75 -236t-198 -166.5t-265 -59.5z" glyph-name="Scaron" unicode="Š"/><glyph d="M592 1104l-232 308h109l143 -195l239 195h112zM368 -15q-149 0 -243.5 74.5t-109.5 193.5l114 37q11 -88 72.5 -141t171.5 -53q120 0 202.5 63.5t82.5 162.5q0 46 -27 77t-69.5 47.5t-94.5 29t-104 26.5t-94.5 35t-69.5 61t-27 97q0 140 116.5 230t284.5 90 q121 0 200.5 -56.5t110.5 -157.5l-111 -45q-46 152 -214 152q-109 0 -183 -52t-74 -134q0 -40 27 -68t70 -44t95 -29t104 -30t95 -41t70 -67.5t27 -103.5q0 -102 -57.5 -184t-153.5 -126t-211 -44z" glyph-name="scaron" horiz-adv-x="928" unicode="š"/><glyph d="M440 0l297 1289h-493l28 124h1124l-29 -124h-493l-296 -1289h-138zM389 -516q-64 0 -110.5 38t-57.5 96l81 23q5 -36 30.5 -56.5t63.5 -20.5q60 0 103 33.5t56 91.5q13 50 -25.5 81t-120.5 37q-44 3 -91 3l150 189h86l-118 -133q26 -1 59 -12q84 -15 119.5 -63t18.5 -123 q-20 -82 -86.5 -133t-157.5 -51z" glyph-name="Tcommaaccent" horiz-adv-x="1246" unicode="Ţ"/><glyph d="M429 887l-137 -591q-23 -103 4.5 -148.5t105.5 -45.5q60 0 126 26l-19 -125q-47 -14 -114 -17l-106 -120q26 -1 59 -12q84 -15 119.5 -63t18.5 -123q-20 -82 -86.5 -133t-157.5 -51q-64 0 -110.5 38t-57.5 96l81 23q5 -36 30.5 -56.5t63.5 -20.5q60 0 103 33.5t56 91.5 q13 50 -25.5 81t-120.5 37q-43 3 -91 3l142 179q-105 16 -144 92t-10 204l138 602h-166l26 112h168l65 289l154 97l-89 -386h279l-25 -112h-280z" glyph-name="tcommaaccent" horiz-adv-x="697" unicode="ţ"/><glyph d="M864 1517l-232 308h109l143 -195l239 195h112zM440 0l297 1289h-493l28 124h1124l-29 -124h-493l-296 -1289h-138z" glyph-name="Tcaron" horiz-adv-x="1246" unicode="Ť"/><glyph d="M695 1162l215 420h142l-271 -420h-86zM369 -15q-135 0 -189 78t-21 222l138 602h-166l26 112h168l65 289l154 97l-89 -386h279l-25 -112h-280l-137 -591q-23 -103 4.5 -148.5t105.5 -45.5q60 0 126 26l-19 -125q-59 -18 -140 -18z" glyph-name="tcaron" horiz-adv-x="698" unicode="ť"/><glyph d="M1367 1289h-493l-123 -536h250l-21 -92h-250l-152 -661h-138l152 661h-247l22 92h246l124 536h-493l28 124h1124z" glyph-name="Tbar" horiz-adv-x="1246" unicode="Ŧ"/><glyph d="M709 887h-280l-79 -341h317l-21 -92h-317l-37 -158q-23 -103 4.5 -148.5t105.5 -45.5q60 0 126 26l-19 -125q-59 -18 -140 -18q-135 0 -189 78t-21 222l39 169h-187l22 92h186l78 341h-166l26 112h168l65 289l154 97l-89 -386h279z" glyph-name="tbar" horiz-adv-x="697" unicode="ŧ"/><glyph d="M1091 1560q-40 0 -69.5 13.5t-44.5 33t-29 43t-24 43t-28 32.5t-43 13q-50 1 -90.5 -44.5t-57.5 -121.5l-77 11q26 115 88 178t145 62q44 0 74.5 -18t46.5 -44t29.5 -52t34.5 -44.5t50 -18.5q45 0 85 48t58 126l81 -10q-28 -118 -89 -184t-140 -66zM585 -15 q-252 0 -348.5 145t-36.5 406l202 877h138l-202 -873q-49 -211 13 -316.5t250 -105.5q378 0 477 437l199 858h137l-203 -877q-60 -266 -218 -408.5t-408 -142.5z" glyph-name="Utilde" horiz-adv-x="1396" unicode="Ũ"/><glyph d="M854 1147q-40 0 -69.5 13.5t-44.5 33t-29 43t-24 43t-28 32.5t-43 13q-50 1 -90.5 -44.5t-57.5 -121.5l-77 11q26 115 88 178t145 62q44 0 74.5 -18t46.5 -44t29.5 -52t34.5 -44.5t50 -18.5q45 0 85 48t58 126l81 -10q-28 -118 -89 -184t-140 -66zM385 -15 q-170 0 -235 108t-29 279l144 627h131l-139 -607q-32 -137 12.5 -210.5t163.5 -73.5q131 0 227.5 81t130.5 225l134 585h131l-230 -999h-131l40 166q-66 -89 -158 -135t-192 -46z" glyph-name="utilde" horiz-adv-x="1118" unicode="ũ"/><glyph d="M686 1633l19 82h548l-19 -82h-548zM585 -15q-252 0 -348.5 145t-36.5 406l202 877h138l-202 -873q-49 -211 13 -316.5t250 -105.5q378 0 477 437l199 858h137l-203 -877q-60 -266 -218 -408.5t-408 -142.5z" glyph-name="Umacron" horiz-adv-x="1396" unicode="Ū"/><glyph d="M449 1220l19 82h548l-19 -82h-548zM385 -15q-170 0 -235 108t-29 279l144 627h131l-139 -607q-32 -137 12.5 -210.5t163.5 -73.5q131 0 227.5 81t130.5 225l134 585h131l-230 -999h-131l40 166q-66 -89 -158 -135t-192 -46z" glyph-name="umacron" horiz-adv-x="1118" unicode="ū"/><glyph d="M937 1508q-85 0 -129.5 60.5t-24.5 146.5q18 75 84.5 128t144.5 53q82 0 127.5 -60t26.5 -146q-18 -76 -85 -129t-144 -53zM939 1583q54 0 98.5 38t58.5 95q10 44 -14 74t-73 30q-54 0 -99 -37.5t-56 -91.5q-11 -46 13.5 -77t71.5 -31zM585 -15q-252 0 -348.5 145 t-36.5 406l202 877h138l-202 -873q-49 -211 13 -316.5t250 -105.5q378 0 477 437l199 858h137l-203 -877q-60 -266 -218 -408.5t-408 -142.5z" glyph-name="Uring" horiz-adv-x="1396" unicode="Ů"/><glyph d="M700 1095q-85 0 -129.5 60.5t-24.5 146.5q18 75 84.5 128t144.5 53q82 0 127.5 -60t26.5 -146q-18 -76 -85 -129t-144 -53zM702 1170q54 0 98.5 38t58.5 95q10 44 -14 74t-73 30q-54 0 -99 -37.5t-56 -91.5q-11 -46 13.5 -77t71.5 -31zM385 -15q-170 0 -235 108t-29 279 l144 627h131l-139 -607q-32 -137 12.5 -210.5t163.5 -73.5q131 0 227.5 81t130.5 225l134 585h131l-230 -999h-131l40 166q-66 -89 -158 -135t-192 -46z" glyph-name="uring" horiz-adv-x="1118" unicode="ů"/><glyph d="M692 1520l289 306h124l-310 -306h-103zM1034 1520l289 306h144l-330 -306h-103zM585 -15q-252 0 -348.5 145t-36.5 406l202 877h138l-202 -873q-49 -211 13 -316.5t250 -105.5q378 0 477 437l199 858h137l-203 -877q-60 -266 -218 -408.5t-408 -142.5z" glyph-name="Uhungarumlaut" horiz-adv-x="1396" unicode="Ű"/><glyph d="M455 1107l289 306h124l-310 -306h-103zM797 1107l289 306h144l-330 -306h-103zM385 -15q-170 0 -235 108t-29 279l144 627h131l-139 -607q-32 -137 12.5 -210.5t163.5 -73.5q131 0 227.5 81t130.5 225l134 585h131l-230 -999h-131l40 166q-66 -89 -158 -135t-192 -46z " glyph-name="uhungarumlaut" horiz-adv-x="1118" unicode="ű"/><glyph d="M1277 1413h137l-203 -877q-50 -222 -168.5 -358.5t-301.5 -176.5q-82 -40 -143 -97.5t-77 -126.5q-25 -109 90 -109q93 0 174 86l60 -57q-103 -114 -235 -114q-97 0 -144 55t-25 147q26 114 158 200h-14q-252 0 -348.5 145t-36.5 406l202 877h138l-202 -873 q-49 -211 13 -316.5t250 -105.5q378 0 477 437z" glyph-name="Uogonek" horiz-adv-x="1396" unicode="Ų"/><glyph d="M597 -371q93 0 174 86l60 -57q-103 -114 -235 -114q-97 0 -144 55t-25 147q14 62 63.5 118t103.5 88.5t105 47.5h-4l40 166q-66 -89 -158 -135t-192 -46q-170 0 -235 108t-29 279l144 627h131l-139 -607q-32 -137 12.5 -210.5t163.5 -73.5q131 0 227.5 81t130.5 225 l134 585h131l-230 -999q-63 -18 -127 -52t-121 -90.5t-71 -119.5q-25 -109 90 -109z" glyph-name="uogonek" horiz-adv-x="1118" unicode="ų"/><glyph d="M922 1511l373 319l230 -319h-108l-144 201l-238 -201h-113zM369 -1l-82 1414h141l61 -1217l633 1141h112l104 -1141l625 1217h145l-733 -1414h-139l-104 1122l-624 -1122h-139z" glyph-name="Wcircumflex" horiz-adv-x="1973" unicode="Ŵ"/><glyph d="M580 1113l373 319l230 -319h-108l-144 201l-238 -201h-113zM226 -2l-60 1001h140l33 -800l454 800h121l81 -799l407 799h142l-521 -999h-126l-83 817l-463 -819h-125z" glyph-name="wcircumflex" horiz-adv-x="1481" unicode="ŵ"/><glyph d="M593 1526l373 319l230 -319h-108l-144 201l-238 -201h-113zM474 0l125 540l-336 873h157l269 -739l616 739h176l-740 -873l-125 -540h-142z" glyph-name="Ycircumflex" horiz-adv-x="1322" unicode="Ŷ"/><glyph d="M340 1113l373 319l230 -319h-108l-144 201l-238 -201h-113zM71 -428l272 440l-197 987h144l157 -832l500 832h147l-877 -1427h-146z" glyph-name="ycircumflex" horiz-adv-x="1015" unicode="ŷ"/><glyph d="M679 1621l47 205h113l-47 -205h-113zM1042 1621l47 205h113l-47 -205h-113zM474 0l125 540l-336 873h157l269 -739l616 739h176l-740 -873l-125 -540h-142z" glyph-name="Ydieresis" horiz-adv-x="1322" unicode="Ÿ"/><glyph d="M1253 1826l-325 -286h-104l285 286h144zM1413 1413l-23 -107l-1194 -1181h917l-29 -125h-1110l22 104l1196 1182h-874l29 127h1066z" glyph-name="Zacute" horiz-adv-x="1302" unicode="Ź"/><glyph d="M988 1413l-325 -286h-104l285 286h144zM1013 999l-23 -106l-833 -780h647l-26 -113h-826l20 97l851 790h-634l26 112h798z" glyph-name="zacute" horiz-adv-x="976" unicode="ź"/><glyph d="M1026 1826l-47 -205h-138l47 205h138zM1413 1413l-23 -107l-1194 -1181h917l-29 -125h-1110l22 104l1196 1182h-874l29 127h1066z" glyph-name="Zdotaccent" horiz-adv-x="1302" unicode="Ż"/><glyph d="M761 1413l-47 -205h-138l47 205h138zM1013 999l-23 -106l-833 -780h647l-26 -113h-826l20 97l851 790h-634l26 112h798z" glyph-name="zdotaccent" horiz-adv-x="976" unicode="ż"/><glyph d="M1259 1825l-371 -308l-232 308h109l143 -195l239 195h112zM1413 1413l-23 -107l-1194 -1181h917l-29 -125h-1110l22 104l1196 1182h-874l29 127h1066z" glyph-name="Zcaron" horiz-adv-x="1302" unicode="Ž"/><glyph d="M994 1412l-371 -308l-232 308h109l143 -195l239 195h112zM1013 999l-23 -106l-833 -780h647l-26 -113h-826l20 97l851 790h-634l26 112h798z" glyph-name="zcaron" horiz-adv-x="976" unicode="ž"/><glyph d="M-90 -455l15 103q158 0 243.5 70.5t122.5 233.5l219 946h-173l22 101h173l32 135q32 137 122.5 219.5t204.5 82.5q115 0 204 -91l-86 -79q-54 57 -129 57q-72 0 -128.5 -53t-77.5 -147l-29 -124h273l-23 -101h-272l-224 -967q-47 -200 -167.5 -293t-321.5 -93z" glyph-name="florin" horiz-adv-x="1020" unicode="ƒ"/><glyph d="M215 397l220 1016h129l-249 -1016h-100zM102 0l50 219h143l-49 -219h-144z" glyph-name="uni01C3" horiz-adv-x="578" unicode="ǃ"/><glyph d="M2689 1825l-371 -308l-232 308h109l143 -195l239 195h112zM811 1413q350 0 493.5 -189t62.5 -540q-76 -327 -303.5 -505.5t-574.5 -178.5h-381l325 1413h378zM2843 1413l-23 -107l-1194 -1181h917l-29 -125h-1110l22 104l1196 1182h-874l29 127h1066zM1236 714 q67 290 -43 431t-407 141h-244l-269 -1159h227q289 0 479 146.5t257 440.5z" glyph-name="uni01C4" horiz-adv-x="2732" unicode="Ǆ"/><glyph d="M811 1413q350 0 493.5 -189t62.5 -540q-76 -327 -303.5 -505.5t-574.5 -178.5h-381l325 1413h378zM2448 1412l-371 -308l-232 308h109l143 -195l239 195h112zM1236 714q67 290 -43 431t-407 141h-244l-269 -1159h227q289 0 479 146.5t257 440.5zM2467 999l-23 -106 l-833 -780h647l-26 -113h-826l20 97l851 790h-634l26 112h798z" glyph-name="uni01C5" horiz-adv-x="2430" unicode="ǅ"/><glyph d="M1108 1413h134l-326 -1413h-123l47 223q-72 -112 -181.5 -175t-229.5 -63q-100 0 -176 41.5t-116.5 113t-53.5 168t14 205.5q50 212 204.5 357t348.5 145q121 0 204 -65t104 -175zM2203 1412l-371 -308l-232 308h109l143 -195l239 195h112zM2222 999l-23 -106l-833 -780 h647l-26 -113h-826l20 97l851 790h-634l26 112h798zM909 513q40 165 -25 273t-215 108q-156 0 -279 -115.5t-163 -290.5q-38 -166 28 -274.5t217 -108.5q156 0 276.5 115.5t160.5 292.5z" glyph-name="uni01C6" horiz-adv-x="2185" unicode="ǆ"/><glyph d="M108 0l325 1413h137l-296 -1283h647l-30 -130h-783zM1521 -15q-198 0 -292.5 121.5t-65.5 311.5l135 4q-22 -142 38.5 -225.5t199.5 -83.5q164 0 262.5 101.5t145.5 303.5l178 768h-575l29 127h712l-209 -903q-58 -252 -196.5 -388.5t-361.5 -136.5z" glyph-name="uni01C7" horiz-adv-x="2273" unicode="Ǉ"/><glyph d="M108 0l325 1413h137l-296 -1283h647l-30 -130h-783zM1413 1212l46 201h139l-46 -201h-139zM912 -433q-79 0 -159 34l55 111q56 -24 105 -24q151 0 193 182l260 1129h133l-260 -1130q-34 -144 -116 -223t-211 -79z" glyph-name="uni01C8" horiz-adv-x="1559" unicode="ǈ"/><glyph d="M242 -15q-104 0 -134.5 59t-4.5 172l277 1197h132l-271 -1173q-6 -27 -9 -44t-1.5 -36.5t9.5 -30.5t26 -18t46 -7q30 0 87 11l-17 -115q-78 -15 -140 -15zM883 1212l46 201h139l-46 -201h-139zM382 -433q-79 0 -159 34l55 111q56 -24 105 -24q151 0 193 182l260 1129h133 l-260 -1130q-34 -144 -116 -223t-211 -79z" glyph-name="uni01C9" horiz-adv-x="1029" unicode="ǉ"/><glyph d="M1005 219l276 1194h132l-326 -1413h-140l-430 1205l-277 -1205h-132l325 1413h144zM1893 1413h712l-209 -903q-58 -252 -196.5 -388.5t-361.5 -136.5q-198 0 -292.5 121.5t-65.5 311.5l135 4q-22 -142 38.5 -225.5t199.5 -83.5q164 0 262.5 101.5t145.5 303.5l178 768 h-575z" glyph-name="uni01CA" horiz-adv-x="2590" unicode="Ǌ"/><glyph d="M1281 1413h132l-326 -1413h-140l-430 1205l-277 -1205h-132l325 1413h144l428 -1194zM1809 1413h139l-46 -201h-139zM1456 -130l260 1129h133l-260 -1130q-34 -144 -116 -223t-211 -79q-79 0 -159 34l55 111q56 -24 105 -24q151 0 193 182z" glyph-name="uni01CB" horiz-adv-x="1909" unicode="ǋ"/><glyph d="M1458 1212l46 201h139l-46 -201h-139zM62 0l230 999h132l-40 -165q67 89 158.5 135t190.5 46q170 0 235.5 -108t29.5 -279l-144 -628h-132l139 607q32 138 -12.5 211.5t-163.5 73.5q-131 0 -227 -81t-129 -225l-134 -586h-133zM957 -433q-79 0 -159 34l55 111 q55 -24 105 -24q151 0 193 182l260 1129h133l-260 -1130q-34 -144 -116 -223t-211 -79z" glyph-name="uni01CC" horiz-adv-x="1604" unicode="ǌ"/><glyph d="M1257 1825l-371 -308l-232 308h109l143 -195l239 195h112zM803 1413h115l198 -1413h-138l-43 341h-624l-198 -341h-161zM380 460h540l-97 761z" glyph-name="uni01CD" horiz-adv-x="1297" unicode="Ǎ"/><glyph d="M746 1104l-232 308h109l143 -195l239 195h112zM429 -15q-100 0 -176 41.5t-116.5 113t-53.5 168t14 205.5q50 212 204.5 357t348.5 145q121 0 204 -65t104 -175l53 224h135l-230 -999h-123l47 223q-72 -112 -181.5 -175t-229.5 -63zM472 105q156 0 276.5 115.5 t160.5 292.5q40 165 -25 273t-215 108q-156 0 -279 -115.5t-163 -290.5q-38 -166 28 -274.5t217 -108.5z" glyph-name="uni01CE" horiz-adv-x="1208" unicode="ǎ"/><glyph d="M528 1517l-232 308h109l143 -195l239 195h112zM108 0l325 1413h137l-325 -1413h-137z" glyph-name="uni01CF" horiz-adv-x="582" unicode="Ǐ"/><glyph d="M384 1104l-232 308h109l143 -195l239 195h112zM62 0l230 999h132l-229 -999h-133z" glyph-name="uni01D0" horiz-adv-x="486" unicode="ǐ"/><glyph d="M1013 1517l-232 308h109l143 -195l239 195h112zM664 -15q-109 0 -196.5 27t-147 76t-99.5 116.5t-56 150t-12.5 174t26.5 190.5q26 115 74.5 219t120.5 194t161.5 155.5t204.5 103t242 37.5q109 0 197 -27t148 -76t99.5 -116.5t56 -150t13 -174t-26.5 -190.5 q-26 -115 -74.5 -219t-120.5 -194t-161.5 -155.5t-205 -103t-243.5 -37.5zM677 108q130 0 241.5 48.5t191.5 133.5t135.5 193.5t85.5 235.5q22 97 24 182.5t-19.5 160.5t-66.5 128.5t-121.5 84.5t-178.5 31q-130 0 -241 -48.5t-191 -134t-135.5 -194t-84.5 -235.5 q-22 -97 -24 -182.5t19.5 -160t66 -128.5t120.5 -84.5t178 -30.5z" glyph-name="uni01D1" horiz-adv-x="1552" unicode="Ǒ"/><glyph d="M715 1104l-232 308h109l143 -195l239 195h112zM461 -15q-141 0 -237.5 70.5t-130 191t-0.5 267.5q50 213 216.5 357t374.5 144q141 0 238 -70t132 -190.5t2 -265.5q-25 -104 -82 -196.5t-134.5 -160.5t-176.5 -107.5t-202 -39.5zM473 100q161 0 285.5 119t165.5 295 q39 165 -28.5 275t-223.5 110q-160 0 -283 -117t-164 -293q-39 -167 27 -278t221 -111z" glyph-name="uni01D2" unicode="ǒ"/><glyph d="M935 1517l-232 308h109l143 -195l239 195h112zM585 -15q-252 0 -348.5 145t-36.5 406l202 877h138l-202 -873q-49 -211 13 -316.5t250 -105.5q378 0 477 437l199 858h137l-203 -877q-60 -266 -218 -408.5t-408 -142.5z" glyph-name="uni01D3" horiz-adv-x="1396" unicode="Ǔ"/><glyph d="M698 1104l-232 308h109l143 -195l239 195h112zM385 -15q-170 0 -235 108t-29 279l144 627h131l-139 -607q-32 -137 12.5 -210.5t163.5 -73.5q131 0 227.5 81t130.5 225l134 585h131l-230 -999h-131l40 166q-66 -89 -158 -135t-192 -46z" glyph-name="uni01D4" horiz-adv-x="1118" unicode="ǔ"/><glyph d="M783 2047l19 82h548l-19 -82h-548zM718 1621l47 205h113l-47 -205h-113zM1081 1621l47 205h113l-47 -205h-113zM585 -15q-252 0 -348.5 145t-36.5 406l202 877h138l-202 -873q-49 -211 13 -316.5t250 -105.5q378 0 477 437l199 858h137l-203 -877q-60 -266 -218 -408.5 t-408 -142.5z" glyph-name="uni01D5" horiz-adv-x="1396" unicode="Ǖ"/><glyph d="M546 1634l19 82h548l-19 -82h-548zM481 1208l47 205h113l-47 -205h-113zM844 1208l47 205h113l-47 -205h-113zM385 -15q-170 0 -235 108t-29 279l144 627h131l-139 -607q-32 -137 12.5 -210.5t163.5 -73.5q131 0 227.5 81t130.5 225l134 585h131l-230 -999h-131l40 166 q-66 -89 -158 -135t-192 -46z" glyph-name="uni01D6" horiz-adv-x="1118" unicode="ǖ"/><glyph d="M968 1954l285 286h144l-325 -286h-104zM718 1621l47 205h113l-47 -205h-113zM1081 1621l47 205h113l-47 -205h-113zM585 -15q-252 0 -348.5 145t-36.5 406l202 877h138l-202 -873q-49 -211 13 -316.5t250 -105.5q378 0 477 437l199 858h137l-203 -877 q-60 -266 -218 -408.5t-408 -142.5z" glyph-name="uni01D7" horiz-adv-x="1396" unicode="Ǘ"/><glyph d="M731 1541l285 286h144l-325 -286h-104zM481 1208l47 205h113l-47 -205h-113zM844 1208l47 205h113l-47 -205h-113zM385 -15q-170 0 -235 108t-29 279l144 627h131l-139 -607q-32 -137 12.5 -210.5t163.5 -73.5q131 0 227.5 81t130.5 225l134 585h131l-230 -999h-131 l40 166q-66 -89 -158 -135t-192 -46z" glyph-name="uni01D8" horiz-adv-x="1118" unicode="ǘ"/><glyph d="M1032 1931l-232 308h109l143 -195l239 195h112zM718 1621l47 205h113l-47 -205h-113zM1081 1621l47 205h113l-47 -205h-113zM585 -15q-252 0 -348.5 145t-36.5 406l202 877h138l-202 -873q-49 -211 13 -316.5t250 -105.5q378 0 477 437l199 858h137l-203 -877 q-60 -266 -218 -408.5t-408 -142.5z" glyph-name="uni01D9" horiz-adv-x="1396" unicode="Ǚ"/><glyph d="M795 1518l-232 308h109l143 -195l239 195h112zM481 1208l47 205h113l-47 -205h-113zM844 1208l47 205h113l-47 -205h-113zM385 -15q-170 0 -235 108t-29 279l144 627h131l-139 -607q-32 -137 12.5 -210.5t163.5 -73.5q131 0 227.5 81t130.5 225l134 585h131l-230 -999 h-131l40 166q-66 -89 -158 -135t-192 -46z" glyph-name="uni01DA" horiz-adv-x="1118" unicode="ǚ"/><glyph d="M992 1944l-190 296h120l149 -296h-79zM718 1621l47 205h113l-47 -205h-113zM1081 1621l47 205h113l-47 -205h-113zM585 -15q-252 0 -348.5 145t-36.5 406l202 877h138l-202 -873q-49 -211 13 -316.5t250 -105.5q378 0 477 437l199 858h137l-203 -877 q-60 -266 -218 -408.5t-408 -142.5z" glyph-name="uni01DB" horiz-adv-x="1396" unicode="Ǜ"/><glyph d="M755 1531l-190 296h120l149 -296h-79zM481 1208l47 205h113l-47 -205h-113zM844 1208l47 205h113l-47 -205h-113zM385 -15q-170 0 -235 108t-29 279l144 627h131l-139 -607q-32 -137 12.5 -210.5t163.5 -73.5q131 0 227.5 81t130.5 225l134 585h131l-230 -999h-131 l40 166q-66 -89 -158 -135t-192 -46z" glyph-name="uni01DC" horiz-adv-x="1118" unicode="ǜ"/><glyph d="M577 1014q191 0 284.5 -98t93.5 -277q0 -98 -27 -194t-79 -178.5t-123 -146t-166 -100t-201 -36.5q-157 0 -242.5 74.5t-85.5 182.5q0 62 30 110.5t86.5 80.5t126.5 54t162.5 33.5t182 16t195.5 4.5q8 53 8 99q0 255 -258 255q-89 0 -165.5 -32.5t-155.5 -99.5l-77 91 q100 83 198 122t213 39zM364 97q150 0 260.5 94t161.5 241q-55 0 -90.5 -1t-99 -3t-107.5 -8t-100.5 -14.5t-94.5 -23t-73 -34t-52.5 -47.5t-17.5 -62q0 -63 58.5 -102.5t154.5 -39.5z" glyph-name="uni01DD" horiz-adv-x="1037" unicode="ǝ"/><glyph d="M684 1015q141 0 238 -70t132 -190.5t2 -265.5q-42 -178 -171 -313t-298 -176h6q-63 -18 -127 -52t-121 -90.5t-71 -119.5q-25 -109 90 -109q93 0 174 86l60 -57q-104 -114 -235 -114q-97 0 -144 55t-25 147q18 80 86 143.5t147 96.5q-98 7 -173 50.5t-117 114t-56 164 t12 199.5q50 213 216.5 357t374.5 144zM924 514q39 165 -28.5 275t-223.5 110q-160 0 -283 -117t-164 -293q-39 -167 27 -278t221 -111q161 0 285.5 119t165.5 295z" glyph-name="uni01EB" unicode="ǫ"/><glyph d="M811 1413q350 0 493.5 -189t62.5 -540q-76 -327 -303.5 -505.5t-574.5 -178.5h-381l325 1413h378zM2843 1413l-23 -107l-1194 -1181h917l-29 -125h-1110l22 104l1196 1182h-874l29 127h1066zM1236 714q67 290 -43 431t-407 141h-244l-269 -1159h227q289 0 479 146.5 t257 440.5z" glyph-name="uni01F1" horiz-adv-x="2732" unicode="Ǳ"/><glyph d="M811 1413q350 0 493.5 -189t62.5 -540q-76 -327 -303.5 -505.5t-574.5 -178.5h-381l325 1413h378zM1236 714q67 290 -43 431t-407 141h-244l-269 -1159h227q289 0 479 146.5t257 440.5zM2467 999l-23 -106l-833 -780h647l-26 -113h-826l20 97l851 790h-634l26 112h798z " glyph-name="uni01F2" horiz-adv-x="2430" unicode="ǲ"/><glyph d="M1108 1413h134l-326 -1413h-123l47 223q-72 -112 -181.5 -175t-229.5 -63q-100 0 -176 41.5t-116.5 113t-53.5 168t14 205.5q50 212 204.5 357t348.5 145q121 0 204 -65t104 -175zM2222 999l-23 -106l-833 -780h647l-26 -113h-826l20 97l851 790h-634l26 112h798z M909 513q40 165 -25 273t-215 108q-156 0 -279 -115.5t-163 -290.5q-38 -166 28 -274.5t217 -108.5q156 0 276.5 115.5t160.5 292.5z" glyph-name="uni01F3" horiz-adv-x="2185" unicode="ǳ"/><glyph d="M1378 1826l-325 -286h-104l285 286h144zM1368 1287q94 -100 119.5 -258.5t-18.5 -334.5q-26 -115 -74.5 -219t-120.5 -194t-161.5 -155.5t-205 -103t-243.5 -37.5q-201 0 -327 91l-65 -76h-107l111 130q-92 100 -116 257t19 332q26 115 74.5 219t120.5 194t161.5 155.5 t204.5 103t242 37.5q199 0 326 -89l64 74h104zM317 694q-69 -299 51 -457l852 998q-95 71 -251 71q-130 0 -241 -48.5t-191 -134t-135.5 -194t-84.5 -235.5zM1331 719q69 303 -54 461l-852 -1000q95 -72 252 -72q130 0 241.5 48.5t191.5 133.5t135.5 193.5t85.5 235.5z" glyph-name="Oslashacute" horiz-adv-x="1552" unicode="Ǿ"/><glyph d="M1080 1413l-325 -286h-104l285 286h144zM961 912q74 -72 99 -182t-4 -241q-25 -104 -82 -196.5t-134.5 -160.5t-176.5 -107.5t-202 -39.5q-137 0 -232 67l-45 -52h-76l76 90q-72 72 -96 182t5 242q50 213 216.5 357t374.5 144q138 0 233 -67l44 51h74zM225 489 q-44 -191 43 -301l568 664q-66 47 -164 47q-160 0 -283 -117t-164 -293zM924 514q44 190 -47 300l-567 -666q63 -48 163 -48q161 0 285.5 119t165.5 295z" glyph-name="oslashacute" unicode="ǿ"/><glyph d="M487 -13q-126 0 -223 45t-151 135.5t-46 212.5l140 23q-5 -140 72 -216.5t222 -76.5q158 0 271 93t113 226q0 53 -25 96t-66 71t-93.5 55t-107 48.5t-107 51.5t-93.5 63t-66 85t-25 116q0 114 64.5 209.5t172.5 149.5t232 54q285 0 367 -232l-125 -60q-57 170 -256 170 q-129 0 -223.5 -83.5t-94.5 -195.5q0 -54 32.5 -96.5t84 -71t114 -54.5t125 -56.5t114 -68t84 -96.5t32.5 -135q0 -129 -75 -236t-198 -166.5t-265 -59.5zM105 -447l260 334h142l-314 -334h-88z" glyph-name="Scommaaccent" unicode="Ș"/><glyph d="M368 -15q-149 0 -243.5 74.5t-109.5 193.5l114 37q11 -88 72.5 -141t171.5 -53q120 0 202.5 63.5t82.5 162.5q0 46 -27 77t-69.5 47.5t-94.5 29t-104 26.5t-94.5 35t-69.5 61t-27 97q0 140 116.5 230t284.5 90q121 0 200.5 -56.5t110.5 -157.5l-111 -45q-46 152 -214 152 q-109 0 -183 -52t-74 -134q0 -40 27 -68t70 -44t95 -29t104 -30t95 -41t70 -67.5t27 -103.5q0 -102 -57.5 -184t-153.5 -126t-211 -44zM35 -447l260 334h142l-314 -334h-88z" glyph-name="scommaaccent" horiz-adv-x="928" unicode="ș"/><glyph d="M440 0l297 1289h-493l28 124h1124l-29 -124h-493l-296 -1289h-138zM164 -447l260 334h142l-314 -334h-88z" glyph-name="uni021A" horiz-adv-x="1246" unicode="Ț"/><glyph d="M369 -15q-135 0 -189 78t-21 222l138 602h-166l26 112h168l65 289l154 97l-89 -386h279l-25 -112h-280l-137 -591q-23 -103 4.5 -148.5t105.5 -45.5q60 0 126 26l-19 -125q-59 -18 -140 -18zM17 -447l260 334h142l-314 -334h-88z" glyph-name="uni021B" horiz-adv-x="697" unicode="ț"/><glyph d="M-178 -433q-66 0 -145 30l51 107q51 -17 104 -17q160 0 204 187l259 1125h127l-261 -1131q-32 -140 -119 -220.5t-220 -80.5z" glyph-name="uni0237" horiz-adv-x="484" unicode="ȷ"/><glyph d="M779 1014q100 0 176 -41.5t116.5 -113t53.5 -167.5t-14 -206q-50 -212 -204.5 -357t-348.5 -145q-121 0 -204 65t-104 175l-53 -224h-135l230 999h123l-47 -223q72 112 181.5 175t229.5 63zM736 894q-156 0 -276.5 -115.5t-160.5 -292.5q-40 -165 25 -273t215 -108 q156 0 279 115.5t163 290.5q38 166 -28 274.5t-217 108.5z" glyph-name="uni0250" horiz-adv-x="1208" unicode="ɐ"/><glyph d="M348 -15q-138 0 -224 72.5t-102 202.5l132 46q8 -93 68 -147t156 -54q79 0 148 32t119 87.5t84.5 125t52.5 148.5q21 76 16 147.5t-28 126.5t-77.5 88.5t-131.5 33.5q-96 0 -181.5 -54t-141.5 -149l-115 49q86 134 207 204.5t258 70.5q88 0 155.5 -28.5t107.5 -78 t62.5 -115.5t20.5 -140.5t-18 -154.5q-24 -107 -76 -200t-124.5 -162.5t-167.5 -110t-200 -40.5z" glyph-name="uni0254" horiz-adv-x="1007" unicode="ɔ"/><glyph d="M373 -15q-119 0 -201 42t-146 128l105 72q46 -65 106.5 -93.5t145.5 -28.5q144 0 241.5 65t149.5 178q27 54 42 121q-72 -4 -150 -1.5t-152.5 7.5t-141.5 21.5t-117.5 40.5t-80.5 65.5t-30 95.5q0 132 121.5 224.5t299.5 92.5q194 0 296.5 -102.5t102.5 -267.5 q0 -177 -77 -336q-78 -158 -208 -241t-306 -83zM828 569q7 53 -2 112q-12 105 -80 163t-190 58q-69 0 -133.5 -25t-106.5 -71t-42 -99q0 -33 22.5 -57.5t61.5 -39.5t92 -25t114.5 -13t129 -4.5t134.5 1.5z" glyph-name="uni0258" horiz-adv-x="1040" unicode="ɘ"/><glyph d="M577 1014q191 0 284.5 -98t93.5 -277q0 -98 -27 -194t-79 -178.5t-123 -146t-166 -100t-201 -36.5q-157 0 -242.5 74.5t-85.5 182.5q0 62 30 110.5t86.5 80.5t126.5 54t162.5 33.5t182 16t195.5 4.5q8 53 8 99q0 255 -258 255q-89 0 -165.5 -32.5t-155.5 -99.5l-77 91 q100 83 198 122t213 39zM364 97q150 0 260.5 94t161.5 241q-55 0 -90.5 -1t-99 -3t-107.5 -8t-100.5 -14.5t-94.5 -23t-73 -34t-52.5 -47.5t-17.5 -62q0 -63 58.5 -102.5t154.5 -39.5z" glyph-name="uni0259" horiz-adv-x="1037" unicode="ə"/><glyph d="M360 -465q-157 0 -253.5 69t-133.5 187l113 65q21 -93 94.5 -148.5t193.5 -55.5q155 0 264.5 102t151.5 282l45 191q-72 -109 -179.5 -170.5t-225.5 -61.5q-100 0 -176 41.5t-116.5 112.5t-53.5 166t14 203q49 208 203 352.5t348 144.5q121 0 204 -65t104 -175l54 224 h133l-225 -973q-52 -229 -199.5 -360t-359.5 -131zM474 118q156 0 276 113t160 287q38 162 -27 269t-215 107q-156 0 -279 -114.5t-162 -285.5q-38 -162 29 -269t218 -107z" glyph-name="uni0261" horiz-adv-x="1207" unicode="ɡ"/><glyph d="M194 1113l373 319l230 -319h-108l-144 201l-238 -201h-113z" glyph-name="circumflex" horiz-adv-x="710" unicode="ˆ"/><glyph d="M500 1104l-232 308h109l143 -195l239 195h112z" glyph-name="caron" horiz-adv-x="715" unicode="ˇ"/><glyph d="M325 594l-147 405l446 24zM-48 -24l299 430l146 -406z" glyph-name="uni02D0" horiz-adv-x="575" unicode="ː"/><glyph d="M252 245l-146 406l446 24z" glyph-name="uni02D1" horiz-adv-x="591" unicode="ˑ"/><glyph d="M584 1148q-154 0 -217.5 69t-33.5 196h94q-21 -92 25.5 -137.5t144.5 -45.5q100 0 164.5 48t84.5 135h94q-60 -265 -356 -265z" glyph-name="breve" horiz-adv-x="853" unicode="˘"/><glyph d="M341 1208l47 205h138l-47 -205h-138z" glyph-name="dotaccent" horiz-adv-x="482" unicode="˙"/><glyph d="M463 1095q-85 0 -129.5 60.5t-24.5 146.5q18 75 84.5 128t144.5 53q82 0 127.5 -60t26.5 -146q-18 -76 -85 -129t-144 -53zM465 1170q54 0 98.5 38t58.5 95q10 44 -14 74t-73 30q-54 0 -99 -37.5t-56 -91.5q-11 -46 13.5 -77t71.5 -31z" glyph-name="ring" horiz-adv-x="637" unicode="˚"/><glyph d="M109 -456q-97 0 -144 55t-25 147q15 66 68.5 124t111.5 90.5t108 43.5l111 -4q-63 -18 -127 -52t-121 -90.5t-71 -119.5q-25 -109 90 -109q93 0 174 86l60 -57q-103 -114 -235 -114z" glyph-name="ogonek" horiz-adv-x="612" unicode="˛"/><glyph d="M772 1158q-40 0 -69.5 13.5t-44.5 33t-29 43t-23.5 43t-27.5 32.5t-43 13q-51 1 -91 -44t-58 -122l-77 11q26 115 88 178t146 62q44 0 74 -18t46.5 -44t30 -52t34 -44.5t49.5 -18.5q46 0 85.5 48t58.5 126l80 -10q-27 -118 -88.5 -184t-140.5 -66z" glyph-name="tilde" horiz-adv-x="909" unicode="˜"/><glyph d="M211 1107l289 306h124l-310 -306h-103zM553 1107l289 306h144l-330 -306h-103z" glyph-name="hungarumlaut" horiz-adv-x="817" unicode="˝"/><glyph d="M459 696l-193 303h140l153 -303h-100zM885 696l-199 303h140l159 -303h-100z" glyph-name="uni02F5" horiz-adv-x="1100" unicode="˵"/><glyph d="M862 999l-340 -303h-108l293 303h155z" glyph-name="uni02F6" horiz-adv-x="1102" unicode="˶"/><glyph d="M-10 1117l-190 296h120l149 -296h-79z" glyph-name="gravecomb" horiz-adv-x="0" unicode="̀"/><glyph d="M-283 1127l285 286h144l-325 -286h-104z" glyph-name="acutecomb" horiz-adv-x="0" unicode="́"/><glyph d="M-516 1113l373 319l230 -319h-108l-144 201l-238 -201h-113z" glyph-name="uni0302" horiz-adv-x="0" unicode="̂"/><glyph d="M-154 1158q-40 0 -69.5 13.5t-44.5 33t-29 43t-24 43t-28 32.5t-43 13q-50 1 -90.5 -44.5t-57.5 -121.5l-77 11q26 115 88 178t145 62q44 0 74.5 -18t46.5 -44t29.5 -52t34.5 -44.5t50 -18.5q45 0 85 48t58 126l81 -10q-28 -118 -89 -184t-140 -66z" glyph-name="tildecomb" horiz-adv-x="0" unicode="̃"/><glyph d="M-548 1220l19 82h548l-19 -82h-548z" glyph-name="uni0304" horiz-adv-x="0" unicode="̄"/><glyph d="M-266 1148q-155 0 -221 69.5t-36 195.5h92q-21 -92 25.5 -137.5t144.5 -45.5q100 0 164.5 48t84.5 135h96q-60 -265 -350 -265z" glyph-name="uni0306" horiz-adv-x="0" unicode="̆"/><glyph d="M-146 1208l47 205h138l-47 -205h-138z" glyph-name="uni0307" horiz-adv-x="0" unicode="̇"/><glyph d="M-484 1208l47 205h113l-47 -205h-113zM-121 1208l47 205h113l-47 -205h-113z" glyph-name="uni0308" horiz-adv-x="0" unicode="̈"/><glyph d="M-174 1095q-85 0 -129.5 60.5t-24.5 146.5q18 75 84.5 128t144.5 53q82 0 127.5 -60t26.5 -146q-18 -76 -85 -129t-144 -53zM-172 1170q54 0 98.5 38t58.5 95q10 44 -14 74t-73 30q-54 0 -99 -37.5t-56 -91.5q-11 -46 13.5 -77t71.5 -31z" glyph-name="uni030A" horiz-adv-x="0" unicode="̊"/><glyph d="M-627 1107l289 306h124l-310 -306h-103zM-285 1107l289 306h144l-330 -306h-103z" glyph-name="uni030B" horiz-adv-x="0" unicode="̋"/><glyph d="M-215 1104l-232 308h109l143 -195l239 195h112z" glyph-name="uni030C" horiz-adv-x="0" unicode="̌"/><glyph d="M-276 1107h-99l-189 306h141zM66 1107h-99l-168 306h120z" glyph-name="uni030F" horiz-adv-x="0" unicode="̏"/><glyph d="M121 1423l-251 -299h-142l306 299h87z" glyph-name="uni0312" horiz-adv-x="0" unicode="̒"/><glyph d="M-289 1008l12 90q92 0 148.5 58t78.5 155l24 102h102l-23 -103q-71 -302 -342 -302z" glyph-name="uni031B" horiz-adv-x="0" unicode="̛"/><glyph d="M-610 -447l260 334h142l-314 -334h-88z" glyph-name="uni0326" horiz-adv-x="0" unicode="̦"/><glyph d="M-535 -516q-64 0 -110.5 38t-57.5 96l81 23q5 -36 30.5 -56.5t63.5 -20.5q60 0 103 33.5t56 91.5q13 50 -25.5 81t-120.5 37q-43 3 -91 3l150 189h86l-118 -133q26 -1 59 -12q84 -15 119.5 -63t18.5 -123q-20 -82 -86.5 -133t-157.5 -51z" glyph-name="uni0327" horiz-adv-x="0" unicode="̧"/><glyph d="M-503 -456q-97 0 -144 55t-25 147q15 66 68.5 124t111.5 90.5t108 43.5l111 -4q-63 -18 -127 -52t-121 -90.5t-71 -119.5q-25 -109 90 -109q93 0 174 86l60 -57q-104 -114 -235 -114z" glyph-name="uni0328" horiz-adv-x="0" unicode="̨"/><glyph d="M-883 299l33 151l768 690l-32 -150z" glyph-name="uni0337" horiz-adv-x="0" unicode="̷"/><glyph d="M280 1127l143 286h112l-185 -286h-70z" glyph-name="tonos" horiz-adv-x="439" unicode="΄"/><glyph d="M513 1541l141 286h114l-184 -286h-71zM241 1208l47 205h112l-47 -205h-112zM604 1208l47 205h113l-47 -205h-113z" glyph-name="dieresistonos" horiz-adv-x="682" unicode="΅"/><glyph d="M71 -348l310 1347h131l-139 -607q-32 -137 12.5 -210.5t163.5 -73.5q131 0 227.5 81t129.5 225l134 585h131l-229 -999h-131l40 166q-66 -89 -158 -135t-192 -46q-175 0 -212 126l-110 -459h-108z" glyph-name="mu" horiz-adv-x="1284" unicode="μ"/><glyph d="M843 -18q-121 0 -158.5 124t15.5 364l97 417h-401l-203 -887h-113l204 887h-105l26 112h859l-26 -112h-129l-100 -436q-43 -184 -29.5 -274.5t84.5 -90.5q41 0 97 19l19 -97q-80 -26 -137 -26z" glyph-name="pi" horiz-adv-x="1122" unicode="π"/><glyph d="M883 1530l-190 296h120l149 -296h-79zM108 0l325 1413h924l-29 -127h-786l-120 -513h707l-28 -127h-708l-119 -516h787l-30 -130h-923z" glyph-name="uni0400" horiz-adv-x="1268" unicode="Ѐ"/><glyph d="M706 1621l47 205h113l-47 -205h-113zM1069 1621l47 205h113l-47 -205h-113zM108 0l325 1413h924l-29 -127h-786l-120 -513h707l-28 -127h-708l-119 -516h787l-30 -130h-923z" glyph-name="afii10023" horiz-adv-x="1268" unicode="Ё"/><glyph d="M966 -15q-76 0 -151 33t-124 83l83 88q67 -74 187 -74q134 0 241 94t141 243q50 214 -14 317.5t-261 103.5q-187 0 -356 -136l-172 -737h-138l297 1288h-455l28 124h1062l-28 -124h-469l-93 -385q172 104 340 104q265 0 361 -147t33 -425q-50 -213 -189.5 -331.5 t-322.5 -118.5z" glyph-name="afii10051" horiz-adv-x="1605" unicode="Ђ"/><glyph d="M726 1541l285 286h144l-325 -286h-104zM108 0l325 1413h821l-28 -127h-684l-297 -1286h-137z" glyph-name="afii10052" horiz-adv-x="1105" unicode="Ѓ"/><glyph d="M655 -15q-108 0 -194.5 27t-144.5 76.5t-96.5 117.5t-53.5 150t-11.5 173.5t25.5 189.5q34 144 101 270t164.5 225.5t234 157.5t293.5 58q208 0 333.5 -105.5t158.5 -291.5l-135 -40q-14 149 -109 227t-264 78q-121 0 -226 -42.5t-181.5 -116.5t-131.5 -167.5t-87 -203.5 h649l-29 -127h-650q-12 -89 -10.5 -167.5t27 -144t69.5 -113t116.5 -74t167.5 -26.5q336 0 530 317l115 -62q-117 -184 -286.5 -285t-374.5 -101z" glyph-name="afii10053" horiz-adv-x="1441" unicode="Є"/><glyph d="M487 -13q-126 0 -223 45t-151 135.5t-46 212.5l140 23q-5 -140 72 -216.5t222 -76.5q158 0 271 93t113 226q0 53 -25 96t-66 71t-93.5 55t-107 48.5t-107 51.5t-93.5 63t-66 85t-25 116q0 114 64.5 209.5t172.5 149.5t232 54q285 0 367 -232l-125 -60q-57 170 -256 170 q-129 0 -223.5 -83.5t-94.5 -195.5q0 -54 32.5 -96.5t84 -71t114 -54.5t125 -56.5t114 -68t84 -96.5t32.5 -135q0 -129 -75 -236t-198 -166.5t-265 -59.5z" glyph-name="afii10054" unicode="Ѕ"/><glyph d="M108 0l325 1413h137l-325 -1413h-137z" glyph-name="afii10055" horiz-adv-x="582" unicode="І"/><glyph d="M311 1621l47 205h113l-47 -205h-113zM674 1621l47 205h113l-47 -205h-113zM108 0l325 1413h137l-325 -1413h-137z" glyph-name="afii10056" horiz-adv-x="582" unicode="Ї"/><glyph d="M414 -15q-198 0 -292.5 121.5t-65.5 311.5l135 4q-22 -142 38.5 -225.5t199.5 -83.5q164 0 262.5 101.5t145.5 303.5l178 768h-575l29 127h712l-209 -903q-58 -252 -196.5 -388.5t-361.5 -136.5z" glyph-name="afii10057" horiz-adv-x="1166" unicode="Ј"/><glyph d="M128 -15q-98 0 -180 54l56 96q59 -27 126 -27q37 0 72.5 22.5t67 67.5t60 97.5t55.5 126.5t49 140.5t45.5 154.5t39 152.5t35.5 149.5l90 394h810l-143 -623h258q218 0 323 -107.5t61 -300.5q-41 -181 -191 -281.5t-368 -100.5h-402l297 1286h-536l-66 -276 q-29 -126 -47 -201t-52 -197t-63 -197t-73.5 -166t-90 -142t-106 -86.5t-127.5 -35.5zM1157 129h259q167 0 271.5 72t135.5 206q29 124 -41 188.5t-236 64.5h-266z" glyph-name="afii10058" horiz-adv-x="2073" unicode="Љ"/><glyph d="M108 0l325 1413h137l-144 -623h682l144 623h138l-144 -623h257q218 0 323.5 -107.5t60.5 -300.5q-41 -181 -190.5 -281.5t-368.5 -100.5h-401l151 662h-682l-151 -662h-137zM1093 129h258q167 0 271 72t135 206q29 124 -40.5 189t-235.5 66h-266z" glyph-name="afii10059" horiz-adv-x="2007" unicode="Њ"/><glyph d="M439 0l297 1288h-492l28 124h1124l-29 -124h-494l-101 -423q150 121 365 121q502 0 367 -583l-92 -403h-137l91 399q58 233 2 343.5t-247 110.5q-125 0 -223.5 -44.5t-159.5 -114.5l-161 -694h-138z" glyph-name="afii10060" horiz-adv-x="1660" unicode="Ћ"/><glyph d="M801 1541l285 286h144l-325 -286h-104zM108 0l325 1413h135l-124 -534h212l490 537l159 -6l-509 -558q78 -19 121.5 -82t58.5 -176l85 -594h-146l-73 557q-15 118 -58 157.5t-140 39.5h-228l-173 -754h-135z" glyph-name="afii10061" horiz-adv-x="1251" unicode="Ќ"/><glyph d="M800 1562q-155 0 -221 69.5t-36 195.5h92q-21 -92 25.5 -137.5t144.5 -45.5q100 0 164.5 48t84.5 135h96q-60 -265 -350 -265zM208 0l263 426l-196 987h144l156 -832l501 832h147l-869 -1413h-146z" glyph-name="afii10062" horiz-adv-x="1076" unicode="Ў"/><glyph d="M472 -307l72 307h-436l325 1413h137l-297 -1286h736l297 1286h137l-326 -1413h-436l-72 -307h-137z" glyph-name="afii10145" horiz-adv-x="1454" unicode="Џ"/><glyph d="M978 0l-43 341h-624l-198 -341h-161l851 1413h115l198 -1413h-138zM380 460h540l-97 761z" glyph-name="afii10017" horiz-adv-x="1297" unicode="А"/><glyph d="M108 0l325 1413h770l-28 -125h-633l-108 -466h368q217 0 304.5 -116t41.5 -317q-41 -179 -193.5 -284t-352.5 -105h-494zM274 131h354q150 0 255.5 78.5t138.5 218.5q30 126 -35 200t-211 74h-369z" glyph-name="afii10018" horiz-adv-x="1300" unicode="Б"/><glyph d="M108 0l325 1413h425q189 0 285.5 -94.5t54.5 -281.5q-24 -100 -96 -180.5t-164 -114.5q109 -26 158 -126t17 -237q-41 -181 -185.5 -280t-347.5 -99h-472zM427 794h331q109 0 198.5 69.5t117.5 191.5q27 115 -34.5 174t-201.5 59h-296zM274 131h331q155 0 252.5 72.5 t130.5 214.5q27 116 -29.5 186t-185.5 70h-374z" glyph-name="afii10019" horiz-adv-x="1269" unicode="В"/><glyph d="M108 0l325 1413h821l-28 -127h-684l-297 -1286h-137z" glyph-name="afii10020" horiz-adv-x="1105" unicode="Г"/><glyph d="M-118 -273l91 395l140 5q74 66 135 157t103 195t68.5 192t50.5 191l127 550h835l-298 -1290h149l-91 -395h-137l63 273h-1035l-64 -272zM265 117l731 5l269 1163h-560l-101 -432q-25 -109 -48.5 -191.5t-63.5 -188.5t-97.5 -196.5t-129.5 -159.5z" glyph-name="afii10021" horiz-adv-x="1467" unicode="Д"/><glyph d="M108 0l325 1413h924l-29 -127h-786l-120 -513h707l-28 -127h-708l-119 -516h787l-30 -130h-923z" glyph-name="afii10022" horiz-adv-x="1268" unicode="Е"/><glyph d="M-42 0l358 604q69 114 139.5 174.5t157.5 79.5l-245 552l156 6l242 -537h214l124 534h135l-124 -534h212l490 537l158 -6l-509 -558q79 -19 122.5 -82t58.5 -176l85 -594h-146l-74 557q-15 117 -57.5 157t-139.5 40h-229l-173 -754h-135l173 754h-222q-95 0 -159 -44 t-134 -163l-328 -547h-150z" glyph-name="afii10024" horiz-adv-x="1919" unicode="Ж"/><glyph d="M457 -15q-185 0 -296.5 86t-114.5 238l132 51q-7 -118 72 -183t223 -65q161 0 283.5 83.5t154.5 227.5q12 39 8.5 71.5t-10 57.5t-26 45t-39.5 34t-50 24t-57.5 16.5t-62 10t-64 4.5t-63.5 1l21 124q109 -1 189.5 20t142.5 78.5t84 152.5q25 108 -38.5 173t-186.5 65 q-135 0 -236.5 -75.5t-129.5 -198.5l-126 18q41 177 182.5 280.5t321.5 103.5q181 0 281 -104t62 -271q-53 -224 -349 -298q71 -12 127 -40t96 -73.5t52 -108.5t-5 -145q-43 -186 -205.5 -294.5t-372.5 -108.5z" glyph-name="afii10025" horiz-adv-x="1182" unicode="З"/><glyph d="M1269 1413h144l-327 -1413h-131l275 1192l-976 -1192h-146l327 1413h130l-273 -1191z" glyph-name="afii10026" horiz-adv-x="1424" unicode="И"/><glyph d="M967 1561q-154 0 -217.5 69t-33.5 196h94q-21 -92 25.5 -137.5t144.5 -45.5q100 0 164.5 48t84.5 135h94q-60 -265 -356 -265zM1269 1413h144l-327 -1413h-131l275 1192l-976 -1192h-146l327 1413h130l-273 -1191z" glyph-name="afii10027" horiz-adv-x="1424" unicode="Й"/><glyph d="M108 0l325 1413h135l-124 -534h212l490 537l159 -6l-509 -558q78 -19 121.5 -82t58.5 -176l85 -594h-146l-73 557q-15 118 -58 157.5t-140 39.5h-228l-173 -754h-135z" glyph-name="afii10028" horiz-adv-x="1251" unicode="К"/><glyph d="M136 -15q-96 0 -176 54l64 111q42 -30 102 -30q42 0 80 20t72 65t62.5 93t58 128t50.5 144t48 168.5t43.5 173t43.5 183.5l72 318h811l-325 -1413h-137l297 1286h-537l-60 -254q-89 -387 -143 -552q-119 -361 -284 -457q-66 -38 -142 -38z" glyph-name="afii10029" horiz-adv-x="1479" unicode="Л"/><glyph d="M1571 1413h190l-325 -1411h-132l280 1219l-715 -1105h-134l-208 1129l-287 -1243h-132l325 1411h189l209 -1144z" glyph-name="afii10030" horiz-adv-x="1773" unicode="М"/><glyph d="M108 0l325 1413h137l-148 -639h741l149 639h137l-326 -1413h-137l149 647h-742l-148 -647h-137z" glyph-name="afii10031" horiz-adv-x="1460" unicode="Н"/><glyph d="M664 -15q-109 0 -196.5 27t-147 76t-99.5 116.5t-56 150t-12.5 174t26.5 190.5q26 115 74.5 219t120.5 194t161.5 155.5t204.5 103t242 37.5q109 0 197 -27t148 -76t99.5 -116.5t56 -150t13 -174t-26.5 -190.5q-26 -115 -74.5 -219t-120.5 -194t-161.5 -155.5t-205 -103 t-243.5 -37.5zM677 108q130 0 241.5 48.5t191.5 133.5t135.5 193.5t85.5 235.5q22 97 24 182.5t-19.5 160.5t-66.5 128.5t-121.5 84.5t-178.5 31q-130 0 -241 -48.5t-191 -134t-135.5 -194t-84.5 -235.5q-22 -97 -24 -182.5t19.5 -160t66 -128.5t120.5 -84.5t178 -30.5z" glyph-name="afii10032" horiz-adv-x="1552" unicode="О"/><glyph d="M108 0l325 1413h1056l-326 -1413h-137l297 1286h-781l-297 -1286h-137z" glyph-name="afii10033" horiz-adv-x="1500" unicode="П"/><glyph d="M108 0l325 1413h385q217 0 322.5 -110t60.5 -303q-42 -182 -191.5 -282t-367.5 -100h-256l-142 -618h-136zM415 748h249q168 0 271.5 71.5t134.5 205.5q30 124 -40.5 191.5t-234.5 67.5h-255z" glyph-name="afii10034" horiz-adv-x="1178" unicode="Р"/><glyph d="M658 -15q-125 0 -222 35.5t-157.5 100.5t-94 156.5t-32 203t28.5 240.5q36 156 106.5 285t171 224t235 147.5t291.5 52.5q423 0 494 -388l-138 -41q-15 155 -108 226t-263 71q-254 0 -423.5 -160t-233.5 -437q-23 -101 -25.5 -187.5t19 -160.5t66.5 -126t121.5 -81.5 t179.5 -29.5q169 0 300.5 76.5t234.5 234.5l116 -62q-253 -380 -667 -380z" glyph-name="afii10035" horiz-adv-x="1451" unicode="С"/><glyph d="M440 0l297 1289h-493l28 124h1124l-29 -124h-493l-296 -1289h-138z" glyph-name="afii10036" horiz-adv-x="1246" unicode="Т"/><glyph d="M208 0l263 426l-196 987h144l156 -832l501 832h147l-869 -1413h-146z" glyph-name="afii10037" horiz-adv-x="1076" unicode="У"/><glyph d="M703 0l28 105q-345 1 -483 159.5t-69 453.5q66 287 274.5 442t550.5 156l26 97h137l-26 -97q343 -1 481.5 -163.5t70.5 -459.5q-66 -284 -273 -435.5t-552 -152.5l-26 -105h-139zM753 228l230 965q-274 -1 -442 -128.5t-224 -371.5q-108 -464 436 -465zM890 228 q551 1 664 490q54 233 -53.5 353.5t-380.5 121.5z" glyph-name="afii10038" horiz-adv-x="1776" unicode="Ф"/><glyph d="M1452 1413l-647 -700l327 -713h-150l-282 629l-574 -629h-168l660 713l-321 700h152l272 -622l565 622h166z" glyph-name="afii10039" horiz-adv-x="1321" unicode="Х"/><glyph d="M1002 -273l64 273h-958l325 1413h137l-297 -1286h736l297 1286h137l-297 -1286h86l-92 -400h-138z" glyph-name="afii10040" horiz-adv-x="1473" unicode="Ц"/><glyph d="M854 0l128 547q-146 -121 -365 -121q-109 0 -187.5 28t-124 78.5t-66 124t-17 160.5t28.5 192l93 404h137l-93 -400q-57 -233 -1 -343.5t247 -110.5q124 0 222.5 44t160.5 115l163 695h137l-326 -1413h-137z" glyph-name="afii10041" horiz-adv-x="1328" unicode="Ч"/><glyph d="M108 0l325 1413h137l-297 -1286h478l297 1286h137l-297 -1286h481l297 1286h137l-325 -1413h-1370z" glyph-name="afii10042" horiz-adv-x="1815" unicode="Ш"/><glyph d="M1353 -273l63 273h-1308l325 1413h137l-297 -1286h478l297 1286h137l-297 -1286h481l297 1286h137l-297 -1286h76l-92 -400h-137z" glyph-name="afii10043" horiz-adv-x="1830" unicode="Щ"/><glyph d="M335 0l297 1289h-388l28 124h525l-144 -623h258q218 0 323.5 -107.5t60.5 -300.5q-41 -181 -190.5 -281.5t-368.5 -100.5h-401zM500 129h259q167 0 271 72t135 206q29 124 -40.5 188.5t-235.5 64.5h-266z" glyph-name="afii10044" horiz-adv-x="1415" unicode="Ъ"/><glyph d="M108 0l325 1413h136l-143 -623h258q218 0 323 -107.5t61 -300.5q-41 -181 -190.5 -281.5t-368.5 -100.5h-401zM1201 0l326 1413h137l-326 -1413h-137zM272 129h259q168 0 272 72t135 206q29 124 -40.5 188.5t-235.5 64.5h-267z" glyph-name="afii10045" horiz-adv-x="1675" unicode="Ы"/><glyph d="M108 0l325 1413h136l-143 -623h258q218 0 323 -107.5t61 -300.5q-41 -181 -190.5 -281.5t-368.5 -100.5h-401zM272 129h259q168 0 272 72t135 206q29 124 -40.5 188.5t-235.5 64.5h-267z" glyph-name="afii10046" horiz-adv-x="1188" unicode="Ь"/><glyph d="M561 -15q-207 0 -333 105.5t-159 290.5l134 42q46 -307 374 -307q120 0 224 42t181 115.5t132 167.5t89 205h-649l29 127h652q12 87 11 165.5t-26.5 144.5t-69 113.5t-116 74.5t-167.5 27q-173 0 -309 -82t-221 -233l-116 60q117 184 286 285.5t374 101.5 q108 0 194.5 -27.5t145 -77t96.5 -117.5t53 -150.5t11.5 -174t-25.5 -189.5q-27 -115 -74.5 -218t-119 -193.5t-159 -156t-201.5 -103.5t-241 -38z" glyph-name="afii10047" horiz-adv-x="1440" unicode="Э"/><glyph d="M1054 -15q-102 0 -185.5 24.5t-140.5 69t-97.5 106t-57.5 135t-20.5 156.5t13.5 170h-174l-147 -646h-137l325 1412h137l-149 -639h174q39 136 107.5 251.5t164 207t226 144t279.5 52.5q130 0 228.5 -39.5t157.5 -108t88.5 -162t29 -200t-27.5 -224.5q-26 -113 -73 -216 t-118 -193.5t-159 -156.5t-202 -104.5t-242 -38.5zM1067 108q104 0 196.5 32.5t163 89t127.5 134.5t95 166.5t61 188.5q22 95 25 180t-17 160t-63.5 129.5t-118.5 86t-177 31.5q-130 0 -240 -49.5t-187.5 -136t-131 -193.5t-82.5 -233q-22 -95 -25 -179.5t16.5 -160 t62.5 -129.5t118 -85.5t177 -31.5z" glyph-name="afii10048" horiz-adv-x="1932" unicode="Ю"/><glyph d="M-38 -1l548 657q-132 33 -190 131.5t-24 242.5q40 182 190.5 282.5t360.5 100.5h398l-326 -1414h-136l148 639h-198q-51 0 -93 3l-521 -642h-157zM683 752h273l123 537h-255q-156 0 -264.5 -75.5t-139.5 -207.5q-28 -122 40 -187t223 -67z" glyph-name="afii10049" horiz-adv-x="1257" unicode="Я"/><glyph d="M429 -15q-100 0 -176 41.5t-116.5 113t-53.5 168t14 205.5q50 212 204.5 357t348.5 145q121 0 204 -65t104 -175l53 224h135l-230 -999h-123l47 223q-72 -112 -181.5 -175t-229.5 -63zM472 105q156 0 276.5 115.5t160.5 292.5q40 165 -25 273t-215 108 q-156 0 -279 -115.5t-163 -290.5q-38 -166 28 -274.5t217 -108.5z" glyph-name="afii10065" horiz-adv-x="1208" unicode="а"/><glyph d="M503 -15q-220 0 -322 133.5t-51 366.5l63 273q78 339 327 483q84 45 196 84.5t184 58t193 46.5l-24 -134q-110 -26 -178 -44t-159.5 -52.5t-162.5 -75.5q-198 -100 -248 -320l-24 -101q70 119 189 184.5t262 65.5q93 0 163.5 -25.5t111.5 -70t64 -106t21 -132.5t-18 -149 q-51 -216 -211 -350.5t-376 -134.5zM515 100q162 0 278.5 104t157.5 280q14 59 14.5 111t-14.5 97t-45.5 77t-83 50.5t-122.5 18.5q-161 0 -278.5 -107t-155.5 -271q-38 -168 24.5 -264t224.5 -96z" glyph-name="afii10066" horiz-adv-x="1187" unicode="б"/><glyph d="M62 0l230 999h410q170 0 249 -74.5t46 -196.5q-18 -73 -66 -127.5t-120 -77.5q76 -17 114.5 -81t11.5 -178q-33 -144 -144.5 -204t-314.5 -60h-416zM330 578h344q79 5 128.5 42.5t64.5 102.5q18 71 -26.5 110.5t-139.5 39.5h-304zM224 124h296q128 0 198.5 38t89.5 129 q17 81 -20.5 123t-135.5 46h-350z" glyph-name="afii10067" horiz-adv-x="1096" unicode="в"/><glyph d="M62 0l230 999h577l-22 -101h-444l-206 -898h-135z" glyph-name="afii10068" horiz-adv-x="780" unicode="г"/><glyph d="M-161 -307l94 408l107 4q92 80 148.5 191.5t90.5 261.5l101 441h710l-207 -898h109l-94 -408h-134l72 307h-791l-72 -307h-134zM179 97l570 4l184 797h-441l-81 -348q-36 -154 -90 -265.5t-142 -187.5z" glyph-name="afii10069" horiz-adv-x="1176" unicode="д"/><glyph d="M1006 758q0 -62 -30 -110.5t-86.5 -80.5t-126.5 -54t-162.5 -33.5t-182 -16t-195.5 -4.5q-8 -53 -8 -99q0 -255 258 -255q89 0 165.5 32.5t155.5 99.5l77 -91q-100 -83 -198 -122t-213 -39q-191 0 -284.5 98t-93.5 277q0 98 27 194t79 178.5t123 146t166 100t201 36.5 q157 0 242.5 -74.5t85.5 -182.5zM673 902q-150 0 -260.5 -94t-161.5 -241q55 0 90.5 1t99 3t107.5 8t100.5 14.5t94.5 23t73 34t52.5 47.5t17.5 62q0 63 -58.5 102.5t-154.5 39.5z" glyph-name="afii10070" horiz-adv-x="1037" unicode="е"/><glyph d="M-70 0l273 450q99 159 226 163l-208 386h151l185 -370h157l85 370h132l-85 -370h154l356 370h158l-396 -386q121 -4 151 -174l69 -439h-154l-48 394q-5 32 -11 51.5t-20 41t-41 31.5t-67 10h-174l-122 -528h-132l122 528h-168q-75 0 -121 -38.5t-85 -105.5l-228 -384 h-159z" glyph-name="afii10072" horiz-adv-x="1499" unicode="ж"/><glyph d="M380 -15q-284 0 -386 210l127 73q66 -163 282 -163q126 0 213 53.5t102 146.5q11 68 -35 105t-148 37h-102l28 118h96q112 0 173 43t75 115q13 78 -47 124.5t-173 46.5q-202 0 -345 -166l-111 79q179 208 464 208q166 0 263 -71t82 -196q-9 -97 -69 -153.5t-167 -84.5 q169 -37 149 -203q-10 -101 -78 -175t-170 -110.5t-223 -36.5z" glyph-name="afii10073" horiz-adv-x="1012" unicode="з"/><glyph d="M972 999h153l-229 -999h-134l188 819l-733 -819h-155l230 999h134l-190 -822z" glyph-name="afii10074" horiz-adv-x="1188" unicode="и"/><glyph d="M759 1148q-155 0 -221 69.5t-36 195.5h92q-21 -92 25.5 -137.5t144.5 -45.5q100 0 164.5 48t84.5 135h96q-60 -265 -350 -265zM972 999h153l-229 -999h-134l188 819l-733 -819h-155l230 999h134l-190 -822z" glyph-name="afii10075" horiz-adv-x="1188" unicode="й"/><glyph d="M62 0l230 999h132l-85 -370h155l355 370h159l-397 -386q124 -4 151 -174l69 -439h-154l-48 394q-5 32 -11 51.5t-20 41t-41 31.5t-67 10h-174l-121 -528h-133z" glyph-name="afii10076" horiz-adv-x="998" unicode="к"/><glyph d="M67 -15q-72 0 -158 39l48 84q39 -17 78 -17q47 0 87 36.5t74 111t62 167.5t58 226l84 367h669l-229 -999h-134l206 898h-400l-78 -336q-70 -302 -156.5 -439.5t-210.5 -137.5z" glyph-name="afii10077" horiz-adv-x="1132" unicode="л"/><glyph d="M1192 999h173l-230 -999h-122l191 836l-552 -836h-104l-170 844l-194 -844h-122l230 999h170l170 -851z" glyph-name="afii10078" horiz-adv-x="1426" unicode="м"/><glyph d="M62 0l230 999h134l-91 -397h523l91 397h134l-229 -999h-134l115 501h-524l-114 -501h-135z" glyph-name="afii10079" horiz-adv-x="1146" unicode="н"/><glyph d="M461 -15q-141 0 -237.5 70.5t-130 191t-0.5 267.5q50 213 216.5 357t374.5 144q141 0 238 -70t132 -190.5t2 -265.5q-25 -104 -82 -196.5t-134.5 -160.5t-176.5 -107.5t-202 -39.5zM473 100q161 0 285.5 119t165.5 295q39 165 -28.5 275t-223.5 110q-160 0 -283 -117 t-164 -293q-39 -167 27 -278t221 -111z" glyph-name="afii10080" unicode="о"/><glyph d="M62 0l230 999h791l-229 -999h-134l207 898h-524l-206 -898h-135z" glyph-name="afii10081" horiz-adv-x="1146" unicode="п"/><glyph d="M-33 -414l326 1413h136l-51 -217q71 110 180 171.5t226 61.5q99 0 172 -41.5t109.5 -113.5t46 -168.5t-17.5 -205.5q-25 -104 -74.5 -195t-117.5 -159t-156.5 -107.5t-186.5 -39.5q-121 0 -202.5 64.5t-103.5 174.5l-150 -638h-136zM544 105q154 0 267.5 114.5 t153.5 291.5q21 81 15 150.5t-32 120.5t-79.5 80.5t-128.5 29.5q-157 0 -278 -114.5t-161 -291.5q-39 -165 26.5 -273t216.5 -108z" glyph-name="afii10082" horiz-adv-x="1195" unicode="р"/><glyph d="M433 -15q-106 0 -184 41.5t-117.5 112.5t-50.5 166.5t16 204.5q23 98 71.5 187t117.5 161t165 114.5t203 42.5q140 0 230 -73t114 -207l-133 -39q-13 94 -71.5 146t-152.5 52q-79 0 -149.5 -34t-122 -91.5t-88.5 -130t-55 -153.5q-20 -74 -15.5 -143t27.5 -121.5 t76.5 -84t130.5 -31.5q99 0 185.5 56t138.5 150l111 -56q-76 -130 -193 -200t-254 -70z" glyph-name="afii10083" horiz-adv-x="1013" unicode="с"/><glyph d="M265 0l207 898h-354l22 101h844l-22 -101h-356l-207 -898h-134z" glyph-name="afii10084" horiz-adv-x="895" unicode="т"/><glyph d="M71 -428l272 440l-197 987h144l157 -832l500 832h147l-877 -1427h-146z" glyph-name="afii10085" horiz-adv-x="1015" unicode="у"/><glyph d="M431 -430l101 421q-32 -6 -66 -6q-141 0 -239 70t-134 190t-3 265q50 211 220.5 356t377.5 144q46 -2 71 -8l98 410h132l-98 -407q30 6 66 6q142 0 240 -70t133.5 -190.5t2.5 -265.5q-49 -211 -219 -355.5t-379 -144.5q-32 0 -70 8l-102 -423h-132zM478 100q48 0 75 10 l186 778q-22 7 -63 7q-161 0 -284.5 -117t-164.5 -293q-22 -109 -4.5 -194.5t84.5 -138t171 -52.5zM748 100q160 0 284 117t164 293q22 109 4.5 194.5t-84.5 138t-171 52.5q-40 0 -74 -9l-187 -778q18 -8 64 -8z" glyph-name="afii10086" horiz-adv-x="1424" unicode="ф"/><glyph d="M-70 0l485 502l-249 497h157l198 -406l386 406h167l-485 -497l251 -502h-159l-198 410l-387 -410h-166z" glyph-name="afii10087" horiz-adv-x="1006" unicode="х"/><glyph d="M751 -307l71 307h-760l230 999h134l-207 -898h523l207 898h134l-206 -898h102l-94 -408h-134z" glyph-name="afii10088" horiz-adv-x="1174" unicode="ц"/><glyph d="M647 0l99 425q-64 -89 -154 -135.5t-193 -46.5q-86 0 -147.5 30.5t-91.5 84t-38.5 125t11.5 154.5l83 362h134l-81 -351q-32 -137 7 -208t157 -71q128 0 233.5 86.5t134.5 214.5l76 329h134l-230 -999h-134z" glyph-name="afii10089" horiz-adv-x="1073" unicode="ч"/><glyph d="M62 0l230 999h134l-207 -898h413l207 898h134l-207 -898h414l206 898h135l-230 -999h-1229z" glyph-name="afii10090" horiz-adv-x="1583" unicode="ш"/><glyph d="M1188 -307l72 307h-1198l230 999h134l-207 -898h413l207 898h134l-207 -898h414l206 898h135l-207 -898h102l-94 -408h-134z" glyph-name="afii10091" horiz-adv-x="1611" unicode="щ"/><glyph d="M186 0l207 898h-275l22 101h410l-72 -314h195q213 0 298 -88t43 -271q-77 -326 -491 -326h-337zM346 116h196q132 0 219 58t113 176q26 114 -30.5 166.5t-190.5 52.5h-202z" glyph-name="afii10092" horiz-adv-x="1123" unicode="ъ"/><glyph d="M62 0l230 999h134l-72 -314h195q214 0 298.5 -88t42.5 -271q-77 -326 -491 -326h-337zM976 0l229 999h123l-229 -999h-123zM222 116h196q131 0 218.5 58t114.5 176q26 114 -31 166.5t-191 52.5h-202z" glyph-name="afii10093" horiz-adv-x="1391" unicode="ы"/><glyph d="M62 0l230 999h134l-72 -314h195q214 0 298.5 -88t42.5 -271q-77 -326 -491 -326h-337zM222 116h196q131 0 218.5 58t114.5 176q26 114 -31 166.5t-191 52.5h-202z" glyph-name="afii10094" horiz-adv-x="999" unicode="ь"/><glyph d="M364 -15q-137 0 -228.5 71.5t-118.5 193.5l126 37q20 -85 81.5 -131t154.5 -46q140 0 254 96.5t159 242.5h-377l22 101h380q25 149 -40.5 243.5t-203.5 94.5q-99 0 -186.5 -51t-147.5 -139l-115 60q87 120 209 187.5t255 67.5q87 0 156.5 -27.5t114 -76t71.5 -115 t27.5 -144t-17.5 -163.5q-23 -102 -76 -193t-126.5 -159.5t-170.5 -109t-203 -40.5z" glyph-name="afii10095" horiz-adv-x="1036" unicode="э"/><glyph d="M845 -15q-214 0 -316 138t-59 358l-164 -5l-109 -476h-135l230 999h134l-97 -421l174 5q70 197 220 312.5t344 115.5q221 0 322 -146.5t48 -379.5q-52 -222 -214 -361t-378 -139zM857 100q168 0 283.5 111.5t158.5 298.5q42 176 -19.5 280.5t-224.5 104.5 q-167 0 -283 -111.5t-159 -298.5q-41 -176 20.5 -280.5t223.5 -104.5z" glyph-name="afii10096" horiz-adv-x="1532" unicode="ю"/><glyph d="M-32 0l178 297q50 82 104 126.5t123 60.5q-236 45 -186 266q26 108 128 178.5t287 70.5h378l-229 -999h-133l105 455h-170q-74 0 -139 -42t-111 -121l-176 -292h-159zM505 555h240l76 327h-262q-95 0 -160 -46.5t-82 -121.5q-18 -77 27.5 -118t160.5 -41z" glyph-name="afii10097" horiz-adv-x="1042" unicode="я"/><glyph d="M715 1117h-79l-190 296h120zM1006 758q0 -62 -30 -110.5t-86.5 -80.5t-126.5 -54t-162.5 -33.5t-182 -16t-195.5 -4.5q-8 -53 -8 -99q0 -255 258 -255q89 0 165.5 32.5t155.5 99.5l77 -91q-100 -83 -198 -122t-213 -39q-191 0 -284.5 98t-93.5 277q0 98 27 194t79 178.5 t123 146t166 100t201 36.5q157 0 242.5 -74.5t85.5 -182.5zM673 902q-150 0 -260.5 -94t-161.5 -241q55 0 90.5 1t99 3t107.5 8t100.5 14.5t94.5 23t73 34t52.5 47.5t17.5 62q0 63 -58.5 102.5t-154.5 39.5z" glyph-name="uni0450" horiz-adv-x="1037" unicode="ѐ"/><glyph d="M619 1413l-47 -205h-113l47 205h113zM982 1413l-47 -205h-113l47 205h113zM1006 758q0 -62 -30 -110.5t-86.5 -80.5t-126.5 -54t-162.5 -33.5t-182 -16t-195.5 -4.5q-8 -53 -8 -99q0 -255 258 -255q89 0 165.5 32.5t155.5 99.5l77 -91q-100 -83 -198 -122t-213 -39 q-191 0 -284.5 98t-93.5 277q0 98 27 194t79 178.5t123 146t166 100t201 36.5q157 0 242.5 -74.5t85.5 -182.5zM673 902q-150 0 -260.5 -94t-161.5 -241q55 0 90.5 1t99 3t107.5 8t100.5 14.5t94.5 23t73 34t52.5 47.5t17.5 62q0 63 -58.5 102.5t-154.5 39.5z" glyph-name="afii10071" horiz-adv-x="1037" unicode="ё"/><glyph d="M404 -444q-135 0 -234 75l78 102q64 -51 168 -51q134 0 226 96.5t132 268.5l121 521q35 153 -9.5 235.5t-173.5 82.5q-105 0 -210 -63.5t-155 -169.5l-150 -653h-136l268 1160h-185l21 91h184l38 162h135l-38 -162h267l-21 -91h-266l-71 -294q73 73 165 111.5t179 38.5 q79 0 138.5 -23t96 -63.5t55.5 -97.5t18.5 -124.5t-18.5 -143.5l-112 -485q-62 -270 -188 -396.5t-323 -126.5z" glyph-name="afii10099" horiz-adv-x="1158" unicode="ђ"/><glyph d="M544 1127l285 286h144l-325 -286h-104zM62 0l230 999h577l-22 -101h-444l-206 -898h-135z" glyph-name="afii10100" horiz-adv-x="780" unicode="ѓ"/><glyph d="M449 -15q-87 0 -157 27.5t-114.5 76t-71.5 114.5t-28 144t16 165q24 101 77 191.5t126.5 159.5t170.5 109.5t203 40.5q136 0 229 -72t124 -193l-131 -39q-20 86 -81.5 132.5t-155.5 46.5q-142 0 -256.5 -98t-158.5 -245h377l-22 -102h-379q-23 -148 42.5 -240.5 t202.5 -92.5q96 0 184.5 50.5t147.5 136.5l109 -57q-82 -121 -201.5 -188t-252.5 -67z" glyph-name="afii10101" horiz-adv-x="1034" unicode="є"/><glyph d="M368 -15q-149 0 -243.5 74.5t-109.5 193.5l114 37q11 -88 72.5 -141t171.5 -53q120 0 202.5 63.5t82.5 162.5q0 46 -27 77t-69.5 47.5t-94.5 29t-104 26.5t-94.5 35t-69.5 61t-27 97q0 140 116.5 230t284.5 90q121 0 200.5 -56.5t110.5 -157.5l-111 -45q-46 152 -214 152 q-109 0 -183 -52t-74 -134q0 -40 27 -68t70 -44t95 -29t104 -30t95 -41t70 -67.5t27 -103.5q0 -102 -57.5 -184t-153.5 -126t-211 -44z" glyph-name="afii10102" horiz-adv-x="928" unicode="ѕ"/><glyph d="M338 1208l47 205h138l-47 -205h-138zM62 0l230 999h131l-229 -999h-132z" glyph-name="afii10103" horiz-adv-x="484" unicode="і"/><glyph d="M167 1208l47 205h113l-47 -205h-113zM530 1208l47 205h113l-47 -205h-113zM62 0l230 999h132l-229 -999h-133z" glyph-name="afii10104" horiz-adv-x="486" unicode="ї"/><glyph d="M339 1212l46 201h139l-46 -201h-139zM-162 -433q-79 0 -159 34l55 111q55 -24 105 -24q151 0 193 182l260 1129h133l-260 -1130q-34 -144 -116 -223t-211 -79z" glyph-name="afii10105" horiz-adv-x="485" unicode="ј"/><glyph d="M67 -15q-72 0 -158 39l48 82q35 -17 79 -17q42 0 83 42.5t76 119.5t65 171.5t56 209.5l84 367h669l-72 -314h195q214 0 298.5 -88t42.5 -271q-77 -326 -491 -326h-336l206 898h-400l-63 -274q-81 -345 -169 -492t-213 -147zM865 116h196q131 0 218.5 58t114.5 176 q26 114 -30.5 166.5t-191.5 52.5h-202z" glyph-name="afii10106" horiz-adv-x="1642" unicode="љ"/><glyph d="M62 0l230 999h134l-79 -344h520l79 344h134l-79 -344h195q216 0 300.5 -83t43.5 -265q-37 -158 -157 -232.5t-329 -74.5h-337l127 554h-520l-127 -554h-135zM877 116h195q132 0 218 53t111 163q26 112 -30.5 160t-192.5 48h-203z" glyph-name="afii10107" horiz-adv-x="1652" unicode="њ"/><glyph d="M732 1015q87 0 148.5 -30t91.5 -82.5t38.5 -123t-11.5 -151.5l-144 -628h-134l139 607q68 287 -171 287q-133 0 -231.5 -91.5t-132.5 -237.5l-129 -565h-135l263 1142h-182l22 92h182l41 179h134l-42 -179h319l-21 -92h-320l-72 -308q67 89 157.5 135t189.5 46z" glyph-name="afii10108" horiz-adv-x="1120" unicode="ћ"/><glyph d="M577 1127l285 286h144l-325 -286h-104zM62 0l230 999h132l-85 -370h155l355 370h159l-397 -386q124 -4 151 -174l69 -439h-154l-48 394q-5 32 -11 51.5t-20 41t-41 31.5t-67 10h-174l-121 -528h-133z" glyph-name="afii10109" horiz-adv-x="998" unicode="ќ"/><glyph d="M776 1117h-79l-190 296h120zM972 999h153l-229 -999h-134l188 819l-733 -819h-155l230 999h134l-190 -822z" glyph-name="uni045D" horiz-adv-x="1188" unicode="ѝ"/><glyph d="M670 1148q-155 0 -221 69.5t-36 195.5h92q-21 -92 25.5 -137.5t144.5 -45.5q100 0 164.5 48t84.5 135h96q-60 -265 -350 -265zM71 -428l272 440l-197 987h144l157 -832l500 832h147l-877 -1427h-146z" glyph-name="afii10110" horiz-adv-x="1015" unicode="ў"/><glyph d="M318 -307l72 307h-328l230 999h134l-207 -898h523l207 898h134l-229 -999h-330l-71 -307h-135z" glyph-name="afii10193" horiz-adv-x="1146" unicode="џ"/><glyph d="M246 0l255 1106h-291l27 117h290l44 189h137l-44 -189h375l-26 -117h-376l-73 -316h258q218 0 323.5 -107.5t60.5 -300.5q-41 -181 -190.5 -281.5t-368.5 -100.5h-401zM411 129h259q167 0 271 72t135 206q29 124 -40.5 188.5t-235.5 64.5h-266z" glyph-name="afii10146" horiz-adv-x="1326" unicode="Ѣ"/><glyph d="M61 0l268 1160h-203l20 91h203l38 161h134l-38 -161h289l-20 -91h-289l-110 -475h195q213 0 298 -88t43 -271q-77 -326 -491 -326h-337zM221 116h196q131 0 218.5 58t114.5 176q26 114 -31 166.5t-191 52.5h-202z" glyph-name="afii10194" horiz-adv-x="998" unicode="ѣ"/><glyph d="M1069 -15q-102 0 -185.5 24.5t-140 69t-97.5 106t-58 134.5t-20.5 155t13.5 169h-189l-147 -643h-137l325 1413h137l-149 -643h188q40 137 108.5 254t164 209t225.5 144.5t279 52.5q209 0 334.5 -105.5t158.5 -291.5l-135 -40q-15 149 -110 227t-263 78 q-121 0 -226.5 -42.5t-182 -116.5t-131.5 -167t-87 -202h650l-29 -127h-650q-12 -89 -10.5 -168t27 -145t69 -113.5t116 -74t167.5 -26.5q337 0 531 317l115 -62q-117 -184 -286.5 -285t-374.5 -101z" glyph-name="uni0464" horiz-adv-x="1854" unicode="Ѥ"/><glyph d="M846 -15q-133 0 -224 63t-125.5 166.5t-14.5 230.5h-183l-102 -445h-135l230 999h134l-104 -452h182q60 203 213 334.5t351 131.5q136 0 229 -72t124 -193l-131 -39q-19 86 -80.5 132.5t-155.5 46.5q-142 0 -257 -98t-159 -243h388l-22 -102h-390q-22 -150 43 -242.5 t202 -92.5q96 0 184.5 50.5t147.5 136.5l109 -57q-82 -121 -201.5 -188t-252.5 -67z" glyph-name="uni0465" horiz-adv-x="1432" unicode="ѥ"/><glyph d="M946 1413l234 -1413h-147l-78 517h-201l-119 -517h-137l118 517h-199l-316 -517h-151l885 1413h111zM492 636h444l-87 587z" glyph-name="uni0466" horiz-adv-x="1359" unicode="Ѧ"/><glyph d="M647 999l152 -999h-127l-39 308h-152l-70 -308h-97l71 308h-149l-183 -308h-132l614 999h112zM290 407h335l-65 443z" glyph-name="uni0467" horiz-adv-x="950" unicode="ѧ"/><glyph d="M1426 1413l234 -1413h-147l-77 517h-202l-119 -517h-137l119 517h-200l-315 -517h-152l322 517h-388l-119 -517h-137l325 1413h137l-179 -777h437l487 777h111zM972 636h444l-87 587z" glyph-name="uni0468" horiz-adv-x="1839" unicode="Ѩ"/><glyph d="M1064 999l151 -999h-126l-39 308h-152l-71 -308h-96l71 308h-150l-182 -308h-132l262 428h-305l-98 -428h-135l230 999h134l-109 -470h345l289 470h113zM707 407h334l-64 443z" glyph-name="uni0469" horiz-adv-x="1367" unicode="ѩ"/><glyph d="M1614 1413l-28 -127l-447 -473q179 -18 211 -234l90 -579h-149l-66 527q-26 205 -173 205h-109l-168 -732h-145l168 732h-101q-146 0 -274 -215l-307 -517h-161l357 589q126 208 311 227l-216 470l27 127h1180zM992 834l417 452h-834l210 -452h207z" glyph-name="uni046A" horiz-adv-x="1623" unicode="Ѫ"/><glyph d="M-65 0l273 450q20 32 36 53.5t42 49t58.5 42.5t70.5 17l-160 286l21 101h1019l-21 -101l-299 -286q36 -2 61.5 -19t39.5 -46t20 -52t11 -56l70 -439h-155l-48 394q-8 61 -32.5 93.5t-89.5 32.5h-117l-120 -520h-116l119 520h-110q-65 0 -107.5 -36.5t-77.5 -99.5 l-229 -384h-159zM580 624h238l288 274h-682z" glyph-name="uni046B" horiz-adv-x="1339" unicode="ѫ"/><glyph d="M108 0l325 1413h137l-134 -579h644l-210 452l28 127h1180l-28 -127l-431 -459q83 -2 131.5 -72.5t63.5 -175.5l90 -579h-150l-66 527q-26 205 -174 205h-108l-168 -732h-145l168 732h-101q-146 0 -274 -215l-307 -517h-160l357 589q55 94 119 121h-487l-163 -710h-137z M1249 834h207l417 452h-834z" glyph-name="uni046C" horiz-adv-x="2087" unicode="Ѭ"/><glyph d="M1680 999l-21 -101l-299 -286q29 -2 51.5 -14.5t35.5 -28.5t23 -42.5t14 -43.5t8 -44l70 -439h-155l-48 394q-8 61 -32.5 93.5t-89.5 32.5h-117l-120 -520h-116l120 520h-111q-65 0 -107.5 -36.5t-77.5 -99.5l-229 -384h-158l272 450q31 50 50 68h-327l-119 -518h-135 l230 999h134l-86 -375h457l-157 274l22 101h1018zM1203 624l288 274h-682l156 -274h238z" glyph-name="uni046D" horiz-adv-x="1724" unicode="ѭ"/><glyph d="M653 -15q-125 0 -221.5 35.5t-156.5 100.5t-93.5 156.5t-31.5 202.5t29 239q36 155 106 284t169.5 224t232 148t285.5 53q126 0 222.5 -35.5t157 -100.5t94 -156t32 -202.5t-28.5 -239.5q-36 -155 -106.5 -284t-170 -224t-233 -148t-286.5 -53zM333 759h986 q46 257 -43.5 402t-317.5 145q-232 0 -393.5 -148t-231.5 -399zM667 108q124 0 229.5 43t181.5 120t130 173.5t86 211.5h-985q-16 -93 -17 -175t22.5 -150.5t66.5 -118t116 -77t170 -27.5z" glyph-name="afii10147" horiz-adv-x="1532" unicode="Ѳ"/><glyph d="M466 -15q-141 0 -238.5 69.5t-133 190t-2.5 266.5q50 212 219 356t377 144q142 0 240.5 -70t134.5 -190t2 -265q-50 -212 -220 -356.5t-379 -144.5zM247 549h687q24 154 -45.5 250t-212.5 96q-147 0 -265 -98.5t-164 -247.5zM478 100q146 0 265 99t166 247h-687 q-22 -155 46 -250.5t210 -95.5z" glyph-name="afii10195" horiz-adv-x="1158" unicode="ѳ"/><glyph d="M437 0l-185 1413h149l137 -1192l475 788q126 208 243 299t257 105l-20 -128q-93 -19 -180 -97t-180 -232l-589 -956h-107z" glyph-name="afii10148" horiz-adv-x="1348" unicode="Ѵ"/><glyph d="M309 0l-158 999h142l108 -826l265 450q121 205 222 284t230 93l-22 -126q-83 -11 -150 -70.5t-154 -206.5l-371 -597h-112z" glyph-name="afii10196" horiz-adv-x="1040" unicode="ѵ"/><glyph d="M664 -15q-109 0 -196.5 27t-147 76t-99.5 116.5t-56 150t-12.5 174t26.5 190.5q26 115 74.5 219t120.5 194t161.5 155.5t204.5 103t242 37.5q109 0 197 -27t148 -76t99.5 -116.5t56 -150t13 -174t-26.5 -190.5q-26 -115 -74.5 -219t-120.5 -194t-161.5 -155.5t-205 -103 t-243.5 -37.5zM677 108q130 0 241.5 48.5t191.5 133.5t135.5 193.5t85.5 235.5q22 97 24 182.5t-19.5 160.5t-66.5 128.5t-121.5 84.5t-178.5 31q-130 0 -241 -48.5t-191 -134t-135.5 -194t-84.5 -235.5q-22 -97 -24 -182.5t19.5 -160t66 -128.5t120.5 -84.5t178 -30.5z M1623 -428l272 440l-197 987h144l157 -832l500 832h147l-877 -1427h-146z" glyph-name="uni0478" horiz-adv-x="2567" unicode="Ѹ"/><glyph d="M461 -15q-141 0 -237.5 70.5t-130 191t-0.5 267.5q50 213 216.5 357t374.5 144q141 0 238 -70t132 -190.5t2 -265.5q-25 -104 -82 -196.5t-134.5 -160.5t-176.5 -107.5t-202 -39.5zM1174 -428l272 440l-197 987h144l157 -832l500 832h147l-877 -1427h-146zM473 100 q161 0 285.5 119t165.5 295q39 165 -28.5 275t-223.5 110q-160 0 -283 -117t-164 -293q-39 -167 27 -278t221 -111z" glyph-name="uni0479" horiz-adv-x="2118" unicode="ѹ"/><glyph d="M-724 1559l66 281h696l34 147h135l-63 -273h-699l-37 -155h-132z" glyph-name="uni0483" horiz-adv-x="0" unicode="҃"/><glyph d="M108 0l325 1413h629l72 307h137l-101 -434h-628l-297 -1286h-137z" glyph-name="afii10050" horiz-adv-x="1050" unicode="Ґ"/><glyph d="M62 0l230 999h418l71 308h134l-94 -409h-418l-206 -898h-135z" glyph-name="afii10098" horiz-adv-x="756" unicode="ґ"/><glyph d="M1315 1286h-684l-112 -478h357l-27 -117h-356l-159 -691h-137l158 691h-243l26 117h244l140 605h821z" glyph-name="uni0492" horiz-adv-x="1194" unicode="Ғ"/><glyph d="M62 0l230 999h577l-22 -101h-444l-206 -898h-135z" glyph-name="uni0493" horiz-adv-x="780" unicode="ғ"/><glyph d="M1647 594l72 -500h97l-77 -332h-131l55 238h-77l-74 557q-15 117 -57.5 157t-139.5 40h-229l-173 -754h-135l173 754h-222q-95 0 -159 -44t-134 -163l-328 -547h-150l358 604q69 114 139.5 174.5t157.5 79.5l-245 552l156 6l242 -537h214l124 534h135l-124 -534h212 l490 537l158 -6l-509 -558q79 -19 122.5 -82t58.5 -176z" glyph-name="uni0496" horiz-adv-x="1919" unicode="Җ"/><glyph d="M1269 439l54 -345h109l-77 -332h-131l55 238h-95l-48 394q-5 32 -11 51.5t-20 41t-41 31.5t-67 10h-174l-122 -528h-132l122 528h-168q-75 0 -121 -38.5t-85 -105.5l-228 -384h-159l273 450q99 159 226 163l-208 386h151l185 -370h157l85 370h132l-85 -370h154l356 370 h158l-396 -386q121 -4 151 -174z" glyph-name="uni0497" horiz-adv-x="1499" unicode="җ"/><glyph d="M976 594l72 -500h106l-77 -332h-131l55 238h-86l-73 557q-15 118 -58 157.5t-140 39.5h-228l-173 -754h-135l325 1413h135l-124 -534h212l490 537l159 -6l-509 -558q78 -19 121.5 -82t58.5 -176z" glyph-name="uni049A" horiz-adv-x="1251" unicode="Қ"/><glyph d="M761 439l54 -345h108l-77 -332h-131l55 238h-94l-48 394q-5 32 -11 51.5t-20 41t-41 31.5t-67 10h-174l-121 -528h-133l326 1413h132l-181 -784h155l355 370h159l-397 -386q124 -4 151 -174z" glyph-name="uni049B" horiz-adv-x="997" unicode="қ"/><glyph d="M1449 1413l-304 -1319h67l-77 -332h-131l55 238h-73l149 647h-742l-148 -647h-137l325 1413h137l-148 -639h741l149 639h137z" glyph-name="uni04A2" horiz-adv-x="1460" unicode="Ң"/><glyph d="M1083 999l-207 -905h70l-77 -332h-131l55 238h-73l115 501h-524l-114 -501h-135l230 999h134l-91 -397h523l91 397h134z" glyph-name="uni04A3" horiz-adv-x="1146" unicode="ң"/><glyph d="M474 0l125 540l-336 873h157l269 -739l616 739h176l-740 -873l-125 -540h-142z" glyph-name="uni04AE" horiz-adv-x="1322" unicode="Ү"/><glyph d="M323 0l101 435l-257 564h150l196 -443l400 443h159l-517 -564l-101 -435h-131z" glyph-name="uni04AF" horiz-adv-x="1010" unicode="ү"/><glyph d="M741 540l-23 -101h300l-26 -116h-301l-75 -323h-142l75 323h-294l26 116h295l23 101l-336 873h157l269 -739l616 739h176z" glyph-name="uni04B0" horiz-adv-x="1322" unicode="Ұ"/><glyph d="M555 435l-23 -100h298l-26 -116h-299l-51 -219h-131l51 219h-307l26 116h308l23 100l-257 564h150l196 -443l400 443h159z" glyph-name="uni04B1" horiz-adv-x="986" unicode="ұ"/><glyph d="M805 713l284 -619h120l-77 -332h-131l55 238h-74l-282 629l-574 -629h-168l660 713l-321 700h152l272 -622l565 622h166z" glyph-name="uni04B2" horiz-adv-x="1321" unicode="Ҳ"/><glyph d="M796 91l1 3h110l-82 -352h-110l60 258h-92l-198 410l-387 -410h-166l485 502l-249 497h157l198 -406l386 406h167l-485 -497z" glyph-name="uni04B3" horiz-adv-x="1047" unicode="ҳ"/><glyph d="M1317 1413l-304 -1319h70l-77 -332h-131l55 238h-76l128 547q-146 -121 -365 -121q-109 0 -187.5 28t-124 78.5t-66 124t-17 160.5t28.5 192l93 404h137l-93 -400q-57 -233 -1 -343.5t247 -110.5q124 0 222.5 44t160.5 115l163 695h137z" glyph-name="uni04B6" horiz-adv-x="1328" unicode="Ҷ"/><glyph d="M1011 999l-208 -905h70l-77 -332h-131l55 238h-73l99 425q-64 -89 -154 -135.5t-193 -46.5q-86 0 -147.5 30.5t-91.5 84t-38.5 125t11.5 154.5l83 362h134l-81 -351q-32 -137 7 -208t157 -71q128 0 233.5 86.5t134.5 214.5l76 329h134z" glyph-name="uni04B7" horiz-adv-x="1073" unicode="ҷ"/><glyph d="M570 1413l-128 -547q146 121 365 121q135 0 224 -43t127.5 -120.5t43 -184.5t-28.5 -235l-93 -404h-137l93 400q57 232 1 343t-247 111q-124 0 -222.5 -44t-160.5 -115l-163 -695h-137l326 1413h137z" glyph-name="uni04BA" horiz-adv-x="1328" unicode="Һ"/><glyph d="M61 0l326 1413h134l-136 -579q67 89 157.5 135t189.5 46q87 0 148.5 -30t91.5 -82.5t38.5 -123t-11.5 -151.5l-144 -628h-134l139 607q68 287 -171 287q-133 0 -231.5 -91.5t-132.5 -237.5l-129 -565h-135z" glyph-name="uni04BB" horiz-adv-x="1120" unicode="һ"/><glyph d="M108 0l325 1413h137l-325 -1413h-137z" glyph-name="uni04C0" horiz-adv-x="582" unicode="Ӏ"/><glyph d="M62 0l326 1412h132l-325 -1412h-133z" glyph-name="uni04CF" horiz-adv-x="486" unicode="ӏ"/><glyph d="M653 -15q-125 0 -221.5 35.5t-156.5 100.5t-93.5 156.5t-31.5 202.5t29 239q4 20 12 45h1128q46 254 -43.5 398t-317.5 144q-279 0 -458 -220l-108 76q230 266 580 266q126 0 222.5 -35.5t157 -100.5t94 -156t32 -202.5t-28.5 -239.5q-36 -155 -106.5 -284t-170 -224 t-233 -148t-286.5 -53zM667 108q124 0 229.5 43t181.5 120.5t130 175t86 215.5l-985 -11q-16 -92 -17 -173t22.5 -149t66.5 -117t116 -76.5t170 -27.5z" glyph-name="uni04D8" horiz-adv-x="1532" unicode="Ә"/><glyph d="M577 1014q191 0 284.5 -98t93.5 -277q0 -98 -27 -194t-79 -178.5t-123 -146t-166 -100t-201 -36.5q-157 0 -242.5 74.5t-85.5 182.5q0 62 30 110.5t86.5 80.5t126.5 54t162.5 33.5t182 16t195.5 4.5q8 53 8 99q0 255 -258 255q-89 0 -165.5 -32.5t-155.5 -99.5l-77 91 q100 83 198 122t213 39zM364 97q150 0 260.5 94t161.5 241q-55 0 -90.5 -1t-99 -3t-107.5 -8t-100.5 -14.5t-94.5 -23t-73 -34t-52.5 -47.5t-17.5 -62q0 -63 58.5 -102.5t154.5 -39.5z" glyph-name="afii10846" horiz-adv-x="1037" unicode="ә"/><glyph d="M977 1622l47 205h113l-47 -205h-113zM1340 1622l47 205h113l-47 -205h-113zM-42 0l358 604q69 114 139.5 174.5t157.5 79.5l-245 552l156 6l242 -537h214l124 534h135l-124 -534h212l490 537l158 -6l-509 -558q79 -19 122.5 -82t58.5 -176l85 -594h-146l-74 557 q-15 117 -57.5 157t-139.5 40h-229l-173 -754h-135l173 754h-222q-95 0 -159 -44t-134 -163l-328 -547h-150z" glyph-name="uni04DC" horiz-adv-x="1919" unicode="Ӝ"/><glyph d="M1269 1715l-19 -82h-548l19 82h548zM1269 1413h144l-327 -1413h-131l275 1192l-976 -1192h-146l327 1413h130l-273 -1191z" glyph-name="uni04E2" horiz-adv-x="1424" unicode="Ӣ"/><glyph d="M449 1220l19 82h548l-19 -82h-548zM385 -15q-170 0 -235 108t-29 279l144 627h131l-139 -607q-32 -137 12.5 -210.5t163.5 -73.5q131 0 227.5 81t130.5 225l134 585h131l-230 -999h-131l40 166q-66 -89 -158 -135t-192 -46z" glyph-name="uni04E3" horiz-adv-x="1118" unicode="ӣ"/><glyph d="M653 -15q-125 0 -221.5 35.5t-156.5 100.5t-93.5 156.5t-31.5 202.5t29 239q36 155 106 284t169.5 224t232 148t285.5 53q126 0 222.5 -35.5t157 -100.5t94 -156t32 -202.5t-28.5 -239.5q-36 -155 -106.5 -284t-170 -224t-233 -148t-286.5 -53zM333 759h986 q46 257 -43.5 402t-317.5 145q-232 0 -393.5 -148t-231.5 -399zM667 108q124 0 229.5 43t181.5 120t130 173.5t86 211.5h-985q-16 -93 -17 -175t22.5 -150.5t66.5 -118t116 -77t170 -27.5z" glyph-name="uni04E8" horiz-adv-x="1532" unicode="Ө"/><glyph d="M466 -15q-141 0 -238.5 69.5t-133 190t-2.5 266.5q50 212 219 356t377 144q142 0 240.5 -70t134.5 -190t2 -265q-50 -212 -220 -356.5t-379 -144.5zM247 549h687q24 154 -45.5 250t-212.5 96q-147 0 -265 -98.5t-164 -247.5zM478 100q146 0 265 99t166 247h-687 q-22 -155 46 -250.5t210 -95.5z" glyph-name="uni04E9" horiz-adv-x="1158" unicode="ө"/><glyph d="M529 1634l19 82h548l-19 -82h-548zM208 0l263 426l-196 987h144l156 -832l501 832h147l-869 -1413h-146z" glyph-name="uni04EE" horiz-adv-x="1076" unicode="Ӯ"/><glyph d="M399 1220l19 82h548l-19 -82h-548zM71 -428l272 440l-197 987h144l157 -832l500 832h147l-877 -1427h-146z" glyph-name="uni04EF" horiz-adv-x="1015" unicode="ӯ"/><glyph d="M867 1622l47 205h113l-47 -205h-113zM1230 1622l47 205h113l-47 -205h-113zM108 0l325 1413h136l-143 -623h258q218 0 323 -107.5t61 -300.5q-41 -181 -190.5 -281.5t-368.5 -100.5h-401zM1201 0l326 1413h137l-326 -1413h-137zM272 129h259q168 0 272 72t135 206 q29 124 -40.5 188.5t-235.5 64.5h-267z" glyph-name="uni04F8" horiz-adv-x="1675" unicode="Ӹ"/><glyph d="M1185 1515l-190 296h120l149 -296h-79zM369 -1l-82 1414h141l61 -1217l633 1141h112l104 -1141l625 1217h145l-733 -1414h-139l-104 1122l-624 -1122h-139z" glyph-name="Wgrave" horiz-adv-x="1973" unicode="Ẁ"/><glyph d="M843 1117l-190 296h120l149 -296h-79zM226 -2l-60 1001h140l33 -800l454 800h121l81 -799l407 799h142l-521 -999h-126l-83 817l-463 -819h-125z" glyph-name="wgrave" horiz-adv-x="1481" unicode="ẁ"/><glyph d="M1161 1525l285 286h144l-325 -286h-104zM369 -1l-82 1414h141l61 -1217l633 1141h112l104 -1141l625 1217h145l-733 -1414h-139l-104 1122l-624 -1122h-139z" glyph-name="Wacute" horiz-adv-x="1973" unicode="Ẃ"/><glyph d="M819 1127l285 286h144l-325 -286h-104zM226 -2l-60 1001h140l33 -800l454 800h121l81 -799l407 799h142l-521 -999h-126l-83 817l-463 -819h-125z" glyph-name="wacute" horiz-adv-x="1481" unicode="ẃ"/><glyph d="M1008 1606l47 205h113l-47 -205h-113zM1371 1606l47 205h113l-47 -205h-113zM369 -1l-82 1414h141l61 -1217l633 1141h112l104 -1141l625 1217h145l-733 -1414h-139l-104 1122l-624 -1122h-139z" glyph-name="Wdieresis" horiz-adv-x="1973" unicode="Ẅ"/><glyph d="M666 1208l47 205h113l-47 -205h-113zM1029 1208l47 205h113l-47 -205h-113zM226 -2l-60 1001h140l33 -800l454 800h121l81 -799l407 799h142l-521 -999h-126l-83 817l-463 -819h-125z" glyph-name="wdieresis" horiz-adv-x="1481" unicode="ẅ"/><glyph d="M1347 2239l-325 -286h-104l285 286h144zM583 1526l373 319l230 -319h-108l-144 201l-238 -201h-113zM803 1413h115l198 -1413h-138l-43 341h-624l-198 -341h-161zM380 460h540l-97 761z" glyph-name="uni1EA4" horiz-adv-x="1297" unicode="Ấ"/><glyph d="M778 1540l285 286h144l-325 -286h-104zM443 1113l373 319l230 -319h-108l-144 201l-238 -201h-113zM429 -15q-100 0 -176 41.5t-116.5 113t-53.5 168t14 205.5q50 212 204.5 357t348.5 145q121 0 204 -65t104 -175l53 224h135l-230 -999h-123l47 223 q-72 -112 -181.5 -175t-229.5 -63zM472 105q156 0 276.5 115.5t160.5 292.5q40 165 -25 273t-215 108q-156 0 -279 -115.5t-163 -290.5q-38 -166 28 -274.5t217 -108.5z" glyph-name="uni1EA5" horiz-adv-x="1208" unicode="ấ"/><glyph d="M1021 1943h-79l-190 296h120zM934 1727l-238 -201h-113l373 319l230 -319h-108zM803 1413h115l198 -1413h-138l-43 341h-624l-198 -341h-161zM380 460h540l-97 761z" glyph-name="uni1EA6" horiz-adv-x="1297" unicode="Ầ"/><glyph d="M802 1530l-190 296h120l149 -296h-79zM443 1113l373 319l230 -319h-108l-144 201l-238 -201h-113zM429 -15q-100 0 -176 41.5t-116.5 113t-53.5 168t14 205.5q50 212 204.5 357t348.5 145q121 0 204 -65t104 -175l53 224h135l-230 -999h-123l47 223q-72 -112 -181.5 -175 t-229.5 -63zM472 105q156 0 276.5 115.5t160.5 292.5q40 165 -25 273t-215 108q-156 0 -279 -115.5t-163 -290.5q-38 -166 28 -274.5t217 -108.5z" glyph-name="uni1EA7" horiz-adv-x="1208" unicode="ầ"/><glyph d="M1286 2233l81 -10q-28 -118 -89 -184t-140 -66q-40 0 -69.5 13.5t-44.5 33t-29 43t-24 43t-28 32.5t-43 13q-50 1 -90.5 -44.5t-57.5 -121.5l-77 11q26 115 88 178t145 62q44 0 74.5 -18t46.5 -44t29.5 -52t34.5 -44.5t50 -18.5q45 0 85 48t58 126zM583 1526l373 319 l230 -319h-108l-144 201l-238 -201h-113zM803 1413h115l198 -1413h-138l-43 341h-624l-198 -341h-161zM380 460h540l-97 761z" glyph-name="uni1EAA" horiz-adv-x="1297" unicode="Ẫ"/><glyph d="M998 1560q-40 0 -69.5 13.5t-44.5 33t-29 43t-24 43t-28 32.5t-43 13q-50 1 -90.5 -44.5t-57.5 -121.5l-77 11q26 115 88 178t145 62q44 0 74.5 -18t46.5 -44t29.5 -52t34.5 -44.5t50 -18.5q45 0 85 48t58 126l81 -10q-28 -118 -89 -184t-140 -66zM443 1113l373 319 l230 -319h-108l-144 201l-238 -201h-113zM429 -15q-100 0 -176 41.5t-116.5 113t-53.5 168t14 205.5q50 212 204.5 357t348.5 145q121 0 204 -65t104 -175l53 224h135l-230 -999h-123l47 223q-72 -112 -181.5 -175t-229.5 -63zM472 105q156 0 276.5 115.5t160.5 292.5 q40 165 -25 273t-215 108q-156 0 -279 -115.5t-163 -290.5q-38 -166 28 -274.5t217 -108.5z" glyph-name="uni1EAB" horiz-adv-x="1208" unicode="ẫ"/><glyph d="M1347 2240l-325 -286h-104l285 286h144zM913 1643q100 0 164.5 48t84.5 135h96q-60 -265 -350 -265q-155 0 -221 69.5t-36 195.5h92q-21 -92 25.5 -137.5t144.5 -45.5zM803 1413h115l198 -1413h-138l-43 341h-624l-198 -341h-161zM380 460h540l-97 761z" glyph-name="uni1EAE" horiz-adv-x="1297" unicode="Ắ"/><glyph d="M778 1541l285 286h144l-325 -286h-104zM768 1148q-155 0 -221 69.5t-36 195.5h92q-21 -92 25.5 -137.5t144.5 -45.5q100 0 164.5 48t84.5 135h96q-60 -265 -350 -265zM429 -15q-100 0 -176 41.5t-116.5 113t-53.5 168t14 205.5q50 212 204.5 357t348.5 145q121 0 204 -65 t104 -175l53 224h135l-230 -999h-123l47 223q-72 -112 -181.5 -175t-229.5 -63zM472 105q156 0 276.5 115.5t160.5 292.5q40 165 -25 273t-215 108q-156 0 -279 -115.5t-163 -290.5q-38 -166 28 -274.5t217 -108.5z" glyph-name="uni1EAF" horiz-adv-x="1208" unicode="ắ"/><glyph d="M1021 1944h-79l-190 296h120zM1162 1826h96q-60 -265 -350 -265q-155 0 -221 69.5t-36 195.5h92q-21 -92 25.5 -137.5t144.5 -45.5q100 0 164.5 48t84.5 135zM803 1413h115l198 -1413h-138l-43 341h-624l-198 -341h-161zM380 460h540l-97 761z" glyph-name="uni1EB0" horiz-adv-x="1297" unicode="Ằ"/><glyph d="M802 1531l-190 296h120l149 -296h-79zM768 1148q-155 0 -221 69.5t-36 195.5h92q-21 -92 25.5 -137.5t144.5 -45.5q100 0 164.5 48t84.5 135h96q-60 -265 -350 -265zM429 -15q-100 0 -176 41.5t-116.5 113t-53.5 168t14 205.5q50 212 204.5 357t348.5 145q121 0 204 -65 t104 -175l53 224h135l-230 -999h-123l47 223q-72 -112 -181.5 -175t-229.5 -63zM472 105q156 0 276.5 115.5t160.5 292.5q40 165 -25 273t-215 108q-156 0 -279 -115.5t-163 -290.5q-38 -166 28 -274.5t217 -108.5z" glyph-name="uni1EB1" horiz-adv-x="1208" unicode="ằ"/><glyph d="M1286 2234l81 -10q-28 -118 -89 -184t-140 -66q-40 0 -69.5 13.5t-44.5 33t-29 43t-24 43t-28 32.5t-43 13q-50 1 -90.5 -44.5t-57.5 -121.5l-77 11q26 115 88 178t145 62q44 0 74.5 -18t46.5 -44t29.5 -52t34.5 -44.5t50 -18.5q45 0 85 48t58 126zM913 1643 q100 0 164.5 48t84.5 135h96q-60 -265 -350 -265q-155 0 -221 69.5t-36 195.5h92q-21 -92 25.5 -137.5t144.5 -45.5zM803 1413h115l198 -1413h-138l-43 341h-624l-198 -341h-161zM380 460h540l-97 761z" glyph-name="uni1EB4" horiz-adv-x="1297" unicode="Ẵ"/><glyph d="M998 1561q-40 0 -69.5 13.5t-44.5 33t-29 43t-24 43t-28 32.5t-43 13q-50 1 -90.5 -44.5t-57.5 -121.5l-77 11q26 115 88 178t145 62q44 0 74.5 -18t46.5 -44t29.5 -52t34.5 -44.5t50 -18.5q45 0 85 48t58 126l81 -10q-28 -118 -89 -184t-140 -66zM768 1148 q-155 0 -221 69.5t-36 195.5h92q-21 -92 25.5 -137.5t144.5 -45.5q100 0 164.5 48t84.5 135h96q-60 -265 -350 -265zM429 -15q-100 0 -176 41.5t-116.5 113t-53.5 168t14 205.5q50 212 204.5 357t348.5 145q121 0 204 -65t104 -175l53 224h135l-230 -999h-123l47 223 q-72 -112 -181.5 -175t-229.5 -63zM472 105q156 0 276.5 115.5t160.5 292.5q40 165 -25 273t-215 108q-156 0 -279 -115.5t-163 -290.5q-38 -166 28 -274.5t217 -108.5z" glyph-name="uni1EB5" horiz-adv-x="1208" unicode="ẵ"/><glyph d="M1079 1560q-40 0 -69.5 13.5t-44.5 33t-29 43t-24 43t-28 32.5t-43 13q-50 1 -90.5 -44.5t-57.5 -121.5l-77 11q26 115 88 178t145 62q44 0 74.5 -18t46.5 -44t29.5 -52t34.5 -44.5t50 -18.5q45 0 85 48t58 126l81 -10q-28 -118 -89 -184t-140 -66zM108 0l325 1413h924 l-29 -127h-786l-120 -513h707l-28 -127h-708l-119 -516h787l-30 -130h-923z" glyph-name="uni1EBC" horiz-adv-x="1268" unicode="Ẽ"/><glyph d="M594 1325q-50 1 -90.5 -44.5t-57.5 -121.5l-77 11q26 115 88 178t145 62q44 0 74.5 -18t46.5 -44t29.5 -52t34.5 -44.5t50 -18.5q45 0 85 48t58 126l81 -10q-28 -118 -89 -184t-140 -66q-40 0 -69.5 13.5t-44.5 33t-29 43t-24 43t-28 32.5t-43 13zM678 1015 q157 0 242.5 -74.5t85.5 -182.5q0 -62 -30 -110.5t-86.5 -80.5t-126.5 -54t-162.5 -33.5t-182 -16t-195.5 -4.5q-8 -53 -8 -99q0 -255 258 -255q89 0 165.5 32.5t155.5 99.5l77 -91q-100 -83 -198 -122t-213 -39q-191 0 -284.5 98t-93.5 277q0 98 27 194t79 178.5t123 146 t166 100t201 36.5zM251 567q55 0 90.5 1t99 3t107.5 8t100.5 14.5t94.5 23t73 34t52.5 47.5t17.5 62q0 63 -58.5 102.5t-154.5 39.5q-150 0 -260.5 -94t-161.5 -241z" glyph-name="uni1EBD" horiz-adv-x="1037" unicode="ẽ"/><glyph d="M955 1953l285 286h144l-325 -286h-104zM620 1526l373 319l230 -319h-108l-144 201l-238 -201h-113zM108 0l325 1413h924l-29 -127h-786l-120 -513h707l-28 -127h-708l-119 -516h787l-30 -130h-923z" glyph-name="uni1EBE" horiz-adv-x="1268" unicode="Ế"/><glyph d="M1137 1826l-325 -286h-104l285 286h144zM724 1314l-238 -201h-113l373 319l230 -319h-108zM678 1015q157 0 242.5 -74.5t85.5 -182.5q0 -62 -30 -110.5t-86.5 -80.5t-126.5 -54t-162.5 -33.5t-182 -16t-195.5 -4.5q-8 -53 -8 -99q0 -255 258 -255q89 0 165.5 32.5 t155.5 99.5l77 -91q-100 -83 -198 -122t-213 -39q-191 0 -284.5 98t-93.5 277q0 98 27 194t79 178.5t123 146t166 100t201 36.5zM251 567q55 0 90.5 1t99 3t107.5 8t100.5 14.5t94.5 23t73 34t52.5 47.5t17.5 62q0 63 -58.5 102.5t-154.5 39.5q-150 0 -260.5 -94 t-161.5 -241z" glyph-name="uni1EBF" horiz-adv-x="1037" unicode="ế"/><glyph d="M979 1943l-190 296h120l149 -296h-79zM620 1526l373 319l230 -319h-108l-144 201l-238 -201h-113zM108 0l325 1413h924l-29 -127h-786l-120 -513h707l-28 -127h-708l-119 -516h787l-30 -130h-923z" glyph-name="uni1EC0" horiz-adv-x="1268" unicode="Ề"/><glyph d="M811 1530h-79l-190 296h120zM724 1314l-238 -201h-113l373 319l230 -319h-108zM1006 758q0 -62 -30 -110.5t-86.5 -80.5t-126.5 -54t-162.5 -33.5t-182 -16t-195.5 -4.5q-8 -53 -8 -99q0 -255 258 -255q89 0 165.5 32.5t155.5 99.5l77 -91q-100 -83 -198 -122t-213 -39 q-191 0 -284.5 98t-93.5 277q0 98 27 194t79 178.5t123 146t166 100t201 36.5q157 0 242.5 -74.5t85.5 -182.5zM673 902q-150 0 -260.5 -94t-161.5 -241q55 0 90.5 1t99 3t107.5 8t100.5 14.5t94.5 23t73 34t52.5 47.5t17.5 62q0 63 -58.5 102.5t-154.5 39.5z" glyph-name="uni1EC1" horiz-adv-x="1037" unicode="ề"/><glyph d="M1175 1973q-40 0 -69.5 13.5t-44.5 33t-29 43t-24 43t-28 32.5t-43 13q-50 1 -90.5 -44.5t-57.5 -121.5l-77 11q26 115 88 178t145 62q44 0 74.5 -18t46.5 -44t29.5 -52t34.5 -44.5t50 -18.5q45 0 85 48t58 126l81 -10q-28 -118 -89 -184t-140 -66zM620 1526l373 319 l230 -319h-108l-144 201l-238 -201h-113zM108 0l325 1413h924l-29 -127h-786l-120 -513h707l-28 -127h-708l-119 -516h787l-30 -130h-923z" glyph-name="uni1EC4" horiz-adv-x="1268" unicode="Ễ"/><glyph d="M1076 1820l81 -10q-28 -118 -89 -184t-140 -66q-40 0 -69.5 13.5t-44.5 33t-29 43t-24 43t-28 32.5t-43 13q-50 1 -90.5 -44.5t-57.5 -121.5l-77 11q26 115 88 178t145 62q44 0 74.5 -18t46.5 -44t29.5 -52t34.5 -44.5t50 -18.5q45 0 85 48t58 126zM868 1113l-144 201 l-238 -201h-113l373 319l230 -319h-108zM678 1015q157 0 242.5 -74.5t85.5 -182.5q0 -62 -30 -110.5t-86.5 -80.5t-126.5 -54t-162.5 -33.5t-182 -16t-195.5 -4.5q-8 -53 -8 -99q0 -255 258 -255q89 0 165.5 32.5t155.5 99.5l77 -91q-100 -83 -198 -122t-213 -39 q-191 0 -284.5 98t-93.5 277q0 98 27 194t79 178.5t123 146t166 100t201 36.5zM251 567q55 0 90.5 1t99 3t107.5 8t100.5 14.5t94.5 23t73 34t52.5 47.5t17.5 62q0 63 -58.5 102.5t-154.5 39.5q-150 0 -260.5 -94t-161.5 -241z" glyph-name="uni1EC5" horiz-adv-x="1037" unicode="ễ"/><glyph d="M1045 1953l285 286h144l-325 -286h-104zM710 1526l373 319l230 -319h-108l-144 201l-238 -201h-113zM664 -15q-109 0 -196.5 27t-147 76t-99.5 116.5t-56 150t-12.5 174t26.5 190.5q26 115 74.5 219t120.5 194t161.5 155.5t204.5 103t242 37.5q109 0 197 -27t148 -76 t99.5 -116.5t56 -150t13 -174t-26.5 -190.5q-26 -115 -74.5 -219t-120.5 -194t-161.5 -155.5t-205 -103t-243.5 -37.5zM677 108q130 0 241.5 48.5t191.5 133.5t135.5 193.5t85.5 235.5q22 97 24 182.5t-19.5 160.5t-66.5 128.5t-121.5 84.5t-178.5 31q-130 0 -241 -48.5 t-191 -134t-135.5 -194t-84.5 -235.5q-22 -97 -24 -182.5t19.5 -160t66 -128.5t120.5 -84.5t178 -30.5z" glyph-name="uni1ED0" horiz-adv-x="1552" unicode="Ố"/><glyph d="M747 1540l285 286h144l-325 -286h-104zM412 1113l373 319l230 -319h-108l-144 201l-238 -201h-113zM461 -15q-141 0 -237.5 70.5t-130 191t-0.5 267.5q50 213 216.5 357t374.5 144q141 0 238 -70t132 -190.5t2 -265.5q-25 -104 -82 -196.5t-134.5 -160.5t-176.5 -107.5 t-202 -39.5zM473 100q161 0 285.5 119t165.5 295q39 165 -28.5 275t-223.5 110q-160 0 -283 -117t-164 -293q-39 -167 27 -278t221 -111z" glyph-name="uni1ED1" unicode="ố"/><glyph d="M1069 1943l-190 296h120l149 -296h-79zM710 1526l373 319l230 -319h-108l-144 201l-238 -201h-113zM664 -15q-109 0 -196.5 27t-147 76t-99.5 116.5t-56 150t-12.5 174t26.5 190.5q26 115 74.5 219t120.5 194t161.5 155.5t204.5 103t242 37.5q109 0 197 -27t148 -76 t99.5 -116.5t56 -150t13 -174t-26.5 -190.5q-26 -115 -74.5 -219t-120.5 -194t-161.5 -155.5t-205 -103t-243.5 -37.5zM677 108q130 0 241.5 48.5t191.5 133.5t135.5 193.5t85.5 235.5q22 97 24 182.5t-19.5 160.5t-66.5 128.5t-121.5 84.5t-178.5 31q-130 0 -241 -48.5 t-191 -134t-135.5 -194t-84.5 -235.5q-22 -97 -24 -182.5t19.5 -160t66 -128.5t120.5 -84.5t178 -30.5z" glyph-name="uni1ED2" horiz-adv-x="1552" unicode="Ồ"/><glyph d="M771 1530l-190 296h120l149 -296h-79zM412 1113l373 319l230 -319h-108l-144 201l-238 -201h-113zM461 -15q-141 0 -237.5 70.5t-130 191t-0.5 267.5q50 213 216.5 357t374.5 144q141 0 238 -70t132 -190.5t2 -265.5q-25 -104 -82 -196.5t-134.5 -160.5t-176.5 -107.5 t-202 -39.5zM473 100q161 0 285.5 119t165.5 295q39 165 -28.5 275t-223.5 110q-160 0 -283 -117t-164 -293q-39 -167 27 -278t221 -111z" glyph-name="uni1ED3" unicode="ồ"/><glyph d="M1265 1973q-40 0 -69.5 13.5t-44.5 33t-29 43t-24 43t-28 32.5t-43 13q-50 1 -90.5 -44.5t-57.5 -121.5l-77 11q26 115 88 178t145 62q44 0 74.5 -18t46.5 -44t29.5 -52t34.5 -44.5t50 -18.5q45 0 85 48t58 126l81 -10q-28 -118 -89 -184t-140 -66zM710 1526l373 319 l230 -319h-108l-144 201l-238 -201h-113zM664 -15q-109 0 -196.5 27t-147 76t-99.5 116.5t-56 150t-12.5 174t26.5 190.5q26 115 74.5 219t120.5 194t161.5 155.5t204.5 103t242 37.5q109 0 197 -27t148 -76t99.5 -116.5t56 -150t13 -174t-26.5 -190.5q-26 -115 -74.5 -219 t-120.5 -194t-161.5 -155.5t-205 -103t-243.5 -37.5zM677 108q130 0 241.5 48.5t191.5 133.5t135.5 193.5t85.5 235.5q22 97 24 182.5t-19.5 160.5t-66.5 128.5t-121.5 84.5t-178.5 31q-130 0 -241 -48.5t-191 -134t-135.5 -194t-84.5 -235.5q-22 -97 -24 -182.5t19.5 -160 t66 -128.5t120.5 -84.5t178 -30.5z" glyph-name="uni1ED6" horiz-adv-x="1552" unicode="Ỗ"/><glyph d="M967 1560q-40 0 -69.5 13.5t-44.5 33t-29 43t-24 43t-28 32.5t-43 13q-50 1 -90.5 -44.5t-57.5 -121.5l-77 11q26 115 88 178t145 62q44 0 74.5 -18t46.5 -44t29.5 -52t34.5 -44.5t50 -18.5q45 0 85 48t58 126l81 -10q-28 -118 -89 -184t-140 -66zM412 1113l373 319 l230 -319h-108l-144 201l-238 -201h-113zM461 -15q-141 0 -237.5 70.5t-130 191t-0.5 267.5q50 213 216.5 357t374.5 144q141 0 238 -70t132 -190.5t2 -265.5q-25 -104 -82 -196.5t-134.5 -160.5t-176.5 -107.5t-202 -39.5zM473 100q161 0 285.5 119t165.5 295 q39 165 -28.5 275t-223.5 110q-160 0 -283 -117t-164 -293q-39 -167 27 -278t221 -111z" glyph-name="uni1ED7" unicode="ỗ"/><glyph d="M856 1530l-190 296h120l149 -296h-79zM474 0l125 540l-336 873h157l269 -739l616 739h176l-740 -873l-125 -540h-142z" glyph-name="Ygrave" horiz-adv-x="1322" unicode="Ỳ"/><glyph d="M603 1117l-190 296h120l149 -296h-79zM71 -428l272 440l-197 987h144l157 -832l500 832h147l-877 -1427h-146z" glyph-name="ygrave" horiz-adv-x="1015" unicode="ỳ"/><glyph d="M1052 1560q-40 0 -69.5 13.5t-44.5 33t-29 43t-24 43t-28 32.5t-43 13q-50 1 -90.5 -44.5t-57.5 -121.5l-77 11q26 115 88 178t145 62q44 0 74.5 -18t46.5 -44t29.5 -52t34.5 -44.5t50 -18.5q45 0 85 48t58 126l81 -10q-28 -118 -89 -184t-140 -66zM474 0l125 540 l-336 873h157l269 -739l616 739h176l-740 -873l-125 -540h-142z" glyph-name="uni1EF8" horiz-adv-x="1322" unicode="Ỹ"/><glyph d="M799 1147q-40 0 -69.5 13.5t-44.5 33t-29 43t-24 43t-28 32.5t-43 13q-50 1 -90.5 -44.5t-57.5 -121.5l-77 11q26 115 88 178t145 62q44 0 74.5 -18t46.5 -44t29.5 -52t34.5 -44.5t50 -18.5q45 0 85 48t58 126l81 -10q-28 -118 -89 -184t-140 -66zM71 -428l272 440 l-197 987h144l157 -832l500 832h147l-877 -1427h-146z" glyph-name="uni1EF9" horiz-adv-x="1015" unicode="ỹ"/><glyph d="M183 571l25 103h724l-25 -103h-724z" glyph-name="endash" horiz-adv-x="1058" unicode="–"/><glyph d="M113 571l24 103h2048l-24 -103h-2048z" glyph-name="emdash" horiz-adv-x="2241" unicode="—"/><glyph d="M183 571l25 103h1215l-24 -103h-1216z" glyph-name="afii00208" horiz-adv-x="1549" unicode="―"/><glyph d="M441 836l-135 577h139l76 -577h-80z" glyph-name="quoteleft" horiz-adv-x="563" unicode="‘"/><glyph d="M197 836l342 577h153l-401 -577h-94z" glyph-name="quoteright" horiz-adv-x="575" unicode="’"/><glyph d="M-54 -315l342 577h153l-401 -577h-94z" glyph-name="quotesinglbase" horiz-adv-x="563" unicode="‚"/><glyph d="M441 836l-135 577h139l76 -577h-80zM779 836l-135 577h139l76 -577h-80z" glyph-name="quotedblleft" horiz-adv-x="901" unicode="“"/><glyph d="M197 836l342 577h153l-401 -577h-94zM535 836l342 577h153l-401 -577h-94z" glyph-name="quotedblright" horiz-adv-x="913" unicode="”"/><glyph d="M-69 -315l342 577h154l-401 -577h-95zM280 -315l342 577h153l-401 -577h-94z" glyph-name="quotedblbase" horiz-adv-x="924" unicode="„"/><glyph d="M196 -205l250 1092h-249l28 121h250l93 405h121l-93 -405h249l-29 -121h-249l-251 -1092h-120z" glyph-name="dagger" horiz-adv-x="835" unicode="†"/><glyph d="M233 -205l94 405h-250l27 121h250l130 566h-250l29 121h250l93 405h121l-93 -405h249l-29 -121h-249l-130 -566h249l-28 -121h-249l-93 -405h-121z" glyph-name="daggerdbl" horiz-adv-x="910" unicode="‡"/><glyph d="M422 244q-98 0 -168 69.5t-70 167.5t70 168t168 70t167.5 -70t69.5 -168t-69.5 -167.5t-167.5 -69.5z" glyph-name="bullet" horiz-adv-x="849" unicode="•"/><glyph d="M180 202l138 607l460 -303z" glyph-name="uni2023" horiz-adv-x="889" unicode="‣"/><glyph d="M129 0l50 220h133l-50 -220h-133zM543 0l50 220h133l-50 -220h-133z" glyph-name="twodotenleader" horiz-adv-x="1034" unicode="‥"/><glyph d="M129 0l50 220h133l-50 -220h-133zM543 0l50 220h133l-50 -220h-133zM956 0l51 220h133l-50 -220h-134z" glyph-name="ellipsis" horiz-adv-x="1448" unicode="…"/><glyph d="M479 792q-66 0 -113 28t-68.5 74.5t-27.5 106t11 121.5q29 124 116.5 215t207.5 91t175 -93.5t23 -237.5q-32 -133 -122.5 -219t-201.5 -86zM199 0l1121 1413h98l-1120 -1413h-99zM486 884q77 0 141.5 66.5t88.5 170.5q21 91 -8.5 153t-108.5 62q-87 0 -148.5 -70 t-82.5 -168q-11 -39 -9 -77.5t13.5 -69t41 -49t72.5 -18.5zM1015 -15q-66 0 -113.5 28.5t-68.5 75t-27 105.5t11 121q29 124 116.5 215.5t208.5 91.5q118 0 173.5 -94t22.5 -238q-31 -133 -121.5 -219t-201.5 -86zM1639 -15q-53 0 -94 18.5t-65.5 50t-37 74t-12.5 90 t12 97.5q29 124 116 215.5t208 91.5q119 0 174.5 -94t22.5 -238q-31 -133 -122 -219t-202 -86zM1021 77q77 0 142 66.5t89 170.5q21 91 -8.5 153t-108.5 62q-86 0 -148 -70t-84 -168q-11 -39 -8.5 -77.5t13.5 -69t40.5 -49t72.5 -18.5zM1646 77q77 0 141.5 66.5t89.5 170.5 q11 59 5.5 107t-38 78t-85.5 30q-86 0 -148 -70.5t-83 -167.5q-11 -39 -9 -77.5t13.5 -69t41 -49t72.5 -18.5z" glyph-name="perthousand" horiz-adv-x="2148" unicode="‰"/><glyph d="M479 792q-66 0 -113 28t-68.5 74.5t-27.5 106t11 121.5q29 124 116.5 215t207.5 91t175 -93.5t23 -237.5q-32 -133 -122.5 -219t-201.5 -86zM199 0l1121 1413h98l-1120 -1413h-99zM486 884q77 0 141.5 66.5t88.5 170.5q21 91 -8.5 153t-108.5 62q-87 0 -148.5 -70 t-82.5 -168q-11 -39 -9 -77.5t13.5 -69t41 -49t72.5 -18.5zM1015 -15q-66 0 -113.5 28.5t-68.5 75t-27 105.5t11 121q29 124 116.5 215.5t208.5 91.5q118 0 173.5 -94t22.5 -238q-31 -133 -121.5 -219t-201.5 -86zM1639 -15q-53 0 -94 18.5t-65.5 50t-37 74t-12.5 90 t12 97.5q29 124 116 215.5t208 91.5q119 0 174.5 -94t22.5 -238q-31 -133 -122 -219t-202 -86zM2264 -15q-66 0 -113 28.5t-68.5 75t-27.5 105.5t11 121q29 124 116.5 215.5t208.5 91.5q119 0 174.5 -94t22.5 -238q-31 -133 -122 -219t-202 -86zM1021 77q77 0 142 66.5 t89 170.5q21 91 -8.5 153t-108.5 62q-86 0 -148 -70t-84 -168q-11 -39 -8.5 -77.5t13.5 -69t40.5 -49t72.5 -18.5zM1646 77q77 0 141.5 66.5t89.5 170.5q11 59 5.5 107t-38 78t-85.5 30q-86 0 -148 -70.5t-83 -167.5q-11 -39 -9 -77.5t13.5 -69t41 -49t72.5 -18.5zM2270 77 q77 0 142 66.5t90 170.5q20 92 -9.5 153.5t-108.5 61.5q-86 0 -148 -70t-84 -168q-11 -39 -8.5 -77.5t13.5 -69t40.5 -49t72.5 -18.5z" glyph-name="uni2031" horiz-adv-x="2773" unicode="‱"/><glyph d="M388 170l-318 341l473 341l-26 -119l-309 -222l205 -222z" glyph-name="guilsinglleft" horiz-adv-x="610" unicode="‹"/><glyph d="M72 170l24 119l310 222l-204 222l24 119l318 -341z" glyph-name="guilsinglright" horiz-adv-x="611" unicode="›"/><glyph d="M-271 0l794 1413h97l-795 -1413h-96z" glyph-name="fraction" horiz-adv-x="287" unicode="⁄"/><glyph d="M714 -15q-108 0 -188 39.5t-125.5 110.5t-65 162t-13.5 201l-175 -5l72 100l110 5q6 43 23 121q9 38 33 117l-161 -6l74 104l124 5q96 224 251.5 357.5t356.5 133.5q119 0 205 -52t133 -148l-96 -60q-69 140 -254 140q-159 0 -282 -105t-194 -276l531 5l-72 -101l-501 -6 q-24 -68 -36 -125q-16 -64 -21 -110l552 5l-71 -100l-485 -5q-13 -180 58 -284t230 -104q179 0 319 143l66 -87q-173 -175 -398 -175z" glyph-name="Euro" horiz-adv-x="1342" unicode="€"/><glyph d="M1412 1050v-62h-170q-45 -176 -193.5 -273t-362.5 -97h-256l-142 -618h-136l227 988h-108v62h123l83 363h385q202 0 308.5 -96t83.5 -267h158zM584 1284l-55 -234h590q18 113 -53 173.5t-227 60.5h-255zM708 748q156 0 257 61.5t139 178.5h-589l-56 -240h249z" glyph-name="uni20B1" horiz-adv-x="1419" unicode="₱"/><glyph d="M102 0l185 310h-150l28 119h195l121 204h-269l27 119h317l397 661h115l90 -661h319l-27 -119h-271l26 -204h198l-28 -119h-151l43 -310h-147l-39 310h-646l-180 -310h-153zM697 752h328l-54 469zM507 429h559l-25 204h-415z" glyph-name="uni20B3" horiz-adv-x="1602" unicode="₳"/><glyph d="M1198 908h194l-22 -97h-1126l21 97h747q112 72 136 178q22 95 -35 157.5t-165 62.5q-197 0 -337 -181l-99 81q177 222 445 222q173 0 266 -102.5t56 -269.5q-19 -81 -81 -148zM183 550l22 96h1126l-21 -96h-775q-117 -76 -143 -191q-26 -112 45.5 -180.5t210.5 -68.5 q137 0 248 72.5t169 201.5l127 -41q-52 -114 -141 -195.5t-197.5 -121t-227.5 -39.5q-195 0 -301.5 106.5t-68.5 275.5q25 103 111 181h-184z" glyph-name="uni20B4" horiz-adv-x="1476" unicode="₴"/><glyph d="M348 1298l27 114h1123l-27 -114h-1123zM543 0l226 983h-494l26 114h1123l-25 -114h-493l-226 -983h-137z" glyph-name="uni20B8" horiz-adv-x="1451" unicode="₸"/><glyph d="M239 0l71 314h-182l25 109h182l48 206h-182l26 119h183l154 665h385q217 0 322.5 -110t60.5 -303q-42 -181 -189.5 -276t-367.5 -95h-256l-48 -206h324l-25 -109h-324l-71 -314h-136zM546 748h249q168 0 271.5 71.5t134.5 205.5q30 124 -40.5 191.5t-234.5 67.5h-255z " glyph-name="uni20BD" horiz-adv-x="1371" unicode="₽"/><glyph d="M1281 1413h132l-326 -1413h-144l-427 1199l-276 -1199h-132l325 1413h144l428 -1193zM1980 1184q179 0 268 -129t46 -316q-42 -179 -183.5 -301.5t-316.5 -122.5q-119 0 -200 60t-109.5 162t0.5 227q41 177 181 298.5t314 121.5zM2185 764q32 138 -25 230.5t-188 92.5 q-136 0 -241 -99.5t-139 -248.5q-32 -141 23.5 -234.5t185.5 -93.5q138 0 244 101t140 252zM1329 0l23 102h747l-22 -102h-748z" glyph-name="afii61352" horiz-adv-x="2366" unicode="№"/><glyph d="M418 877v456h-157v80h398v-80h-155v-456h-86zM767 877v536h140l131 -375l131 375h137v-536h-86v443l-154 -408h-55l-158 413v-448h-86z" glyph-name="trademark" horiz-adv-x="1496" unicode="™"/><glyph d="M43 0l26 112h404l13 32q-138 91 -194.5 257t-13.5 354q25 108 90.5 218t153.5 191q108 89 242.5 142t255.5 53q125 0 236.5 -58.5t170.5 -155.5q56 -73 73.5 -185.5t-9.5 -232.5q-44 -192 -172 -354t-298 -239l-9 -26h396l-25 -108h-540l34 165q176 40 313 199t189 387 q21 89 11 179.5t-48 153.5q-54 75 -145 118.5t-188 43.5q-104 0 -217.5 -49t-200.5 -131q-70 -57 -124.5 -148.5t-77.5 -191.5q-48 -207 13.5 -359.5t214.5 -204.5l-33 -162h-541z" glyph-name="uni2126" horiz-adv-x="1658" unicode="Ω"/><glyph d="M996 89l-860 550l1110 546l26 -89l-821 -406l1769 -2l-25 -102l-1771 2l637 -410z" glyph-name="arrowleft" horiz-adv-x="2296" unicode="←"/><glyph d="M1113 89l-26 89l824 410l-1772 -2l25 102l1771 2l-637 406l65 89l862 -546z" glyph-name="arrowright" horiz-adv-x="2296" unicode="→"/><glyph d="M479 -11q-202 0 -293 128t-43 334q58 249 251 409t421 160q67 0 118.5 -23t82.5 -62.5t48.5 -83t25.5 -95.5q25 75 33 151q66 420 -242 420q-106 0 -202 -50.5t-159 -153.5l-92 42q79 126 202 193.5t269 67.5q123 0 204.5 -48t119.5 -139t38 -217.5t-37 -287.5 q-36 -153 -103 -286.5t-160 -236.5t-217.5 -162.5t-264.5 -59.5zM498 103q94 0 180.5 34.5t153 94t117 133t81.5 157.5q21 65 23 130.5t-17.5 124.5t-75 96t-140.5 37q-203 0 -357.5 -139t-202.5 -344q-34 -150 33.5 -237t204.5 -87z" glyph-name="partialdiff" horiz-adv-x="1351" unicode="∂"/><glyph d="M-8 0l910 1461l239 -1461h-1149zM183 113h822l-162 1071z" glyph-name="uni2206" horiz-adv-x="1364" unicode="∆"/><glyph d="M166 0l300 1300h-107l26 113h992l-25 -113h-106l-300 -1300h-112l300 1300h-555l-300 -1300h-113z" glyph-name="product" horiz-adv-x="1341" unicode="∏"/><glyph d="M1385 1413l-28 -126h-854l422 -580l-684 -581h848l-29 -126h-1049l19 90l715 617l-428 616l20 90h1048z" glyph-name="summation" horiz-adv-x="1310" unicode="∑"/><glyph d="M274 578l25 102h716l-25 -102h-716z" glyph-name="minus" horiz-adv-x="1230" unicode="−"/><glyph d="M380 -134l-109 692h-150l25 113h229l74 -515l804 1257h124z" glyph-name="radical" horiz-adv-x="1270" unicode="√"/><glyph d="M542 356q-171 0 -255 110t-45 276q36 156 164 258.5t293 102.5q122 0 219.5 -76.5t159.5 -204.5q281 281 514 281q171 0 255 -109.5t45 -275.5q-36 -156 -164 -259t-293 -103q-122 0 -220.5 76t-168.5 206q-124 -133 -254.5 -207.5t-249.5 -74.5zM566 465q96 0 210 70.5 t229 204.5q-51 126 -130.5 190t-169.5 64q-123 0 -223 -78t-128 -198q-25 -111 35.5 -182t176.5 -71zM1428 465q124 0 224 78.5t128 198.5q25 110 -35.5 181t-177.5 71q-99 0 -215.5 -73.5t-232.5 -200.5q56 -120 135.5 -187.5t173.5 -67.5z" glyph-name="infinity" horiz-adv-x="2029" unicode="∞"/><glyph d="M-127 -475l19 113q175 0 268.5 70.5t130.5 231.5l276 1197q30 130 129 214.5t216 84.5q116 0 199 -85l-85 -80q-53 52 -125 52q-76 0 -140.5 -56t-83.5 -145l-278 -1196q-91 -401 -526 -401z" glyph-name="integral" horiz-adv-x="1007" unicode="∫"/><glyph d="M859 713q-50 0 -86 18.5t-53.5 46.5t-33.5 60t-28.5 60t-37 46.5t-59.5 18.5q-65 0 -115 -56.5t-72 -151.5l-100 10q31 134 110 212t183 78q45 0 79 -14t53.5 -36t34 -48.5t26 -53t24 -48.5t33 -36t49.5 -14q63 0 118 64.5t78 165.5l99 -10q-32 -141 -114.5 -226.5 t-187.5 -85.5zM758 270q-60 0 -99 26t-57.5 62.5t-34 73t-42 62.5t-67.5 26q-64 0 -114 -56.5t-73 -151.5l-99 11q32 134 110.5 211.5t182.5 77.5q61 0 101.5 -26t59.5 -62.5t34.5 -73t40 -62.5t62.5 -26q64 0 118.5 65t77.5 166l100 -10q-32 -142 -114.5 -227.5 t-186.5 -85.5z" glyph-name="approxequal" horiz-adv-x="1255" unicode="≈"/><glyph d="M30 0l328 419h-181l28 113h248l219 279h-404l26 114h472l385 488h98l-383 -488h213l-25 -114h-284l-218 -279h438l-27 -113h-505l-329 -419h-99z" glyph-name="notequal" horiz-adv-x="1181" unicode="≠"/><glyph d="M1092 232l-863 565l1119 564l31 -88l-943 -476l724 -476zM-81 -102l49 102h1015l-48 -102h-1016z" glyph-name="lessequal" horiz-adv-x="1357" unicode="≤"/><glyph d="M133 232l-32 89l943 476l-723 476l68 88l862 -564zM132 -102l-1 102h1013v-102h-1012z" glyph-name="greaterequal" horiz-adv-x="1343" unicode="≥"/><glyph d="M381 0l-214 707l538 706h192l212 -706l-536 -707h-192zM476 74h31l470 633l-175 632h-31l-472 -632z" glyph-name="lozenge" horiz-adv-x="1182" unicode="◊"/><glyph d="M972 -61q-158 0 -301 61t-247 165t-165 247t-61 301t61 301t165 247t247 165t301 61t301 -61t247 -165t165 -247t61 -301t-61 -301t-165 -247t-247 -165t-301 -61zM972 10q143 0 273 55.5t224 149.5t149.5 224.5t55.5 273.5t-55.5 273t-149.5 224t-224 149.5t-273 55.5 t-273.5 -55.5t-224.5 -149.5t-149.5 -224t-55.5 -273q0 -191 94 -353t256 -256t353 -94zM568 410q-14 0 -24 9.5t-10 24.5v537q0 15 10 26t24 11q16 0 26.5 -11t10.5 -26v-537q0 -15 -10.5 -24.5t-26.5 -9.5zM972 410q-16 0 -25.5 9.5t-9.5 24.5v537q0 15 10 26t25 11 t25 -11t10 -26v-537q0 -15 -10 -24.5t-25 -9.5zM1373 410q-15 0 -22 10l-271 268q-8 11 -8 25q0 16 8 24l272 269q8 12 21 12q14 0 25.5 -11.5t11.5 -25.5t-10 -25l-244 -243l244 -244q10 -10 10 -25q0 -13 -11.5 -23.5t-25.5 -10.5zM703 678q-15 0 -24.5 9.5t-9.5 25.5 q0 15 9.5 25t24.5 10h134q15 0 25.5 -10t10.5 -25t-10.5 -25t-25.5 -10h-134z" glyph-name="uniF8FF" horiz-adv-x="1845" unicode=""/><glyph d="M337 1208l47 205h138l-47 -205h-138zM62 0l230 999h132l-229 -999h-133z" glyph-name="i.locl" horiz-adv-x="486"/><glyph d="M440 0l297 1289h-493l28 124h1225l-136 -579q67 89 157.5 135t189.5 46q170 0 236.5 -108t30.5 -279l-144 -628h-134l139 607q68 287 -171 287q-133 0 -232 -91.5t-133 -237.5l-129 -565h-134l297 1289h-460l-296 -1289h-138z" glyph-name="T_h.dlig" horiz-adv-x="2096"/><glyph d="M865 -15q-135 0 -189.5 78t-21.5 222l139 602h-368l-204 -887h-132l204 887h-166l26 112h165l22 88q39 170 150.5 255.5t259.5 85.5q172 0 277 -82l-78 -347h281l-26 -112h-280l-138 -591q-23 -103 5 -148.5t107 -45.5q57 0 126 26l-19 -125q-59 -18 -140 -18zM451 999 h369l69 277q-50 44 -144 44q-221 0 -276 -245z" glyph-name="f_t.dlig" horiz-adv-x="1193"/><glyph d="M411 -15q-147 0 -207.5 78t-27.5 222l138 602h-183l26 112h185l66 289l152 97l-89 -386h459l65 289l151 97l-89 -386h315l-25 -112h-316l-137 -591q-23 -103 10.5 -148.5t125.5 -45.5q65 0 136 26l-19 -125q-63 -18 -149 -18q-147 0 -207 78t-27 222l138 602h-457 l-137 -591q-23 -103 10.5 -148.5t124.5 -45.5q63 0 136 26l-20 -125q-63 -18 -148 -18z" glyph-name="t_t.dlig" horiz-adv-x="1335"/><glyph d="M1221 123h117l-83 -363h-137l56 240h-1090l-55 -240h-138l83 363h115l809 1290h112zM241 123h833l-166 1080z" glyph-name="afii10021.locl" horiz-adv-x="1485"/><glyph d="M-118 -273l91 395l140 5q74 66 135 157t103 195t68.5 192t50.5 191l127 550h835l-298 -1290h149l-91 -395h-137l63 273h-1035l-64 -272zM265 117l731 5l269 1163h-560l-101 -432q-25 -109 -48.5 -191.5t-63.5 -188.5t-97.5 -196.5t-129.5 -159.5z" glyph-name="afii10021.locl" horiz-adv-x="1467"/><glyph d="M1269 1413h144l-327 -1413h-131l275 1192l-976 -1192h-146l327 1413h130l-273 -1191z" glyph-name="glyph616" horiz-adv-x="1424"/><glyph d="M1180 0h-143l-187 1204l-741 -1204h-159l883 1413h112z" glyph-name="afii10029.locl" horiz-adv-x="1359"/><glyph d="M136 -15q-96 0 -176 54l64 111q42 -30 102 -30q42 0 80 20t72 65t62.5 93t58 128t50.5 144t48 168.5t43.5 173t43.5 183.5l72 318h811l-325 -1413h-137l297 1286h-537l-60 -254q-89 -387 -143 -552q-119 -361 -284 -457q-66 -38 -142 -38z" glyph-name="afii10029.locl" horiz-adv-x="1479"/><glyph d="M1054 -15q-102 0 -185.5 24.5t-140.5 69t-97.5 106t-57.5 135t-20.5 156.5t13.5 170h-174l-147 -646h-137l325 1412h137l-149 -639h174q39 136 107.5 251.5t164 207t226 144t279.5 52.5q130 0 228.5 -39.5t157.5 -108t88.5 -162t29 -200t-27.5 -224.5q-26 -113 -73 -216 t-118 -193.5t-159 -156.5t-202 -104.5t-242 -38.5zM1067 108q104 0 196.5 32.5t163 89t127.5 134.5t95 166.5t61 188.5q22 95 25 180t-17 160t-63.5 129.5t-118.5 86t-177 31.5q-130 0 -240 -49.5t-187.5 -136t-131 -193.5t-82.5 -233q-22 -95 -25 -179.5t16.5 -160 t62.5 -129.5t118 -85.5t177 -31.5z" glyph-name="afii10048.aalt" horiz-adv-x="1932"/><glyph d="M470 -13q-214 0 -320.5 145t-56.5 365q12 52 33.5 103t57.5 105t82.5 100.5t112.5 88.5t144 70q-191 82 -155 248q23 98 112.5 157t221.5 59q175 0 337 -93l-63 -116q-62 46 -136.5 70.5t-133.5 24.5q-83 0 -139.5 -38.5t-72.5 -107.5q-14 -54 27 -94t130 -75 q55 -20 96.5 -36.5t89 -39.5t81.5 -47t67.5 -54.5t53.5 -66t33 -78t12.5 -94t-14.5 -110.5q-49 -215 -217.5 -350.5t-382.5 -135.5zM484 100q87 0 165 34t134 90.5t94.5 125.5t55.5 143q9 38 9 72.5t-6.5 62t-21 52.5t-30 43.5t-40 37t-44.5 30.5t-49.5 26t-49 22t-49 19.5 t-43.5 17.5q-78 -18 -144.5 -60t-112.5 -98.5t-76.5 -118t-45.5 -125.5q-19 -75 -10 -143t38.5 -119t88 -81.5t137.5 -30.5z" glyph-name="afii10066.aalt" horiz-adv-x="1177"/><glyph d="M492 -15q-215 0 -314 121t-45 354l120 516q104 452 562 452q186 0 280 -98t56 -267q-23 -96 -88 -166t-155 -112q213 -78 145 -369q-48 -207 -199 -319t-362 -112zM506 109q162 0 271.5 88.5t146.5 251.5q32 137 -23.5 206.5t-197.5 69.5q-115 0 -220 -62l24 129 q78 51 211 51q115 0 197.5 63.5t107.5 170.5t-33.5 166.5t-186.5 59.5q-75 0 -138 -18t-120.5 -58.5t-101 -115t-67.5 -180.5l-110 -473q-79 -349 240 -349z" glyph-name="afii10067.locl" horiz-adv-x="1178"/><glyph d="M62 0l230 999h410q170 0 249 -74.5t46 -196.5q-18 -73 -66 -127.5t-120 -77.5q76 -17 114.5 -81t11.5 -178q-33 -144 -144.5 -204t-314.5 -60h-416zM330 578h344q79 5 128.5 42.5t64.5 102.5q18 71 -26.5 110.5t-139.5 39.5h-304zM224 124h296q128 0 198.5 38t89.5 129 q17 81 -20.5 123t-135.5 46h-350z" glyph-name="afii10067.locl" horiz-adv-x="1096"/><glyph d="M338 -15q-120 0 -200 49.5t-98 133.5t31 194q33 68 91 114.5t121 66.5t133.5 37t130 29.5t109 42t70.5 75.5q38 80 -10 130.5t-150 50.5q-88 0 -165 -46.5t-129 -117.5l-89 68q74 97 174.5 150t215.5 53q177 0 256 -99t9 -244q-27 -57 -72.5 -95.5t-98 -58t-110 -32 t-114 -23t-106 -25t-89.5 -44t-61 -73.5q-43 -96 6.5 -160.5t164.5 -64.5q108 0 201 58.5t142 146.5l94 -59q-67 -117 -191 -187t-266 -70z" glyph-name="afii10068.locl" horiz-adv-x="928"/><glyph d="M62 0l230 999h577l-22 -101h-444l-206 -898h-135z" glyph-name="afii10068.locl" horiz-adv-x="780"/><glyph d="M346 -465q-150 0 -245.5 69.5t-131.5 186.5l113 65q21 -92 93 -148t184 -56q151 0 268 104t158 280l45 191q-71 -109 -178.5 -170.5t-225.5 -61.5q-100 0 -176 41.5t-116.5 112.5t-53.5 166t14 203q49 208 203 352.5t348 144.5q121 0 204 -65t104 -175l54 224h133 l-226 -973q-51 -225 -206 -358t-362 -133zM470 118q156 0 276 113t160 287q38 162 -27 269t-215 107q-156 0 -279.5 -114.5t-161.5 -285.5q-38 -162 29 -269t218 -107z" glyph-name="afii10069.locl" horiz-adv-x="1197"/><glyph d="M-161 -307l94 408l107 4q92 80 148.5 191.5t90.5 261.5l101 441h710l-207 -898h109l-94 -408h-134l72 307h-791l-72 -307h-134zM179 97l570 4l184 797h-441l-81 -348q-36 -154 -90 -265.5t-142 -187.5z" glyph-name="afii10069.locl" horiz-adv-x="1176"/><glyph d="M-61 0l272 450q99 158 226 163l-208 386h151l185 -370h157l181 783h132l-181 -783h155l355 370h159l-397 -386q124 -4 151 -174l70 -439h-155l-48 394q-4 32 -10.5 52t-20.5 41t-40.5 31t-66.5 10h-175l-121 -528h-132l121 528h-168q-75 0 -120.5 -38.5t-84.5 -105.5 l-229 -384h-158z" glyph-name="afii10072.locl" horiz-adv-x="1513"/><glyph d="M-61 0l272 450q99 158 226 163l-208 386h151l185 -370h157l85 370h132l-85 -370h155l355 370h159l-397 -386q124 -4 151 -174l70 -439h-155l-48 394q-4 32 -10.5 52t-20.5 41t-40.5 31t-66.5 10h-175l-121 -528h-132l121 528h-168q-75 0 -120.5 -38.5t-84.5 -105.5 l-229 -384h-158z" glyph-name="afii10072.locl" horiz-adv-x="1513"/><glyph d="M209 -451q-127 0 -219.5 56.5t-137.5 155.5l125 74q29 -77 91.5 -119.5t153.5 -42.5q162 0 278.5 98.5t152.5 252.5q30 129 -16.5 203.5t-171.5 77.5h-228l26 118h224q60 0 109 21.5t81 58.5t52 78t31 87q25 101 -34.5 159t-183.5 58q-100 0 -183.5 -46.5t-161.5 -146.5 l-113 72q95 133 208 190t263 57q180 0 275.5 -96.5t58.5 -261.5q-14 -56 -40 -106.5t-82 -102.5t-131 -78q213 -77 146 -375q-46 -196 -204.5 -319t-368.5 -123z" glyph-name="afii10073.locl" horiz-adv-x="994"/><glyph d="M380 -15q-284 0 -386 210l127 73q66 -163 282 -163q126 0 213 53.5t102 146.5q11 68 -35 105t-148 37h-102l28 118h96q112 0 173 43t75 115q13 78 -47 124.5t-173 46.5q-202 0 -345 -166l-111 79q179 208 464 208q166 0 263 -71t82 -196q-9 -97 -69 -153.5t-167 -84.5 q169 -37 149 -203q-10 -101 -78 -175t-170 -110.5t-223 -36.5z" glyph-name="afii10073.locl" horiz-adv-x="1012"/><glyph d="M385 -15q-170 0 -235 108t-29 279l144 627h131l-139 -607q-32 -137 12.5 -210.5t163.5 -73.5q131 0 227.5 81t130.5 225l134 585h131l-230 -999h-131l40 166q-66 -89 -158 -135t-192 -46z" glyph-name="afii10074.locl" horiz-adv-x="1118"/><glyph d="M972 999h153l-229 -999h-134l188 819l-733 -819h-155l230 999h134l-190 -822z" glyph-name="afii10074.locl" horiz-adv-x="1188"/><glyph d="M720 1148q-155 0 -221 69.5t-36 195.5h92q-21 -92 25.5 -137.5t144.5 -45.5q100 0 164.5 48t84.5 135h96q-60 -265 -350 -265zM385 -15q-170 0 -235 108t-29 279l144 627h131l-139 -607q-32 -137 12.5 -210.5t163.5 -73.5q131 0 227.5 81t130.5 225l134 585h131 l-230 -999h-131l40 166q-66 -89 -158 -135t-192 -46z" glyph-name="afii10075.locl" horiz-adv-x="1118"/><glyph d="M759 1148q-155 0 -221 69.5t-36 195.5h92q-21 -92 25.5 -137.5t144.5 -45.5q100 0 164.5 48t84.5 135h96q-60 -265 -350 -265zM972 999h153l-229 -999h-134l188 819l-733 -819h-155l230 999h134l-190 -822z" glyph-name="afii10075.locl" horiz-adv-x="1188"/><glyph d="M658 1117l-190 296h120l149 -296h-79zM385 -15q-170 0 -235 108t-29 279l144 627h131l-139 -607q-32 -137 12.5 -210.5t163.5 -73.5q131 0 227.5 81t130.5 225l134 585h131l-230 -999h-131l40 166q-66 -89 -158 -135t-192 -46z" glyph-name="uni045D.locl" horiz-adv-x="1118"/><glyph d="M776 1117h-79l-190 296h120zM972 999h153l-229 -999h-134l188 819l-733 -819h-155l230 999h134l-190 -822z" glyph-name="uni045D.locl" horiz-adv-x="1188"/><glyph d="M61 0l326 1413h132l-181 -784h155l355 370h159l-397 -386q124 -4 151 -174l69 -439h-154l-48 394q-5 32 -11 51.5t-20 41t-41 31.5t-67 10h-174l-121 -528h-133z" glyph-name="afii10076.locl" horiz-adv-x="997"/><glyph d="M62 0l230 999h132l-85 -370h155l355 370h159l-397 -386q124 -4 151 -174l69 -439h-154l-48 394q-5 32 -11 51.5t-20 41t-41 31.5t-67 10h-174l-121 -528h-133z" glyph-name="afii10076.locl" horiz-adv-x="998"/><glyph d="M850 0h-143l-129 837l-513 -837h-147l638 999h115z" glyph-name="afii10077.locl" horiz-adv-x="997"/><glyph d="M67 -15q-72 0 -158 39l48 84q39 -17 78 -17q47 0 87 36.5t74 111t62 167.5t58 226l84 367h669l-229 -999h-134l206 898h-400l-78 -336q-70 -302 -156.5 -439.5t-210.5 -137.5z" glyph-name="afii10077.locl" horiz-adv-x="1132"/><glyph d="M62 0l230 999h132l-40 -165q67 89 158.5 135t190.5 46q170 0 235.5 -108t29.5 -279l-144 -628h-132l139 607q32 138 -12.5 211.5t-163.5 73.5q-131 0 -227 -81t-129 -225l-134 -586h-133z" glyph-name="afii10081.locl" horiz-adv-x="1119"/><glyph d="M62 0l230 999h791l-229 -999h-134l207 898h-524l-206 -898h-135z" glyph-name="afii10081.locl" horiz-adv-x="1146"/><glyph d="M62 0l229 999h128l-40 -169q123 185 338 185q115 0 184.5 -56.5t76.5 -164.5q70 110 167 165.5t210 55.5q175 0 235.5 -117.5t15.5 -318.5l-133 -579h-133l133 573q39 155 2 236.5t-159 81.5q-125 0 -221.5 -86t-126.5 -218l-134 -587h-133l141 609q65 282 -164 282 q-126 0 -222.5 -85.5t-126.5 -218.5l-134 -587h-133z" glyph-name="afii10084.locl" horiz-adv-x="1737"/><glyph d="M265 0l207 898h-354l22 101h844l-22 -101h-356l-207 -898h-134z" glyph-name="afii10084.locl" horiz-adv-x="895"/><glyph d="M753 -312l72 301q-53 18 -74 69t-14 113q-66 -92 -156.5 -139.5t-193.5 -47.5q-86 0 -147.5 30.5t-91.5 84t-38.5 125.5t11.5 154l143 621h134l-140 -610q-66 -279 163 -279q128 0 234 86.5t135 214.5l135 588h134l-175 -761q-18 -77 1 -121.5t83 -63.5l-103 -365h-112z " glyph-name="afii10088.locl" horiz-adv-x="1141"/><glyph d="M730 -307l72 307h-740l230 999h134l-207 -898h523l207 898h134l-206 -898h81l-94 -408h-134z" glyph-name="afii10088.locl" horiz-adv-x="1165"/><glyph d="M386 -15q-177 0 -239 118t-17 318l133 578h134l-132 -573q-39 -155 -2.5 -236t158.5 -81q125 0 221.5 86t126.5 218l134 586h134l-140 -609q-65 -281 162 -281q126 0 222.5 85.5t126.5 218.5l134 586h133l-229 -999h-128l40 169q-62 -93 -149 -138.5t-186 -45.5 q-115 0 -179.5 57t-73.5 164q-69 -109 -169 -165t-215 -56z" glyph-name="afii10090.locl" horiz-adv-x="1738"/><glyph d="M62 0l230 999h134l-207 -898h413l207 898h134l-207 -898h414l206 898h135l-230 -999h-1229z" glyph-name="afii10090.locl" horiz-adv-x="1583"/><glyph d="M1388 -307l70 290q-120 53 -104 188q-63 -91 -148.5 -138t-179.5 -47q-117 0 -182 54.5t-76 155.5q-68 -102 -168 -155.5t-213 -53.5q-178 0 -240 117t-17 317l133 578h134l-132 -573q-39 -155 -2.5 -235.5t158.5 -80.5q125 0 221.5 85.5t126.5 217.5l134 586h134 l-140 -609q-65 -280 163 -280q125 0 221.5 85.5t126.5 217.5l134 586h133l-177 -768q-15 -68 6 -111.5t97 -70.5l-100 -356h-113z" glyph-name="afii10091.locl" horiz-adv-x="1760"/><glyph d="M1167 -307l72 307h-1177l230 999h134l-207 -898h413l207 898h134l-207 -898h414l206 898h135l-207 -898h82l-94 -408h-135z" glyph-name="afii10091.locl" horiz-adv-x="1603"/><glyph d="M438 -15q-194 0 -275 120t-36 320l132 574h123l-85 -358q137 168 334 168q195 0 279 -117.5t41 -305.5q-41 -176 -181 -288.5t-332 -112.5zM451 100q133 0 232.5 87t130.5 227q28 117 -29.5 198t-182.5 81q-132 0 -230.5 -84.5t-129.5 -219.5q-30 -131 25.5 -210 t183.5 -79z" glyph-name="afii10094.aalt" horiz-adv-x="1055"/><glyph d="M565 -15q-194 0 -275 120t-36 320l110 472h-246l22 102h369l-85 -358q137 168 334 168q195 0 279 -117.5t41 -305.5q-41 -176 -181 -288.5t-332 -112.5zM578 100q133 0 232.5 87t130.5 227q28 117 -29.5 198t-182.5 81q-132 0 -230.5 -84.5t-129.5 -219.5 q-30 -131 25 -210t184 -79z" glyph-name="afii10092.aalt" horiz-adv-x="1182"/><glyph d="M438 -15q-194 0 -275 120t-36 320l132 574h123l-85 -358q137 168 334 168q195 0 279 -117t41 -303q-41 -178 -181 -291t-332 -113zM1053 0l229 999h123l-229 -999h-123zM451 100q133 0 232.5 87t130.5 227q28 117 -29.5 198t-182.5 81q-132 0 -230.5 -84.5t-129.5 -219.5 q-30 -131 25.5 -210t183.5 -79z" glyph-name="afii10093.aalt" horiz-adv-x="1467"/><glyph d="M844 -15q-214 0 -316 138t-59 358l-164 -5l-109 -476h-135l326 1413h134l-193 -835l174 5q70 197 220 312.5t344 115.5q221 0 322 -146.5t48 -379.5q-52 -222 -214 -361t-378 -139zM856 100q168 0 283.5 111.5t158.5 298.5q42 176 -19.5 280.5t-224.5 104.5 q-167 0 -283 -111.5t-159 -298.5q-41 -176 20.5 -280.5t223.5 -104.5z" glyph-name="afii10096.aalt" horiz-adv-x="1531"/><glyph d="M541 -15q-119 0 -202 47t-124 121t-56 173t-7.5 195.5t30.5 197.5q23 98 58 191t92.5 189.5t128.5 168.5t171 117.5t213 45.5q106 0 185 -42t123.5 -113t64.5 -166.5t15 -201t-31 -217.5q-25 -107 -66.5 -207t-102 -191.5t-133 -159.5t-165.5 -108t-194 -40zM553 115 q96 0 182 52t149.5 139.5t109 192t72.5 219.5q26 112 28.5 212.5t-20.5 184.5t-85.5 133.5t-159.5 49.5q-84 0 -159 -36.5t-130.5 -95.5t-101.5 -139.5t-76 -162.5t-51 -170q-19 -83 -26.5 -160.5t1.5 -155.5t37 -135t86.5 -92.5t143.5 -35.5z" glyph-name="zero.pnum" horiz-adv-x="1285"/><glyph d="M630 1413h130l-326 -1413h-135l247 1078h-355l25 107h238q124 0 149 111z" glyph-name="one.pnum" horiz-adv-x="763"/><glyph d="M1139 1000q-103 -442 -933 -875h806l-29 -125h-1017l26 128q82 45 134 74t138 79t143.5 88t135.5 92.5t132 101t114 106t100 114.5t72.5 118.5t46.5 126.5q29 127 -26 201.5t-189 74.5q-160 0 -266 -103t-146 -268l-130 18q48 211 197.5 343.5t356.5 132.5 q196 0 287.5 -113.5t46.5 -313.5z" glyph-name="two.pnum" horiz-adv-x="1189"/><glyph d="M471 -15q-107 0 -191.5 29.5t-139 85.5t-73.5 138.5t5 187.5l130 -3q-33 -146 45 -228.5t240 -82.5q161 0 284 83.5t155 227.5q12 39 8.5 71.5t-10.5 57.5t-26.5 45t-39 34t-49.5 24t-57.5 16.5t-62.5 10t-64.5 4.5t-63.5 1l22 124q109 -1 189 20t142 78.5t84 152.5 q25 108 -38.5 173t-186.5 65q-135 0 -236 -75.5t-129 -198.5l-126 18q40 176 181.5 280t321.5 104q181 0 281.5 -104.5t61.5 -270.5q-51 -224 -349 -298q72 -12 128 -40t96 -73.5t52 -108.5t-5 -145q-44 -186 -206.5 -294.5t-372.5 -108.5z" glyph-name="three.pnum" horiz-adv-x="1188"/><glyph d="M894 463h230l-29 -126h-231l-77 -337h-135l77 337h-707l19 88l946 988h126zM759 463l171 746l-705 -746h534z" glyph-name="four.pnum" horiz-adv-x="1192"/><glyph d="M1188 1286h-618l-186 -458q164 115 329 115q128 0 219 -64t127 -175t5 -244q-30 -128 -119 -237.5t-214.5 -173.5t-257.5 -64q-178 0 -284.5 115.5t-104.5 294.5l131 25q-2 -139 67.5 -224.5t204.5 -85.5q151 0 279.5 110.5t164.5 264.5q33 144 -36 239t-215 95 q-93 0 -188 -47t-169 -129l-129 43l295 727h728z" glyph-name="five.pnum" horiz-adv-x="1185"/><glyph d="M456 -15q-201 0 -311 140t-64 338q26 119 121 233l596 717h157l-474 -559q87 58 175 58q131 0 228.5 -61.5t138 -170t10.5 -238.5q-21 -91 -77 -175t-132.5 -146t-173 -99t-194.5 -37zM472 114q144 0 271 103t161 249q32 134 -45 230.5t-216 96.5q-144 0 -271.5 -103.5 t-161.5 -248.5q-31 -136 45.5 -231.5t216.5 -95.5z" glyph-name="six.pnum" horiz-adv-x="1134"/><glyph d="M268 1413h990l-18 -83l-957 -1330h-154l938 1287h-827z" glyph-name="seven.pnum" horiz-adv-x="1108"/><glyph d="M475 -15q-93 0 -171.5 26.5t-135.5 79.5t-78 132t1 185q31 129 124.5 225t227.5 139q-77 40 -107 123t-6 192q24 105 99.5 184.5t171 118t195.5 38.5q169 0 261 -103t55 -269q-23 -97 -91.5 -176t-166.5 -120q113 -41 161 -140.5t17 -235.5q-30 -129 -119 -221.5 t-202 -135t-236 -42.5zM657 817q117 0 209 71.5t118 186.5q25 108 -30.5 173t-167.5 65q-110 0 -204.5 -67t-121.5 -185q-26 -110 28 -177t169 -67zM486 103q146 0 264 81t152 230q30 129 -43.5 207t-218.5 78q-155 0 -270.5 -84.5t-147.5 -224.5q-16 -73 -2 -127t53 -89.5 t93 -53t120 -17.5z" glyph-name="eight.pnum" horiz-adv-x="1174"/><glyph d="M780 1428q132 0 229.5 -64.5t137 -175t9.5 -241.5q-34 -151 -157 -272l-559 -675h-159l419 506q-62 -14 -121 -14q-131 0 -228 64.5t-137 175t-10 240.5q29 124 116.5 229t210 166t249.5 61zM333 947q-32 -134 45 -230.5t216 -96.5q146 0 273 103.5t160 248.5 q32 136 -44.5 232t-216.5 96q-145 0 -272.5 -103.5t-160.5 -249.5z" glyph-name="nine.pnum" horiz-adv-x="1170"/><glyph d="M281 -9q-73 0 -124 28.5t-76 73.5t-34 105.5t-4.5 118.5t18.5 119q13 58 33.5 112.5t55 112.5t77 100.5t102.5 70t128 27.5q65 0 113.5 -25.5t75 -68.5t38 -101.5t8.5 -122t-19 -131.5q-19 -80 -53 -152.5t-82.5 -133.5t-115 -97t-141.5 -36zM284 81q74 0 136.5 54 t101 131.5t59.5 169.5q15 64 16.5 120.5t-10.5 105t-47 77t-90 28.5q-60 0 -112 -31.5t-88 -85t-60.5 -113t-39.5 -125.5q-14 -61 -17 -115.5t8 -105t47 -80.5t96 -30z" glyph-name="zero.dnom" horiz-adv-x="768"/><glyph d="M462 848h90l-195 -848h-94l146 638h-209l16 74h135q81 0 96 72z" glyph-name="one.dnom" horiz-adv-x="768"/><glyph d="M663 593q-18 -76 -73 -150.5t-137 -139.5t-177 -120t-206 -104h520l-19 -79h-616l16 86q65 36 100.5 56t103.5 61t109.5 71t96.5 75.5t89 85t63 88.5t40 97q16 69 -14 110t-105 41q-92 0 -154.5 -61.5t-85.5 -156.5l-89 16q30 127 119 207.5t215 80.5q118 0 175 -70.5 t29 -193.5z" glyph-name="two.dnom" horiz-adv-x="768"/><glyph d="M265 -9q-134 0 -204 72t-42 197l91 -4q-20 -84 24.5 -130.5t136.5 -46.5q93 0 165 49t90 133q3 25 4.5 45t-8.5 35t-19.5 26t-28.5 18t-35.5 11.5t-39.5 7t-41.5 3t-41.5 0.5l13 85q102 0 161.5 33t77.5 113q15 59 -21 94.5t-104 35.5q-78 0 -137 -44t-76 -114l-87 16 q25 107 110 169t193 62q111 0 173 -64.5t38 -167.5q-29 -125 -197 -173q86 -15 129.5 -73t22.5 -149q-27 -111 -124.5 -175t-222.5 -64z" glyph-name="three.dnom" horiz-adv-x="768"/><glyph d="M515 290h137l-20 -88h-137l-46 -202h-95l46 202h-418l12 59l563 587h86zM421 290l95 413l-391 -413h296z" glyph-name="four.dnom" horiz-adv-x="768"/><glyph d="M698 759h-365l-99 -246q90 56 178 56q119 0 181.5 -86.5t33.5 -211.5q-27 -114 -131 -197t-223 -83q-110 0 -175.5 71t-64.5 180l92 14q-2 -80 36.5 -129.5t117.5 -49.5q87 0 161 65t95 155q18 79 -21 132t-122 53q-54 0 -109 -27.5t-98 -74.5l-88 30l179 438h443z" glyph-name="five.dnom" horiz-adv-x="768"/></font>
</defs>
</svg>
